<?xml version="1.0" encoding="UTF-8"?>
<svg width="327px" height="396px" viewBox="0 0 327 396" version="1.1" xmlns="http://www.w3.org/2000/svg" xmlns:xlink="http://www.w3.org/1999/xlink">
    <!-- Generator: Sketch 52.2 (67145) - http://www.bohemiancoding.com/sketch -->
    <title>Group</title>
    <desc>Created with Sketch.</desc>
    <g id="Page-1" stroke="none" stroke-width="1" fill="none" fill-rule="evenodd">
        <g id="About" transform="translate(-952.000000, -216.000000)">
            <g id="Group" transform="translate(952.000000, 217.000000)">
                <polygon id="Path" stroke="#000000" fill="#FFFFFF" points="19.1220621 108.96865 1.15267874 98.2697585 1.15267874 77.0127504 19.1220621 87.7116419"></polygon>
                <polygon id="Path" stroke="#000000" fill="#FFFFFF" points="155.328882 30.9815966 19.3716985 108.910552 19.3716985 87.4032778 155.328882 9.54415083"></polygon>
                <polygon id="Path" stroke="#000000" fill="#FFFFFF" points="0.900613865 77.4356207 19.2528037 88.0331446 155.882414 9.80668552 135.576379 0.0458082759"></polygon>
                <g id="Group-26" transform="translate(42.901391, 220.666789)">
                    <polygon id="Path-4" stroke="#000000" fill-rule="nonzero" points="0.361320849 94.2758359 0.361320849 104.086444 118.893311 173.223968 118.893311 161.595317"></polygon>
                    <polygon id="Path-2" stroke="#000000" fill="#FFFFFF" fill-rule="nonzero" points="163.244795 0.18195081 281.806236 67.8458164 120.030812 161.595317 0.361320849 93.3584214"></polygon>
                    <ellipse id="Oval" stroke="#000000" stroke-width="2" fill="#FFFFFF" cx="154.206613" cy="41.7140551" rx="15.4772094" ry="11.2682699"></ellipse>
                    <g id="Group-24" transform="translate(30.278694, 46.770186)">
                        <polygon id="Rectangle" fill="#000000" transform="translate(46.580389, 68.770479) rotate(-60.640998) translate(-46.580389, -68.770479) " points="45.8487843 16.4788296 47.3129672 16.478816 47.3119933 121.062129 45.8478103 121.062143"></polygon>
                        <polygon id="Rectangle" fill="#000000" transform="translate(65.371523, 58.450952) rotate(-60.640998) translate(-65.371523, -58.450952) " points="64.639918 6.15930248 66.104101 6.15928885 66.103127 110.742602 64.6389441 110.742616"></polygon>
                        <polygon id="Rectangle" fill="#000000" transform="translate(84.251541, 48.459684) rotate(-60.640998) translate(-84.251541, -48.459684) " points="83.5199365 -3.83196632 84.9841195 -3.83197996 84.9831455 100.751333 83.5189626 100.751347"></polygon>
                        <polygon id="Rectangle" fill="#000000" transform="translate(103.138392, 38.115942) rotate(-60.640998) translate(-103.138392, -38.115942) " points="102.406788 -14.1757074 103.87097 -14.175721 103.869997 90.4075923 102.405814 90.407606"></polygon>
                        <polygon id="Rectangle" fill="#000000" transform="translate(150.502926, 41.682093) rotate(-60.594807) translate(-150.502926, -41.682093) " points="149.771048 19.1968018 151.235224 19.1967882 151.234805 64.167384 149.770629 64.1673977"></polygon>
                        <polygon id="Rectangle" fill="#000000" transform="translate(169.354005, 31.398172) rotate(-60.594807) translate(-169.354005, -31.398172) " points="168.622126 8.912881 170.086302 8.91286735 170.085883 53.8834632 168.621707 53.8834769"></polygon>
                        <polygon id="Rectangle" fill="#000000" transform="translate(185.719181, 22.126524) rotate(-60.594807) translate(-185.719181, -22.126524) " points="184.987303 -0.35876713 186.451478 -0.358780779 186.451059 44.6118151 184.986884 44.6118287"></polygon>
                        <path d="M185.036039,0.745608232 L224.148416,22.8470231" id="Path" fill="#141516"></path>
                        <polygon id="Rectangle" fill="#000000" transform="translate(204.603946, 11.781305) rotate(-60.594807) translate(-204.603946, -11.781305) " points="203.872074 -10.7039754 205.336237 -10.703989 205.335818 34.2665851 203.871654 34.2665987"></polygon>
                    </g>
                    <polygon id="Path-5" stroke="#000000" fill="#FFFFFF" fill-rule="nonzero" points="118.922762 173.223968 282.914287 76.9584075 281.806236 68.9550601 118.922762 162.131531"></polygon>
                    <path d="M162.136745,13.4562813 C190.946067,29.7495848 205.350728,37.8962365 205.350728,37.8962365 C166.938298,60.0811105 147.732084,71.1735474 147.732084,71.1735474 L105.626151,46.7701861 C143.29988,24.5609162 162.136745,13.4562813 162.136745,13.4562813 Z" id="Path-3" stroke="#000000" fill-rule="nonzero"></path>
                </g>
                <g id="Group-26" transform="translate(19.993644, 118.798319)">
                    <polygon id="Path-4" stroke="#000000" fill="#FFFFFF" fill-rule="nonzero" points="0.361320849 94.2758359 0.361320849 104.086444 118.893311 173.223968 118.893311 161.595317"></polygon>
                    <polygon id="Path-2" stroke="#000000" fill="#FFFFFF" fill-rule="nonzero" points="163.244795 0.18195081 281.806236 67.8458164 120.030812 161.595317 0.361320849 93.3584214"></polygon>
                    <ellipse id="Oval" stroke="#000000" stroke-width="2" fill="#FFFFFF" cx="154.206613" cy="41.7140551" rx="15.4772094" ry="11.2682699"></ellipse>
                    <g id="Group-24" transform="translate(30.278694, 46.770186)">
                        <polygon id="Rectangle" fill="#000000" transform="translate(46.580389, 68.770479) rotate(-60.640998) translate(-46.580389, -68.770479) " points="45.8487843 16.4788296 47.3129672 16.478816 47.3119933 121.062129 45.8478103 121.062143"></polygon>
                        <polygon id="Rectangle" fill="#000000" transform="translate(65.371523, 58.450952) rotate(-60.640998) translate(-65.371523, -58.450952) " points="64.639918 6.15930248 66.104101 6.15928885 66.103127 110.742602 64.6389441 110.742616"></polygon>
                        <polygon id="Rectangle" fill="#000000" transform="translate(84.251541, 48.459684) rotate(-60.640998) translate(-84.251541, -48.459684) " points="83.5199365 -3.83196632 84.9841195 -3.83197996 84.9831455 100.751333 83.5189626 100.751347"></polygon>
                        <polygon id="Rectangle" fill="#000000" transform="translate(103.138392, 38.115942) rotate(-60.640998) translate(-103.138392, -38.115942) " points="102.406788 -14.1757074 103.87097 -14.175721 103.869997 90.4075923 102.405814 90.407606"></polygon>
                        <polygon id="Rectangle" fill="#000000" transform="translate(150.502926, 41.682093) rotate(-60.594807) translate(-150.502926, -41.682093) " points="149.771048 19.1968018 151.235224 19.1967882 151.234805 64.167384 149.770629 64.1673977"></polygon>
                        <polygon id="Rectangle" fill="#000000" transform="translate(169.354005, 31.398172) rotate(-60.594807) translate(-169.354005, -31.398172) " points="168.622126 8.912881 170.086302 8.91286735 170.085883 53.8834632 168.621707 53.8834769"></polygon>
                        <polygon id="Rectangle" fill="#000000" transform="translate(185.719181, 22.126524) rotate(-60.594807) translate(-185.719181, -22.126524) " points="184.987303 -0.35876713 186.451478 -0.358780779 186.451059 44.6118151 184.986884 44.6118287"></polygon>
                        <path d="M185.036039,0.745608232 L224.148416,22.8470231" id="Path" fill="#141516"></path>
                        <polygon id="Rectangle" fill="#000000" transform="translate(204.603946, 11.781305) rotate(-60.594807) translate(-204.603946, -11.781305) " points="203.872074 -10.7039754 205.336237 -10.703989 205.335818 34.2665851 203.871654 34.2665987"></polygon>
                    </g>
                    <polygon id="Path-5" stroke="#000000" fill="#FFFFFF" fill-rule="nonzero" points="118.922762 173.223968 282.914287 76.9584075 281.806236 68.9550601 118.922762 162.131531"></polygon>
                    <path d="M162.136745,13.4562813 C190.946067,29.7495848 205.350728,37.8962365 205.350728,37.8962365 C166.938298,60.0811105 147.732084,71.1735474 147.732084,71.1735474 L105.626151,46.7701861 C143.29988,24.5609162 162.136745,13.4562813 162.136745,13.4562813 Z" id="Path-3" stroke="#000000" fill-rule="nonzero"></path>
                </g>
            </g>
        </g>
    </g>
</svg>