<?xml version="1.0" encoding="UTF-8"?>
<svg width="359px" height="330px" viewBox="0 0 359 330" version="1.1" xmlns="http://www.w3.org/2000/svg" xmlns:xlink="http://www.w3.org/1999/xlink">
    <!-- Generator: Sketch 52.2 (67145) - http://www.bohemiancoding.com/sketch -->
    <title>Group</title>
    <desc>Created with Sketch.</desc>
    <g id="Page-1" stroke="none" stroke-width="1" fill="none" fill-rule="evenodd">
        <g id="About" transform="translate(-185.000000, -1017.000000)">
            <g id="Group" transform="translate(186.000000, 1018.000000)">
                <polygon id="Path" stroke="#000000" fill="#FFFFFF" points="101.573799 90.6627321 86.627945 81.7610864 86.627945 64.0749219 101.573799 72.9765676"></polygon>
                <polygon id="Path" stroke="#000000" fill="#FFFFFF" points="214.862454 25.7762791 101.781432 90.6143941 101.781432 72.7200039 214.862454 7.93998767"></polygon>
                <polygon id="Path" stroke="#000000" fill="#FFFFFF" points="86.4182926 64.4267567 101.682542 73.2440629 215.322849 8.15842065 198.433509 0.037217515"></polygon>
                <g id="Group-25" transform="translate(0.000000, 229.894132)" fill="#FFFFFF" stroke="#000000">
                    <polygon id="Path" points="14.9458542 69.7536919 0 60.8520462 0 43.1658817 14.9458542 52.0675274"></polygon>
                    <polygon id="Path" points="91.8839887 26.8545708 14.7457627 69.5428895 14.7457627 51.6484993 91.8839887 9.01827928"></polygon>
                    <polygon id="Path" points="-9.09494702e-13 42.9518487 15.2642496 51.7691549 92.0401501 8.83330885 75.1508092 0.712105714"></polygon>
                </g>
                <g id="Group-26" transform="translate(121.352017, 183.597338)">
                    <polygon id="Path-4" stroke="#000000" fill-rule="nonzero" points="0.300524989 78.4389759 0.300524989 86.6015556 98.888318 144.125061 98.888318 134.449842"></polygon>
                    <polygon id="Path-2" stroke="#000000" fill="#FFFFFF" fill-rule="nonzero" points="135.77722 0.151385931 234.389508 56.4487846 99.8344233 134.449842 0.300524989 77.6756726"></polygon>
                    <ellipse id="Oval" stroke="#000000" stroke-width="2" fill="#FFFFFF" cx="128.259803" cy="34.7067488" rx="12.8730135" ry="9.37537747"></ellipse>
                    <g id="Group-24" transform="translate(25.184000, 38.913529)">
                        <polygon id="Rectangle" fill="#000000" transform="translate(38.742771, 57.218119) rotate(-60.640998) translate(-38.742771, -57.218119) " points="38.1402742 13.7216842 39.3584004 13.7215003 39.3452674 100.714553 38.1271412 100.714737"></polygon>
                        <polygon id="Rectangle" fill="#000000" transform="translate(54.372108, 48.632110) rotate(-60.640998) translate(-54.372108, -48.632110) " points="53.7696111 5.13567557 54.9877372 5.13549171 54.9746042 92.1285448 53.756478 92.1287286"></polygon>
                        <polygon id="Rectangle" fill="#000000" transform="translate(70.075374, 40.319218) rotate(-60.640998) translate(-70.075374, -40.319218) " points="69.4728769 -3.17721696 70.6910031 -3.17740082 70.6778701 83.8156522 69.4597439 83.8158361"></polygon>
                        <polygon id="Rectangle" fill="#000000" transform="translate(85.784322, 31.713063) rotate(-60.640998) translate(-85.784322, -31.713063) " points="85.1818257 -11.7833719 86.3999518 -11.7835558 86.3868188 75.2094973 85.1686927 75.2096811"></polygon>
                        <polygon id="Rectangle" fill="#000000" transform="translate(125.179298, 34.680156) rotate(-60.594807) translate(-125.179298, -34.680156) " points="124.573065 15.9768324 125.791184 15.9766483 125.785532 53.3834793 124.567412 53.3836633"></polygon>
                        <polygon id="Rectangle" fill="#000000" transform="translate(140.858493, 26.123772) rotate(-60.594807) translate(-140.858493, -26.123772) " points="140.25226 7.42044875 141.470379 7.42026471 141.464727 44.8270957 140.246607 44.8272797"></polygon>
                        <polygon id="Rectangle" fill="#000000" transform="translate(154.470064, 18.409615) rotate(-60.594807) translate(-154.470064, -18.409615) " points="153.863831 -0.293708079 155.081951 -0.293892121 155.076298 37.1129389 153.858178 37.1131229"></polygon>
                        <path d="M153.901868,0.620357757 L186.433195,19.009082" id="Path" fill="#141516"></path>
                        <polygon id="Rectangle" fill="#000000" transform="translate(170.177278, 9.802231) rotate(-60.594807) translate(-170.177278, -9.802231) " points="169.57105 -8.90108381 170.789159 -8.90126784 170.783506 28.5055451 169.565397 28.5057291"></polygon>
                    </g>
                    <polygon id="Path-5" stroke="#000000" fill="#FFFFFF" fill-rule="nonzero" points="98.9128131 144.125061 235.311118 64.0306035 234.389508 57.3716927 98.9128131 134.895979"></polygon>
                    <path d="M134.85561,11.1958373 C158.817474,24.7521217 170.798406,31.5302639 170.798406,31.5302639 C138.849254,49.9884273 122.874678,59.2175091 122.874678,59.2175091 L87.8534911,38.9135292 C119.188237,20.435068 134.85561,11.1958373 134.85561,11.1958373 Z" id="Path-3" stroke="#000000" fill-rule="nonzero"></path>
                </g>
                <g id="Group-26" transform="translate(102.298729, 98.841171)">
                    <polygon id="Path-4" stroke="#000000" fill="#FFFFFF" fill-rule="nonzero" points="0.300524989 78.4389759 0.300524989 86.6015556 98.888318 144.125061 98.888318 134.449842"></polygon>
                    <polygon id="Path-2" stroke="#000000" fill="#FFFFFF" fill-rule="nonzero" points="135.77722 0.151385931 234.389508 56.4487846 99.8344233 134.449842 0.300524989 77.6756726"></polygon>
                    <ellipse id="Oval" stroke="#000000" stroke-width="2" fill="#FFFFFF" cx="128.259803" cy="34.7067488" rx="12.8730135" ry="9.37537747"></ellipse>
                    <g id="Group-24" transform="translate(25.184000, 38.913529)">
                        <polygon id="Rectangle" fill="#000000" transform="translate(38.742771, 57.218119) rotate(-60.640998) translate(-38.742771, -57.218119) " points="38.1402742 13.7216842 39.3584004 13.7215003 39.3452674 100.714553 38.1271412 100.714737"></polygon>
                        <polygon id="Rectangle" fill="#000000" transform="translate(54.372108, 48.632110) rotate(-60.640998) translate(-54.372108, -48.632110) " points="53.7696111 5.13567557 54.9877372 5.13549171 54.9746042 92.1285448 53.756478 92.1287286"></polygon>
                        <polygon id="Rectangle" fill="#000000" transform="translate(70.075374, 40.319218) rotate(-60.640998) translate(-70.075374, -40.319218) " points="69.4728769 -3.17721696 70.6910031 -3.17740082 70.6778701 83.8156522 69.4597439 83.8158361"></polygon>
                        <polygon id="Rectangle" fill="#000000" transform="translate(85.784322, 31.713063) rotate(-60.640998) translate(-85.784322, -31.713063) " points="85.1818257 -11.7833719 86.3999518 -11.7835558 86.3868188 75.2094973 85.1686927 75.2096811"></polygon>
                        <polygon id="Rectangle" fill="#000000" transform="translate(125.179298, 34.680156) rotate(-60.594807) translate(-125.179298, -34.680156) " points="124.573065 15.9768324 125.791184 15.9766483 125.785532 53.3834793 124.567412 53.3836633"></polygon>
                        <polygon id="Rectangle" fill="#000000" transform="translate(140.858493, 26.123772) rotate(-60.594807) translate(-140.858493, -26.123772) " points="140.25226 7.42044875 141.470379 7.42026471 141.464727 44.8270957 140.246607 44.8272797"></polygon>
                        <polygon id="Rectangle" fill="#000000" transform="translate(154.470064, 18.409615) rotate(-60.594807) translate(-154.470064, -18.409615) " points="153.863831 -0.293708079 155.081951 -0.293892121 155.076298 37.1129389 153.858178 37.1131229"></polygon>
                        <path d="M153.901868,0.620357757 L186.433195,19.009082" id="Path" fill="#141516"></path>
                        <polygon id="Rectangle" fill="#000000" transform="translate(170.177278, 9.802231) rotate(-60.594807) translate(-170.177278, -9.802231) " points="169.57105 -8.90108381 170.789159 -8.90126784 170.783506 28.5055451 169.565397 28.5057291"></polygon>
                    </g>
                    <polygon id="Path-5" stroke="#000000" fill="#FFFFFF" fill-rule="nonzero" points="98.9128131 144.125061 235.311118 64.0306035 234.389508 57.3716927 98.9128131 134.895979"></polygon>
                    <path d="M134.85561,11.1958373 C158.817474,24.7521217 170.798406,31.5302639 170.798406,31.5302639 C138.849254,49.9884273 122.874678,59.2175091 122.874678,59.2175091 L87.8534911,38.9135292 C119.188237,20.435068 134.85561,11.1958373 134.85561,11.1958373 Z" id="Path-3" stroke="#000000" fill-rule="nonzero"></path>
                </g>
            </g>
        </g>
    </g>
</svg>