<?xml version="1.0" encoding="UTF-8"?>
<svg width="101px" height="76px" viewBox="0 0 101 76" version="1.1" xmlns="http://www.w3.org/2000/svg" xmlns:xlink="http://www.w3.org/1999/xlink">
    <!-- Generator: Sketch 52.2 (67145) - http://www.bohemiancoding.com/sketch -->
    <title>Group 13</title>
    <desc>Created with Sketch.</desc>
    <g id="Page-1" stroke="none" stroke-width="1" fill="none" fill-rule="evenodd">
        <g id="About" transform="translate(-734.000000, -1382.000000)" stroke="#000000">
            <g id="Group-13" transform="translate(784.500000, 1420.125000) scale(-1, 1) translate(-784.500000, -1420.125000) translate(735.000000, 1383.000000)">
                <polygon id="Path" fill="#FFFFFF" points="15.8836514 74.2110184 -1.13686838e-13 64.7539625 -1.13686838e-13 45.9642857 15.8836514 55.4213416"></polygon>
                <polygon id="Path" fill="#FFFFFF" points="98.7730075 26.9045279 16.7946429 74.2173302 16.7946429 55.2064357 98.7730075 7.95535714"></polygon>
                <polygon id="Path" fill="#FFFFFF" points="3.7658765e-13 46.836238 16.2220249 56.2036921 97.8153294 8.62791828 79.8662448 -6.85868736e-13"></polygon>
                <path d="M21.2142857,53.5650442 L21.2142857,72.0401786" id="Path-8" fill-rule="nonzero"></path>
                <path d="M25.6339286,50.9132585 L25.6339286,69.3883929" id="Path-8" fill-rule="nonzero"></path>
                <path d="M30.9375,47.3775442 L30.9375,65.8526786" id="Path-8" fill-rule="nonzero"></path>
                <path d="M35.3571429,44.7257585 L35.3571429,63.2008929" id="Path-8" fill-rule="nonzero"></path>
                <path d="M40.6607143,42.0739727 L40.6607143,60.5491071" id="Path-8" fill-rule="nonzero"></path>
                <path d="M45.0803571,39.422187 L45.0803571,57.8973214" id="Path-8" fill-rule="nonzero"></path>
                <path d="M50.3839286,36.7704013 L50.3839286,55.2455357" id="Path-8" fill-rule="nonzero"></path>
                <path d="M54.8035714,34.1186156 L54.8035714,52.59375" id="Path-8" fill-rule="nonzero"></path>
                <path d="M59.2232143,31.4668299 L59.2232143,49.9419643" id="Path-8" fill-rule="nonzero"></path>
                <path d="M63.6428571,28.8150442 L63.6428571,47.2901786" id="Path-8" fill-rule="nonzero"></path>
                <path d="M68.0625,26.1632585 L68.0625,44.6383929" id="Path-8" fill-rule="nonzero"></path>
                <path d="M72.4821429,23.5114727 L72.4821429,41.9866071" id="Path-8" fill-rule="nonzero"></path>
                <path d="M76.9017857,20.859687 L76.9017857,39.3348214" id="Path-8" fill-rule="nonzero"></path>
                <path d="M81.3214286,18.2079013 L81.3214286,36.6830357" id="Path-8" fill-rule="nonzero"></path>
                <path d="M86.625,15.5561156 L86.625,34.03125" id="Path-8" fill-rule="nonzero"></path>
                <path d="M91.0446429,12.9043299 L91.0446429,31.3794643" id="Path-8" fill-rule="nonzero"></path>
                <path d="M95.4642857,10.2525442 L95.4642857,28.7276786" id="Path-8" fill-rule="nonzero"></path>
            </g>
        </g>
    </g>
</svg>