<?xml version="1.0" encoding="UTF-8"?>
<svg width="114px" height="86px" viewBox="0 0 114 86" version="1.1" xmlns="http://www.w3.org/2000/svg" xmlns:xlink="http://www.w3.org/1999/xlink">
    <!-- Generator: Sketch 52.2 (67145) - http://www.bohemiancoding.com/sketch -->
    <title>Group 13</title>
    <desc>Created with Sketch.</desc>
    <g id="Page-1" stroke="none" stroke-width="1" fill="none" fill-rule="evenodd">
        <g id="About" transform="translate(-671.000000, -800.000000)" stroke="#000000">
            <g id="Group-13" transform="translate(672.000000, 801.000000)">
                <polygon id="Path" fill="#FFFFFF" points="17.9693834 83.9558996 -1.13686838e-13 73.2570081 -1.13686838e-13 52 17.9693834 62.6988915"></polygon>
                <polygon id="Path" fill="#FFFFFF" points="111.7432 30.4374457 19 83.9630402 19 62.4557657 111.7432 9"></polygon>
                <polygon id="Path" fill="#FFFFFF" points="3.7658765e-13 52.9864511 18.3521898 63.5839749 110.659767 9.76087724 90.3537315 -6.85894341e-13"></polygon>
                <path d="M24,60.5988379 L24,81.5" id="Path-8" fill-rule="nonzero"></path>
                <path d="M29,57.5988379 L29,78.5" id="Path-8" fill-rule="nonzero"></path>
                <path d="M35,53.5988379 L35,74.5" id="Path-8" fill-rule="nonzero"></path>
                <path d="M40,50.5988379 L40,71.5" id="Path-8" fill-rule="nonzero"></path>
                <path d="M46,47.5988379 L46,68.5" id="Path-8" fill-rule="nonzero"></path>
                <path d="M51,44.5988379 L51,65.5" id="Path-8" fill-rule="nonzero"></path>
                <path d="M57,41.5988379 L57,62.5" id="Path-8" fill-rule="nonzero"></path>
                <path d="M62,38.5988379 L62,59.5" id="Path-8" fill-rule="nonzero"></path>
                <path d="M67,35.5988379 L67,56.5" id="Path-8" fill-rule="nonzero"></path>
                <path d="M72,32.5988379 L72,53.5" id="Path-8" fill-rule="nonzero"></path>
                <path d="M77,29.5988379 L77,50.5" id="Path-8" fill-rule="nonzero"></path>
                <path d="M82,26.5988379 L82,47.5" id="Path-8" fill-rule="nonzero"></path>
                <path d="M87,23.5988379 L87,44.5" id="Path-8" fill-rule="nonzero"></path>
                <path d="M92,20.5988379 L92,41.5" id="Path-8" fill-rule="nonzero"></path>
                <path d="M98,17.5988379 L98,38.5" id="Path-8" fill-rule="nonzero"></path>
                <path d="M103,14.5988379 L103,35.5" id="Path-8" fill-rule="nonzero"></path>
                <path d="M108,11.5988379 L108,32.5" id="Path-8" fill-rule="nonzero"></path>
            </g>
        </g>
    </g>
</svg>