<?xml version="1.0" encoding="UTF-8"?>
<svg width="437px" height="329px" viewBox="0 0 437 329" version="1.1" xmlns="http://www.w3.org/2000/svg" xmlns:xlink="http://www.w3.org/1999/xlink">
    <!-- Generator: Sketch 52.2 (67145) - http://www.bohemiancoding.com/sketch -->
    <title>Group 12</title>
    <desc>Created with Sketch.</desc>
    <g id="Page-1" stroke="none" stroke-width="1" fill="none" fill-rule="evenodd">
        <g id="About" transform="translate(-850.000000, -1515.000000)">
            <g id="Group-12" transform="translate(851.000000, 1516.000000)">
                <g id="Group" transform="translate(217.500000, 164.500000) scale(-1, 1) translate(-217.500000, -164.500000) ">
                    <g id="Group-9" transform="translate(86.000000, 0.000000)" fill="#FFFFFF" stroke="#000000">
                        <polygon id="Path" points="15.5737993 90.5352215 0.627945036 81.6460953 0.627945036 63.9848051 15.5737993 72.8739313"></polygon>
                        <polygon id="Path" points="128.862454 25.7400266 15.7814318 90.4869514 15.7814318 72.6177284 128.862454 7.92882064"></polygon>
                        <polygon id="Path" points="0.418292603 64.336145 15.6825422 73.1410504 129.322849 8.14694641 112.433509 0.0371651712"></polygon>
                    </g>
                    <g id="Group-25" transform="translate(0.000000, 229.570802)" fill="#FFFFFF" stroke="#000000">
                        <polygon id="Path" points="14.9458542 69.6555883 0 60.7664622 0 43.105172 14.9458542 51.9942982"></polygon>
                        <polygon id="Path" points="91.8839887 26.8168017 14.7457627 69.4450824 14.7457627 51.5758594 91.8839887 9.00559571"></polygon>
                        <polygon id="Path" points="-9.09494702e-13 42.89144 15.2642496 51.6963453 92.0401501 8.82088543 75.1508092 0.711104188"></polygon>
                    </g>
                    <polygon id="Path" stroke="#000000" fill="#FFFFFF" points="356.707066 211.673425 341.761211 202.784298 341.761211 185.123008 356.707066 194.012134"></polygon>
                    <polygon id="Path" stroke="#000000" fill="#FFFFFF" points="434.56681 166.991418 357.428584 211.462919 357.428584 193.593696 434.56681 149.180212"></polygon>
                    <polygon id="Path" stroke="#000000" fill="#FFFFFF" points="341.761211 185.830886 357.025461 194.635792 433.801362 149.917112 416.912021 141.80733"></polygon>
                    <g id="Group-26" transform="translate(121.352017, 183.339121)">
                        <polygon id="Path-4" stroke="#000000" fill-rule="nonzero" points="0.300524989 78.328657 0.300524989 86.4797567 98.888318 143.922359 98.888318 134.260747"></polygon>
                        <polygon id="Path-2" stroke="#000000" fill="#FFFFFF" fill-rule="nonzero" points="135.77722 0.151173018 234.389508 56.3693934 99.8344233 134.260747 0.300524989 77.5664273"></polygon>
                        <ellipse id="Oval" stroke="#000000" stroke-width="2" fill="#FFFFFF" cx="128.259803" cy="34.6579362" rx="12.8730135" ry="9.36219167"></ellipse>
                        <g id="Group-24" transform="translate(25.184000, 38.858800)">
                            <polygon id="Rectangle" fill="#000000" transform="translate(38.742771, 57.137646) rotate(-60.640998) translate(-38.742771, -57.137646) " points="38.1147773 13.6555537 39.331602 13.656102 39.3707643 100.619737 38.1539396 100.619189"></polygon>
                            <polygon id="Rectangle" fill="#000000" transform="translate(54.372108, 48.563713) rotate(-60.640998) translate(-54.372108, -48.563713) " points="53.7441141 5.08162072 54.9609388 5.08216899 55.0001011 92.0458044 53.7832765 92.0452562"></polygon>
                            <polygon id="Rectangle" fill="#000000" transform="translate(70.075374, 40.262512) rotate(-60.640998) translate(-70.075374, -40.262512) " points="69.44738 -3.21958033 70.6642047 -3.21903205 70.703367 83.7446034 69.4865424 83.7440551"></polygon>
                            <polygon id="Rectangle" fill="#000000" transform="translate(85.784322, 31.668460) rotate(-60.640998) translate(-85.784322, -31.668460) " points="85.1563288 -11.8136314 86.3731534 -11.8130831 86.4123157 75.1505523 85.1954911 75.1500041"></polygon>
                            <polygon id="Rectangle" fill="#000000" transform="translate(125.179298, 34.631381) rotate(-60.594807) translate(-125.179298, -34.631381) " points="124.562461 15.9340337 125.77928 15.9345825 125.796136 53.3287277 124.579317 53.3281788"></polygon>
                            <polygon id="Rectangle" fill="#000000" transform="translate(140.858493, 26.087031) rotate(-60.594807) translate(-140.858493, -26.087031) " points="140.241656 7.389684 141.458475 7.3902328 141.475331 44.784378 140.258512 44.7838292"></polygon>
                            <polygon id="Rectangle" fill="#000000" transform="translate(154.470064, 18.383724) rotate(-60.594807) translate(-154.470064, -18.383724) " points="153.853227 -0.313623423 155.070046 -0.313074617 155.086902 37.0810706 153.870083 37.0805218"></polygon>
                            <path d="M153.901868,0.619485268 L186.433195,18.9823471" id="Path" fill="#141516"></path>
                            <polygon id="Rectangle" fill="#000000" transform="translate(170.177278, 9.788444) rotate(-60.594807) translate(-170.177278, -9.788444) " points="169.560445 -8.90889348 170.777255 -8.90834466 170.794111 28.4857825 169.577301 28.4852336"></polygon>
                        </g>
                        <polygon id="Path-5" stroke="#000000" fill="#FFFFFF" fill-rule="nonzero" points="98.9128131 143.922359 235.311118 63.940549 234.389508 57.2910035 98.9128131 134.706258"></polygon>
                        <path d="M134.85561,11.1800912 C158.817474,24.7173096 170.798406,31.4859188 170.798406,31.4859188 C138.849254,49.9181222 122.874678,59.1342239 122.874678,59.1342239 L87.8534911,38.8588001 C119.188237,20.4063275 134.85561,11.1800912 134.85561,11.1800912 Z" id="Path-3" stroke="#000000" fill-rule="nonzero"></path>
                    </g>
                    <g id="Group-26" transform="translate(102.298729, 98.702158)">
                        <polygon id="Path-4" stroke="#000000" fill="#FFFFFF" fill-rule="nonzero" points="0.300524989 78.328657 0.300524989 86.4797567 98.888318 143.922359 98.888318 134.260747"></polygon>
                        <polygon id="Path-2" stroke="#000000" fill="#FFFFFF" fill-rule="nonzero" points="135.77722 0.151173018 234.389508 56.3693934 99.8344233 134.260747 0.300524989 77.5664273"></polygon>
                        <ellipse id="Oval" stroke="#000000" stroke-width="2" fill="#FFFFFF" cx="128.259803" cy="34.6579362" rx="12.8730135" ry="9.36219167"></ellipse>
                        <g id="Group-24" transform="translate(25.184000, 38.858800)">
                            <polygon id="Rectangle" fill="#000000" transform="translate(38.742771, 57.137646) rotate(-60.640998) translate(-38.742771, -57.137646) " points="38.1147773 13.6555537 39.331602 13.656102 39.3707643 100.619737 38.1539396 100.619189"></polygon>
                            <polygon id="Rectangle" fill="#000000" transform="translate(54.372108, 48.563713) rotate(-60.640998) translate(-54.372108, -48.563713) " points="53.7441141 5.08162072 54.9609388 5.08216899 55.0001011 92.0458044 53.7832765 92.0452562"></polygon>
                            <polygon id="Rectangle" fill="#000000" transform="translate(70.075374, 40.262512) rotate(-60.640998) translate(-70.075374, -40.262512) " points="69.44738 -3.21958033 70.6642047 -3.21903205 70.703367 83.7446034 69.4865424 83.7440551"></polygon>
                            <polygon id="Rectangle" fill="#000000" transform="translate(85.784322, 31.668460) rotate(-60.640998) translate(-85.784322, -31.668460) " points="85.1563288 -11.8136314 86.3731534 -11.8130831 86.4123157 75.1505523 85.1954911 75.1500041"></polygon>
                            <polygon id="Rectangle" fill="#000000" transform="translate(125.179298, 34.631381) rotate(-60.594807) translate(-125.179298, -34.631381) " points="124.562461 15.9340337 125.77928 15.9345825 125.796136 53.3287277 124.579317 53.3281788"></polygon>
                            <polygon id="Rectangle" fill="#000000" transform="translate(140.858493, 26.087031) rotate(-60.594807) translate(-140.858493, -26.087031) " points="140.241656 7.389684 141.458475 7.3902328 141.475331 44.784378 140.258512 44.7838292"></polygon>
                            <polygon id="Rectangle" fill="#000000" transform="translate(154.470064, 18.383724) rotate(-60.594807) translate(-154.470064, -18.383724) " points="153.853227 -0.313623423 155.070046 -0.313074617 155.086902 37.0810706 153.870083 37.0805218"></polygon>
                            <path d="M153.901868,0.619485268 L186.433195,18.9823471" id="Path" fill="#141516"></path>
                            <polygon id="Rectangle" fill="#000000" transform="translate(170.177278, 9.788444) rotate(-60.594807) translate(-170.177278, -9.788444) " points="169.560445 -8.90889348 170.777255 -8.90834466 170.794111 28.4857825 169.577301 28.4852336"></polygon>
                        </g>
                        <polygon id="Path-5" stroke="#000000" fill="#FFFFFF" fill-rule="nonzero" points="98.9128131 143.922359 235.311118 63.940549 234.389508 57.2910035 98.9128131 134.706258"></polygon>
                        <path d="M134.85561,11.1800912 C158.817474,24.7173096 170.798406,31.4859188 170.798406,31.4859188 C138.849254,49.9181222 122.874678,59.1342239 122.874678,59.1342239 L87.8534911,38.8588001 C119.188237,20.4063275 134.85561,11.1800912 134.85561,11.1800912 Z" id="Path-3" stroke="#000000" fill-rule="nonzero"></path>
                    </g>
                </g>
            </g>
        </g>
    </g>
</svg>