<?xml version="1.0" encoding="UTF-8"?>
<svg width="1349px" height="38px" viewBox="0 0 1349 38" version="1.1" xmlns="http://www.w3.org/2000/svg" xmlns:xlink="http://www.w3.org/1999/xlink">
    <!-- Generator: Sketch 52.2 (67145) - http://www.bohemiancoding.com/sketch -->
    <title>Group 10</title>
    <desc>Created with Sketch.</desc>
    <g id="Page-1" stroke="none" stroke-width="1" fill="none" fill-rule="evenodd">
        <g id="About" transform="translate(-66.000000, -2474.000000)" fill-rule="nonzero">
            <g id="Group-10" transform="translate(743.000000, 2493.500000) scale(1, -1) translate(-743.000000, -2493.500000) translate(66.000000, 2477.000000)">
                <polygon id="Rectangle" fill="#000000" transform="translate(675.000000, 18.500000) scale(1, -1) translate(-675.000000, -18.500000) " points="0 10 1350 10 1335.84475 27 13.0086851 27"></polygon>
                <g id="Group-6" transform="translate(256.000000, 5.000000)" stroke="#FFFFFF" stroke-linecap="square" stroke-width="5">
                    <path d="M17.5,0.5 L0.5,27.5" id="Line-11"></path>
                    <path d="M27.5,0.5 L10.5,27.5" id="Line-11"></path>
                    <path d="M37.5,0.5 L20.5,27.5" id="Line-11"></path>
                    <path d="M47.5,0.5 L30.5,27.5" id="Line-11"></path>
                    <path d="M57.5,0.5 L40.5,27.5" id="Line-11"></path>
                    <path d="M67.5,0.5 L50.5,27.5" id="Line-11"></path>
                    <path d="M77.5,0.5 L60.5,27.5" id="Line-11"></path>
                    <path d="M87.5,0.5 L70.5,27.5" id="Line-11"></path>
                    <path d="M97.5,0.5 L80.5,27.5" id="Line-11"></path>
                    <path d="M107.5,0.5 L90.5,27.5" id="Line-11"></path>
                    <path d="M117.5,0.5 L100.5,27.5" id="Line-11"></path>
                    <path d="M127.5,0.5 L110.5,27.5" id="Line-11"></path>
                    <path d="M137.5,0.5 L120.5,27.5" id="Line-11"></path>
                    <path d="M147.5,0.5 L130.5,27.5" id="Line-11"></path>
                    <path d="M157.5,0.5 L140.5,27.5" id="Line-11"></path>
                    <path d="M167.5,0.5 L150.5,27.5" id="Line-11"></path>
                    <path d="M177.5,0.5 L160.5,27.5" id="Line-11"></path>
                    <path d="M187.5,0.5 L170.5,27.5" id="Line-11"></path>
                    <path d="M197.5,0.5 L180.5,27.5" id="Line-11"></path>
                    <path d="M207.5,0.5 L190.5,27.5" id="Line-11"></path>
                    <path d="M217.5,0.5 L200.5,27.5" id="Line-11"></path>
                    <path d="M227.5,0.5 L210.5,27.5" id="Line-11"></path>
                    <path d="M237.5,0.5 L220.5,27.5" id="Line-11"></path>
                    <path d="M247.5,0.5 L230.5,27.5" id="Line-11"></path>
                    <path d="M257.5,0.5 L240.5,27.5" id="Line-11"></path>
                </g>
                <g id="Group-6" transform="translate(7.000000, 0.000000)" stroke="#FFFFFF" stroke-linecap="square" stroke-width="5">
                    <path d="M18.5,1.5 L1.5,28.5" id="Line-11" transform="translate(10.000000, 15.000000) rotate(3.000000) translate(-10.000000, -15.000000) "></path>
                    <path d="M27.5,3.5 L10.5,30.5" id="Line-11"></path>
                    <path d="M37.5,3.5 L20.5,30.5" id="Line-11"></path>
                    <path d="M47.5,3.5 L30.5,30.5" id="Line-11"></path>
                    <path d="M57.5,3.5 L40.5,30.5" id="Line-11"></path>
                    <path d="M67.5,3.5 L50.5,30.5" id="Line-11"></path>
                    <path d="M77.5,3.5 L60.5,30.5" id="Line-11"></path>
                    <path d="M87.5,3.5 L70.5,30.5" id="Line-11"></path>
                    <path d="M97.5,3.5 L80.5,30.5" id="Line-11"></path>
                    <path d="M107.5,3.5 L90.5,30.5" id="Line-11"></path>
                    <path d="M117.5,3.5 L100.5,30.5" id="Line-11"></path>
                    <path d="M127.5,3.5 L110.5,30.5" id="Line-11"></path>
                    <path d="M137.5,3.5 L120.5,30.5" id="Line-11"></path>
                    <path d="M147.5,3.5 L130.5,30.5" id="Line-11"></path>
                    <path d="M157.5,3.5 L140.5,30.5" id="Line-11"></path>
                    <path d="M167.5,3.5 L150.5,30.5" id="Line-11"></path>
                    <path d="M177.5,3.5 L160.5,30.5" id="Line-11"></path>
                    <path d="M187.5,3.5 L170.5,30.5" id="Line-11"></path>
                    <path d="M197.5,3.5 L180.5,30.5" id="Line-11"></path>
                    <path d="M207.5,3.5 L190.5,30.5" id="Line-11"></path>
                    <path d="M217.5,3.5 L200.5,30.5" id="Line-11"></path>
                    <path d="M227.5,3.5 L210.5,30.5" id="Line-11"></path>
                    <path d="M237.5,3.5 L220.5,30.5" id="Line-11"></path>
                    <path d="M247.5,3.5 L230.5,30.5" id="Line-11"></path>
                    <path d="M257.5,3.5 L240.5,30.5" id="Line-11"></path>
                </g>
                <g id="Group-6" transform="translate(506.000000, 5.000000)" stroke="#FFFFFF" stroke-linecap="square" stroke-width="5">
                    <path d="M17.5,0.5 L0.5,27.5" id="Line-11"></path>
                    <path d="M27.5,0.5 L10.5,27.5" id="Line-11"></path>
                    <path d="M37.5,0.5 L20.5,27.5" id="Line-11"></path>
                    <path d="M47.5,0.5 L30.5,27.5" id="Line-11"></path>
                    <path d="M57.5,0.5 L40.5,27.5" id="Line-11"></path>
                    <path d="M67.5,0.5 L50.5,27.5" id="Line-11"></path>
                    <path d="M77.5,0.5 L60.5,27.5" id="Line-11"></path>
                    <path d="M87.5,0.5 L70.5,27.5" id="Line-11"></path>
                    <path d="M97.5,0.5 L80.5,27.5" id="Line-11"></path>
                    <path d="M107.5,0.5 L90.5,27.5" id="Line-11"></path>
                    <path d="M117.5,0.5 L100.5,27.5" id="Line-11"></path>
                    <path d="M127.5,0.5 L110.5,27.5" id="Line-11"></path>
                    <path d="M137.5,0.5 L120.5,27.5" id="Line-11"></path>
                    <path d="M147.5,0.5 L130.5,27.5" id="Line-11"></path>
                    <path d="M157.5,0.5 L140.5,27.5" id="Line-11"></path>
                    <path d="M167.5,0.5 L150.5,27.5" id="Line-11"></path>
                    <path d="M177.5,0.5 L160.5,27.5" id="Line-11"></path>
                    <path d="M187.5,0.5 L170.5,27.5" id="Line-11"></path>
                    <path d="M197.5,0.5 L180.5,27.5" id="Line-11"></path>
                    <path d="M207.5,0.5 L190.5,27.5" id="Line-11"></path>
                    <path d="M217.5,0.5 L200.5,27.5" id="Line-11"></path>
                    <path d="M227.5,0.5 L210.5,27.5" id="Line-11"></path>
                    <path d="M237.5,0.5 L220.5,27.5" id="Line-11"></path>
                    <path d="M247.5,0.5 L230.5,27.5" id="Line-11"></path>
                    <path d="M257.5,0.5 L240.5,27.5" id="Line-11"></path>
                </g>
                <g id="Group-6" transform="translate(756.000000, 5.000000)" stroke="#FFFFFF" stroke-linecap="square" stroke-width="5">
                    <path d="M17.5,0.5 L0.5,27.5" id="Line-11"></path>
                    <path d="M27.5,0.5 L10.5,27.5" id="Line-11"></path>
                    <path d="M37.5,0.5 L20.5,27.5" id="Line-11"></path>
                    <path d="M47.5,0.5 L30.5,27.5" id="Line-11"></path>
                    <path d="M57.5,0.5 L40.5,27.5" id="Line-11"></path>
                    <path d="M67.5,0.5 L50.5,27.5" id="Line-11"></path>
                    <path d="M77.5,0.5 L60.5,27.5" id="Line-11"></path>
                    <path d="M87.5,0.5 L70.5,27.5" id="Line-11"></path>
                    <path d="M97.5,0.5 L80.5,27.5" id="Line-11"></path>
                    <path d="M107.5,0.5 L90.5,27.5" id="Line-11"></path>
                    <path d="M117.5,0.5 L100.5,27.5" id="Line-11"></path>
                    <path d="M127.5,0.5 L110.5,27.5" id="Line-11"></path>
                    <path d="M137.5,0.5 L120.5,27.5" id="Line-11"></path>
                    <path d="M147.5,0.5 L130.5,27.5" id="Line-11"></path>
                    <path d="M157.5,0.5 L140.5,27.5" id="Line-11"></path>
                    <path d="M167.5,0.5 L150.5,27.5" id="Line-11"></path>
                    <path d="M177.5,0.5 L160.5,27.5" id="Line-11"></path>
                    <path d="M187.5,0.5 L170.5,27.5" id="Line-11"></path>
                    <path d="M197.5,0.5 L180.5,27.5" id="Line-11"></path>
                    <path d="M207.5,0.5 L190.5,27.5" id="Line-11"></path>
                    <path d="M217.5,0.5 L200.5,27.5" id="Line-11"></path>
                    <path d="M227.5,0.5 L210.5,27.5" id="Line-11"></path>
                    <path d="M237.5,0.5 L220.5,27.5" id="Line-11"></path>
                    <path d="M247.5,0.5 L230.5,27.5" id="Line-11"></path>
                    <path d="M257.5,0.5 L240.5,27.5" id="Line-11"></path>
                </g>
                <g id="Group-6" transform="translate(1006.000000, 5.000000)" stroke="#FFFFFF" stroke-linecap="square" stroke-width="5">
                    <path d="M17.5,0.5 L0.5,27.5" id="Line-11"></path>
                    <path d="M27.5,0.5 L10.5,27.5" id="Line-11"></path>
                    <path d="M37.5,0.5 L20.5,27.5" id="Line-11"></path>
                    <path d="M47.5,0.5 L30.5,27.5" id="Line-11"></path>
                    <path d="M57.5,0.5 L40.5,27.5" id="Line-11"></path>
                    <path d="M67.5,0.5 L50.5,27.5" id="Line-11"></path>
                    <path d="M77.5,0.5 L60.5,27.5" id="Line-11"></path>
                    <path d="M87.5,0.5 L70.5,27.5" id="Line-11"></path>
                    <path d="M97.5,0.5 L80.5,27.5" id="Line-11"></path>
                    <path d="M107.5,0.5 L90.5,27.5" id="Line-11"></path>
                    <path d="M117.5,0.5 L100.5,27.5" id="Line-11"></path>
                    <path d="M127.5,0.5 L110.5,27.5" id="Line-11"></path>
                    <path d="M137.5,0.5 L120.5,27.5" id="Line-11"></path>
                    <path d="M147.5,0.5 L130.5,27.5" id="Line-11"></path>
                    <path d="M157.5,0.5 L140.5,27.5" id="Line-11"></path>
                    <path d="M167.5,0.5 L150.5,27.5" id="Line-11"></path>
                    <path d="M177.5,0.5 L160.5,27.5" id="Line-11"></path>
                    <path d="M187.5,0.5 L170.5,27.5" id="Line-11"></path>
                    <path d="M197.5,0.5 L180.5,27.5" id="Line-11"></path>
                    <path d="M207.5,0.5 L190.5,27.5" id="Line-11"></path>
                    <path d="M217.5,0.5 L200.5,27.5" id="Line-11"></path>
                    <path d="M227.5,0.5 L210.5,27.5" id="Line-11"></path>
                    <path d="M237.5,0.5 L220.5,27.5" id="Line-11"></path>
                    <path d="M247.5,0.5 L230.5,27.5" id="Line-11"></path>
                    <path d="M257.5,0.5 L240.5,27.5" id="Line-11"></path>
                    <path d="M267.5,0.5 L250.5,27.5" id="Line-11"></path>
                    <path d="M287.5,0.5 L270.5,27.5" id="Line-11"></path>
                    <path d="M277.5,0.5 L260.5,27.5" id="Line-11"></path>
                    <path d="M297.5,0.5 L280.5,27.5" id="Line-11"></path>
                    <path d="M307.5,0.5 L290.5,27.5" id="Line-11"></path>
                    <path d="M317.5,0.5 L300.5,27.5" id="Line-11"></path>
                    <path d="M327.5,0.5 L310.5,27.5" id="Line-11"></path>
                    <path d="M337.5,0.5 L320.5,27.5" id="Line-11"></path>
                    <path d="M347.5,0.5 L330.5,27.5" id="Line-11"></path>
                </g>
            </g>
        </g>
    </g>
</svg>