<?xml version="1.0" encoding="utf-8"?>
<!-- Generator: Adobe Illustrator 23.0.1, SVG Export Plug-In . SVG Version: 6.00 Build 0)  -->
<svg version="1.1" id="Layer_1" xmlns="http://www.w3.org/2000/svg" xmlns:xlink="http://www.w3.org/1999/xlink" x="0px" y="0px"
	 viewBox="0 0 120 120" style="enable-background:new 0 0 120 120;" xml:space="preserve">
<style type="text/css">
	.st0{fill:#FFFFFF;}
</style>
<g>
	<g>
		<polygon class="st0" points="2.2,69.6 52.8,39.5 117.8,77.3 67,108 		"/>
	</g>
	<g>
		<path class="st0" d="M116.5,61.7v9.4L67.8,99.6c-0.3,0.2-0.6,0-0.6-0.4v-8.8l48.6-29.2C116.1,61.1,116.5,61.4,116.5,61.7z"/>
	</g>
	<g>
		<polyline points="66.9,90.1 66.9,99.4 3.3,62.7 3.3,53.3 		"/>
		<polygon class="st0" points="67.3,100.2 66.6,99.8 2.9,62.9 2.9,53.3 3.8,53.3 3.8,62.4 66.4,98.6 66.4,90.1 67.3,90.1 		"/>
	</g>
	<g>
		<polygon points="4,53.5 53.1,24.4 115.9,61.1 66.8,90.7 		"/>
		<path class="st0" d="M66.8,91.3l-0.2-0.1L3.1,53.5L53,23.8l0.2,0.1L116.8,61L66.8,91.3z M4.9,53.5l61.9,36.7l48.2-29.1l-62-36.2
			L4.9,53.5z"/>
	</g>
	<g>
		<polygon points="14.6,55 56.2,30.3 65,35 23.3,60.3 		"/>
		<path class="st0" d="M23.3,60.8L13.7,55l42.5-25.3l9.7,5.2L23.3,60.8z M15.5,55l7.8,4.7l40.8-24.7l-7.8-4.3L15.5,55z"/>
	</g>
	<g>
		<path class="st0" d="M81.5,68.5l-9.6-5.8l19.5-11.5l9.7,5.2L81.5,68.5z M73.7,62.7l7.8,4.7l17.8-11l-7.8-4.3L73.7,62.7z"/>
	</g>
	<g>
		<polygon points="48.5,62.7 67.2,51.7 75.9,56.5 57.2,68 		"/>
		<path class="st0" d="M57.2,68.5l-9.6-5.8l19.5-11.5l9.7,5.2L57.2,68.5z M49.4,62.7l7.8,4.7l17.8-11l-7.9-4.3L49.4,62.7z"/>
	</g>
	<g>
		<rect x="18.3" y="44.8" transform="matrix(0.8547 -0.5191 0.5191 0.8547 -17.784 27.03)" class="st0" width="42.1" height="0.9"/>
	</g>
	<g>
		
			<rect x="29.3" y="52.7" transform="matrix(0.8544 -0.5196 0.5196 0.8544 -20.2929 33.8893)" class="st0" width="42.1" height="0.9"/>
	</g>
	<g>
		
			<rect x="40.9" y="59" transform="matrix(0.8544 -0.5196 0.5196 0.8544 -21.8518 40.8616)" class="st0" width="42.1" height="0.9"/>
	</g>
	<g>
		
			<rect x="54.2" y="66.3" transform="matrix(0.8544 -0.5196 0.5196 0.8544 -23.7079 48.8156)" class="st0" width="42.1" height="0.9"/>
	</g>
</g>
</svg>
