<?xml version="1.0" encoding="UTF-8"?>
<svg width="69px" height="1061px" viewBox="0 0 69 1061" version="1.1" xmlns="http://www.w3.org/2000/svg" xmlns:xlink="http://www.w3.org/1999/xlink">
    <!-- Generator: Sketch 52.2 (67145) - http://www.bohemiancoding.com/sketch -->
    <title>Group 28</title>
    <desc>Created with Sketch.</desc>
    <g id="Page-1" stroke="none" stroke-width="1" fill="none" fill-rule="evenodd">
        <g id="Group-28" transform="translate(0.000000,1.000000)" fill-rule="nonzero">
            <circle id="Oval" stroke="#000000" fill="#FFFFFF" cx="60.5" cy="42.5" r="7.5"></circle>
            <circle id="Oval" stroke="#000000" fill="#FFFFFF" cx="60.5" cy="92.5" r="7.5"></circle>
            <circle id="Oval" stroke="#000000" fill="#FFFFFF" cx="60.5" cy="142.5" r="7.5"></circle>
            <circle id="Oval" stroke="#000000" fill="#FFFFFF" cx="60.5" cy="192.5" r="7.5"></circle>
            <circle id="Oval" stroke="#000000" fill="#FFFFFF" cx="60.5" cy="242.5" r="7.5"></circle>
            <circle id="Oval" stroke="#000000" fill="#FFFFFF" cx="60.5" cy="272.5" r="7.5"></circle>
            <circle id="Oval" stroke="#000000" fill="#FFFFFF" cx="60.5" cy="312.5" r="7.5"></circle>
            <circle id="Oval" stroke="#000000" fill="#FFFFFF" cx="60.5" cy="372.5" r="7.5"></circle>
            <circle id="Oval" stroke="#000000" fill="#FFFFFF" cx="60.5" cy="402.5" r="7.5"></circle>
            <circle id="Oval" stroke="#000000" fill="#FFFFFF" cx="60.5" cy="462.5" r="7.5"></circle>
            <circle id="Oval" stroke="#000000" fill="#FFFFFF" cx="60.5" cy="502.5" r="7.5"></circle>
            <circle id="Oval" stroke="#000000" fill="#FFFFFF" cx="60.5" cy="572.5" r="7.5"></circle>
            <circle id="Oval" stroke="#000000" fill="#FFFFFF" cx="60.5" cy="612.5" r="7.5"></circle>
            <circle id="Oval" stroke="#000000" fill="#FFFFFF" cx="60.5" cy="682.5" r="7.5"></circle>
            <circle id="Oval" stroke="#000000" fill="#FFFFFF" cx="60.5" cy="722.5" r="7.5"></circle>
            <circle id="Oval" stroke="#000000" fill="#FFFFFF" cx="60.5" cy="792.5" r="7.5"></circle>
            <circle id="Oval" stroke="#000000" fill="#FFFFFF" cx="60.5" cy="842.5" r="7.5"></circle>
            <circle id="Oval" stroke="#000000" fill="#FFFFFF" cx="60.5" cy="902.5" r="7.5"></circle>
            <circle id="Oval" stroke="#000000" fill="#FFFFFF" cx="28.5" cy="907.5" r="7.5"></circle>
            <circle id="Oval" stroke="#000000" fill="#FFFFFF" cx="28.5" cy="847.5" r="7.5"></circle>
            <circle id="Oval" stroke="#000000" fill="#FFFFFF" cx="28.5" cy="787.5" r="7.5"></circle>
            <circle id="Oval" stroke="#000000" fill="#FFFFFF" cx="28.5" cy="727.5" r="7.5"></circle>
            <circle id="Oval" stroke="#000000" fill="#FFFFFF" cx="28.5" cy="667.5" r="7.5"></circle>
            <circle id="Oval" stroke="#000000" fill="#FFFFFF" cx="28.5" cy="607.5" r="7.5"></circle>
            <circle id="Oval" stroke="#000000" fill="#FFFFFF" cx="28.5" cy="547.5" r="7.5"></circle>
            <circle id="Oval" stroke="#000000" fill="#FFFFFF" cx="28.5" cy="487.5" r="7.5"></circle>
            <circle id="Oval" stroke="#000000" fill="#FFFFFF" cx="28.5" cy="427.5" r="7.5"></circle>
            <circle id="Oval" stroke="#000000" fill="#FFFFFF" cx="28.5" cy="367.5" r="7.5"></circle>
            <circle id="Oval" stroke="#000000" fill="#FFFFFF" cx="28.5" cy="307.5" r="7.5"></circle>
            <circle id="Oval" stroke="#000000" fill="#FFFFFF" cx="28.5" cy="247.5" r="7.5"></circle>
            <circle id="Oval" stroke="#000000" fill="#FFFFFF" cx="28.5" cy="187.5" r="7.5"></circle>
            <circle id="Oval" stroke="#000000" fill="#FFFFFF" cx="28.5" cy="127.5" r="7.5"></circle>
            <circle id="Oval" stroke="#000000" fill="#FFFFFF" cx="28.5" cy="67.5" r="7.5"></circle>
            <circle id="Oval" stroke="#000000" fill="#FFFFFF" cx="28.5" cy="7.5" r="7.5"></circle>
            <circle id="Oval" fill="#000000" cx="7" cy="33" r="7"></circle>
            <circle id="Oval" fill="#000000" cx="7" cy="93" r="7"></circle>
            <circle id="Oval" fill="#000000" cx="7" cy="153" r="7"></circle>
            <circle id="Oval" fill="#000000" cx="7" cy="213" r="7"></circle>
            <circle id="Oval" fill="#000000" cx="7" cy="273" r="7"></circle>
            <circle id="Oval" fill="#000000" cx="7" cy="333" r="7"></circle>
            <circle id="Oval" fill="#000000" cx="7" cy="393" r="7"></circle>
            <circle id="Oval" fill="#000000" cx="7" cy="453" r="7"></circle>
            <circle id="Oval" fill="#000000" cx="7" cy="513" r="7"></circle>
            <circle id="Oval" fill="#000000" cx="7" cy="573" r="7"></circle>
            <circle id="Oval" fill="#000000" cx="7" cy="633" r="7"></circle>
            <circle id="Oval" fill="#000000" cx="7" cy="693" r="7"></circle>
            <circle id="Oval" fill="#000000" cx="7" cy="753" r="7"></circle>
            <circle id="Oval" fill="#000000" cx="7" cy="813" r="7"></circle>
            <circle id="Oval" fill="#000000" cx="7" cy="873" r="7"></circle>
            <circle id="Oval" fill="#000000" cx="7" cy="933" r="7"></circle>
            <circle id="Oval" fill="#000000" cx="7" cy="993" r="7"></circle>
            <circle id="Oval" fill="#000000" cx="7" cy="1053" r="7"></circle>
            <circle id="Oval" stroke="#000000" fill="#FFFFFF" cx="28.5" cy="967.5" r="7.5"></circle>
            <circle id="Oval" stroke="#000000" fill="#FFFFFF" cx="28.5" cy="1027.5" r="7.5"></circle>
        </g>
    </g>
</svg>