<?xml version="1.0" encoding="UTF-8"?>
<svg width="40px" height="25px" viewBox="0 0 40 25" version="1.1" xmlns="http://www.w3.org/2000/svg" xmlns:xlink="http://www.w3.org/1999/xlink" style="background-color:#fff">
    <!-- Generator: Sketch 52.2 (67145) - http://www.bohemiancoding.com/sketch -->
    <title>Group 21</title>
    <desc>Created with Sketch.</desc>
    <defs>
        <filter x="-7.1%" y="-2.0%" width="114.3%" height="103.9%" filterUnits="objectBoundingBox" id="filter-1">
            <feGaussianBlur stdDeviation="0" in="SourceGraphic"></feGaussianBlur>
        </filter>
        <filter x="-7.1%" y="-2.0%" width="114.3%" height="103.9%" filterUnits="objectBoundingBox" id="filter-2">
            <feGaussianBlur stdDeviation="0" in="SourceGraphic"></feGaussianBlur>
        </filter>
    </defs>
    <g id="Page-1" stroke="none" stroke-width="1" fill="none" fill-rule="evenodd">
        <g id="Draft-OL" transform="translate(-5.500000, -650.000000)" fill="#000000" stroke="#000000">
            <g id="Green-Springs" transform="translate(4.000000, 626.000000)">
                <g id="Group-21" transform="translate(10.000000, 24.000000)">
                    <path d="M-1.77635684e-15,24.7805423 C-1.77635684e-15,23.2723414 1.65251989,22.5058787 2.98938992,21.9001259 C4.34482759,21.2696485 5.18037135,20.8369679 5.18037135,20.0086936 C5.18037135,19.1680571 4.34482759,18.7477388 2.98938992,18.1172614 C1.65251989,17.5115086 -1.77635684e-15,16.7450458 -1.77635684e-15,15.236845 C-1.77635684e-15,13.7286441 1.65251989,12.9621813 2.98938992,12.3564285 C4.34482759,11.7259511 5.18037135,11.2932705 5.18037135,10.4649963 C5.18037135,9.62435971 4.34482759,9.20404143 2.98938992,8.57356401 C1.65251989,7.9678112 -1.77635684e-15,7.20134845 -1.77635684e-15,5.69314757 C-1.77635684e-15,4.18494669 1.65251989,3.41848395 2.98938992,2.81273113 C4.34482759,2.18225372 5.18037135,1.74957314 5.18037135,0.921298882 C5.18037135,0.0806623255 7,-0.586901999 7,0.921298882 C7,2.42949976 5.34748011,3.19596251 4.01061008,3.80171532 C2.65517241,4.43219274 1.81962865,4.86487332 1.81962865,5.69314757 C1.81962865,6.53378413 2.65517241,6.95410241 4.01061008,7.58457982 C5.34748011,8.19033264 7,8.95679538 7,10.4649963 C7,11.9731971 5.34748011,12.7396599 4.01061008,13.3454127 C2.65517241,13.9758901 1.81962865,14.4085707 1.81962865,15.236845 C1.81962865,16.0774815 2.65517241,16.4977998 4.01061008,17.1282772 C5.34748011,17.73403 7,18.5004928 7,20.0086936 C7,21.5168945 5.34748011,22.2833573 4.01061008,22.8891101 C2.65517241,23.5195875 1.81962865,23.9522681 1.81962865,24.7805423 C1.81962865,25.6211789 -1.77635684e-15,26.2887432 -1.77635684e-15,24.7805423 Z" id="Path" filter="url(#filter-1)"></path>
                    <path d="M15,24.7805423 C15,23.2723414 16.6525199,22.5058787 17.9893899,21.9001259 C19.3448276,21.2696485 20.1803714,20.8369679 20.1803714,20.0086936 C20.1803714,19.1680571 19.3448276,18.7477388 17.9893899,18.1172614 C16.6525199,17.5115086 15,16.7450458 15,15.236845 C15,13.7286441 16.6525199,12.9621813 17.9893899,12.3564285 C19.3448276,11.7259511 20.1803714,11.2932705 20.1803714,10.4649963 C20.1803714,9.62435971 19.3448276,9.20404143 17.9893899,8.57356401 C16.6525199,7.9678112 15,7.20134845 15,5.69314757 C15,4.18494669 16.6525199,3.41848395 17.9893899,2.81273113 C19.3448276,2.18225372 20.1803714,1.74957314 20.1803714,0.921298882 C20.1803714,0.0806623255 22,-0.586901999 22,0.921298882 C22,2.42949976 20.3474801,3.19596251 19.0106101,3.80171532 C17.6551724,4.43219274 16.8196286,4.86487332 16.8196286,5.69314757 C16.8196286,6.53378413 17.6551724,6.95410241 19.0106101,7.58457982 C20.3474801,8.19033264 22,8.95679538 22,10.4649963 C22,11.9731971 20.3474801,12.7396599 19.0106101,13.3454127 C17.6551724,13.9758901 16.8196286,14.4085707 16.8196286,15.236845 C16.8196286,16.0774815 17.6551724,16.4977998 19.0106101,17.1282772 C20.3474801,17.73403 22,18.5004928 22,20.0086936 C22,21.5168945 20.3474801,22.2833573 19.0106101,22.8891101 C17.6551724,23.5195875 16.8196286,23.9522681 16.8196286,24.7805423 C16.8196286,25.6211789 15,26.2887432 15,24.7805423 Z" id="Path" filter="url(#filter-2)"></path>
                </g>
            </g>
        </g>
    </g>
</svg>