<?xml version="1.0" encoding="UTF-8"?>
<svg width="423px" height="47px" viewBox="0 0 423 47" version="1.1" xmlns="http://www.w3.org/2000/svg" xmlns:xlink="http://www.w3.org/1999/xlink">
    <!-- Generator: Sketch 52.2 (67145) - http://www.bohemiancoding.com/sketch -->
    <title>Rectangle</title>
    <desc>Created with Sketch.</desc>
    <defs>
        <path d="M860.613784,1656.8967 C856.909841,1648.56784 890.888683,1644.93689 962.550311,1646.00385 C1041.10102,1647.17338 1138.85891,1651.64718 1255.82398,1659.42525 L1255.82398,1659.42525 C1258.02825,1659.57183 1259.69634,1661.47757 1259.54976,1663.68185 C1259.4772,1664.77292 1258.96113,1665.78673 1258.12162,1666.4874 C1253.40141,1670.42693 1250.60285,1673.06732 1249.72594,1674.40856 C1248.80704,1675.81402 1248.54421,1678.01689 1248.93743,1681.01717 L1248.93744,1681.01717 C1249.22452,1683.20758 1247.68157,1685.21598 1245.49116,1685.50306 C1245.46672,1685.50626 1245.44226,1685.50924 1245.41777,1685.51199 C1236.01953,1686.56747 1228.61822,1687.07891 1223.21384,1687.04631 C1175.19345,1686.75667 1131.90031,1683.98224 1107.66958,1683.09911 C1036.80348,1680.51627 968.968887,1674.61199 924.332325,1674.40856 C891.593332,1674.25935 867.278784,1674.7564 851.38868,1675.89969 L851.38868,1675.89968 C849.185241,1676.05822 847.270481,1674.4005 847.111944,1672.19706 C847.028072,1671.03138 847.458203,1669.88731 848.289268,1669.06561 C848.901895,1668.45988 849.377559,1667.94276 849.716259,1667.51425 C851.108679,1665.7526 854.014855,1663.99447 858.434786,1662.23984 L858.434785,1662.23983 C860.488048,1661.42473 861.491772,1659.09945 860.676665,1657.04619 C860.656717,1656.99594 860.635753,1656.9461 860.613784,1656.8967 Z" id="path-1"></path>
        <filter x="-2.5%" y="-18.2%" width="105.1%" height="150.9%" filterUnits="objectBoundingBox" id="filter-2">
            <feOffset dx="0" dy="3" in="SourceAlpha" result="shadowOffsetOuter1"></feOffset>
            <feGaussianBlur stdDeviation="3" in="shadowOffsetOuter1" result="shadowBlurOuter1"></feGaussianBlur>
            <feColorMatrix values="0 0 0 0 0.624096514   0 0 0 0 0.624096514   0 0 0 0 0.624096514  0 0 0 0.368772645 0" type="matrix" in="shadowBlurOuter1"></feColorMatrix>
        </filter>
    </defs>
    <g id="Page-1" stroke="none" stroke-width="1" fill="none" fill-rule="evenodd">
        <g id="Draft-OL" transform="translate(-842.000000, -1645.000000)" fill-rule="nonzero">
            <g id="Rectangle" transform="translate(1053.330171, 1666.434941) rotate(-2.000000) translate(-1053.330171, -1666.434941) ">
                <use fill="black" fill-opacity="1" filter="url(#filter-2)" xlink:href="#path-1"></use>
                <use fill="#F8E71C" xlink:href="#path-1"></use>
            </g>
        </g>
    </g>
</svg>