<?xml version="1.0" encoding="UTF-8"?>
<svg width="540px" height="474px" viewBox="0 0 540 474" version="1.1" xmlns="http://www.w3.org/2000/svg" xmlns:xlink="http://www.w3.org/1999/xlink">
    <!-- Generator: Sketch 52.2 (67145) - http://www.bohemiancoding.com/sketch -->
    <title>Group 26</title>
    <desc>Created with Sketch.</desc>
    <defs>
        <polygon id="path-1" points="11.856274 132.786421 291.849742 91 291.369569 240.412638 291.997647 370.048999 14.4411445 422"></polygon>
        <mask id="mask-2" maskContentUnits="userSpaceOnUse" maskUnits="objectBoundingBox" x="0" y="0" width="280.141373" height="331" fill="white">
            <use xlink:href="#path-1"></use>
        </mask>
        <polygon id="path-3" points="0 26.7562332 179.7988 0 183.16 219.874301 6.29933157 250.64"></polygon>
        <filter x="-2.5%" y="-0.6%" width="103.3%" height="102.4%" filterUnits="objectBoundingBox" id="filter-4">
            <feOffset dx="-3" dy="3" in="SourceAlpha" result="shadowOffsetOuter1"></feOffset>
            <feComposite in="shadowOffsetOuter1" in2="SourceAlpha" operator="out" result="shadowOffsetOuter1"></feComposite>
            <feColorMatrix values="0 0 0 0 0   0 0 0 0 0   0 0 0 0 0  0 0 0 0.941604393 0" type="matrix" in="shadowOffsetOuter1"></feColorMatrix>
        </filter>
    </defs>
    <g id="Page-1" stroke="none" stroke-width="1" fill="none" fill-rule="evenodd">
        <g id="Group-26" transform="translate(1.000000, 1.000000)">
            <g id="Group-23">
                <g id="Group-22">
                    <path d="M1.14454559,80.9768586 L8.87343951,471.655063 L519.875,378.06012 L519.875,8.94374731 L1.14454559,80.9768586 Z" id="Rectangle" stroke="#000000" stroke-width="2.25" fill="#FFFFFF" fill-rule="nonzero" transform="translate(260.500000, 240.325865) scale(-1, 1) translate(-260.500000, -240.325865) "></path>
                    <g id="Group-21" transform="translate(1.000000, 0.000000)">
                        <polyline id="Line-2" stroke="#000000" stroke-width="2" stroke-linecap="square" fill-rule="nonzero" transform="translate(524.660267, 271.500000) scale(-1, 1) translate(-524.660267, -271.500000) " points="513.288584 72 521.434325 461 536.03195 471"></polyline>
                        <polygon id="Rectangle" fill="#000000" fill-rule="nonzero" transform="translate(259.000000, 64.500000) scale(-1, 1) translate(-259.000000, -64.500000) " points="0 81 517 10 518 43 1 119"></polygon>
                        <text id="Main-Title" transform="translate(256.251889, 62.212613) rotate(8.250000) translate(-256.251889, -62.212613) " font-family="SpaceMono-Bold, Space Mono" font-size="15" font-weight="bold" letter-spacing="1.3" fill="#FFFFFF">
                            <tspan x="219.571889" y="68.212613">COMPOSE</tspan>
                        </text>
                        <ellipse id="Oval" stroke="#000000" fill="#FFFFFF" fill-rule="nonzero" transform="translate(479.252306, 89.313934) scale(-1, 1) rotate(-40.000000) translate(-479.252306, -89.313934) " cx="479.252306" cy="89.3139344" rx="3.5" ry="4"></ellipse>
                        <ellipse id="Oval" stroke="#000000" fill="#FFFFFF" fill-rule="nonzero" transform="translate(494.252306, 89.313934) scale(-1, 1) rotate(-40.000000) translate(-494.252306, -89.313934) " cx="494.252306" cy="89.3139344" rx="3.5" ry="4"></ellipse>
                        <ellipse id="Oval" stroke="#000000" fill="#FFFFFF" fill-rule="nonzero" transform="translate(504.252306, 99.313934) scale(-1, 1) rotate(-40.000000) translate(-504.252306, -99.313934) " cx="504.252306" cy="99.3139344" rx="3.5" ry="4"></ellipse>
                        <g id="Group-12" transform="translate(22.000000, 29.000000) scale(-1, 1) translate(-22.000000, -29.000000) translate(12.000000, 23.000000)" fill-rule="nonzero" stroke="#FFFFFF" stroke-linecap="square">
                            <path d="M6,11.1840958 L15,-6.30606678e-14 L6,11.1840958 Z" id="Line"></path>
                            <path d="M13,11.1840958 L20,3 L13,11.1840958 Z" id="Line"></path>
                            <path d="M0.351127802,10.0102047 L7,2 L0.351127802,10.0102047 Z" id="Line"></path>
                        </g>
                        <polygon id="Path-14" stroke="#000000" stroke-width="2" fill="#FFFFFF" fill-rule="nonzero" transform="translate(268.500000, 40.167226) scale(-1, 1) translate(-268.500000, -40.167226) " points="3 71.3344512 508.523225 0 534 7.6344512 18 80.3344512"></polygon>
                    </g>
                </g>
            </g>
            <use id="Rectangle" stroke="#000000" mask="url(#mask-2)" stroke-width="2" fill="#FFFFFF" fill-rule="nonzero" stroke-dasharray="1" transform="translate(151.926961, 256.500000) scale(-1, 1) translate(-151.926961, -256.500000) " xlink:href="#path-1"></use>
            <g id="Group-25" transform="translate(316.000000, 118.000000)">
                <g id="Group-11" fill-rule="nonzero">
                    <g id="Group-6">
                        <g id="Group-2" transform="translate(92.372458, 125.500000) scale(-1, 1) translate(-92.372458, -125.500000) translate(0.372458, 0.000000)">
                            <g id="Rectangle">
                                <use fill="black" fill-opacity="1" filter="url(#filter-4)" xlink:href="#path-3"></use>
                                <path stroke="#000000" stroke-width="1" d="M0.512276169,27.1855063 L6.78288314,250.048375 L182.65353,219.454895 L179.307587,0.578604422 L0.512276169,27.1855063 Z" stroke-linejoin="square" fill="#FFFFFF" fill-rule="evenodd"></path>
                            </g>
                        </g>
                        <g id="Group-2" transform="translate(92.552458, 126.025000) scale(-1, 1) translate(-92.552458, -126.025000) translate(5.552458, 6.025000)" fill="#FFFFFF" stroke="#000000" stroke-width="0.5">
                            <path d="M0.548028943,25.9413862 L6.01944548,239.498466 L173.559282,210.003324 L170.40461,0.289934934 L0.548028943,25.9413862 Z" id="Rectangle"></path>
                        </g>
                        <path d="M26.427458,182.956138 L26.427458,205.581703 L153.185209,228.765333 L154.341917,204.474458 L26.427458,182.956138 Z" id="Rectangle" stroke="#000000"></path>
                    </g>
                </g>
                <g id="Group" transform="translate(7.000000, 83.000000)" fill="#000000">
                    <path d="M32.1760913,51 C21.4337647,51 10.6914381,48.7170916 0.5,43.825145 L0.63627243,37.6286792 C16.8874845,45.1296641 36.3077554,46.4341832 52.5589675,41.2161068 C59.4450743,38.9331983 64.6785155,35.6719006 67.9838468,31.7583433 C64.9539598,31.1060837 61.9240728,29.8015646 58.8941858,27.5186562 C54.4870774,24.2573585 52.008079,20.0176714 51.4571904,15.4518546 C50.9063019,10.2337782 53.109856,5.66796132 57.2415201,2.40666358 C62.199517,-0.854634171 68.259291,-0.854634171 72.1155108,2.73279335 C78.1752848,7.95086974 79.2770619,17.734763 77.348952,25.5618776 C84.5105031,24.5834883 92.498387,21.3221905 99.9353824,18.0608928 C102.414381,17.0825034 104.617935,16.1041141 107.096933,15.1257248 C126.928921,7.2986102 149.515351,6.64635065 170.72456,13.8212057 L170,20 C149.892568,13.1512747 127.755254,13.8212057 108.749599,21.3221905 C106.546045,22.3005798 104.067046,23.2789692 101.863492,24.2573585 C93.0492756,28.1709158 83.6841703,32.0844731 74.5945093,32.4106028 C70.4628452,39.2593281 63.5767384,44.4774045 53.9361889,47.7387023 C46.7746378,49.6954809 39.6130867,51 32.1760913,51 Z M64.9539598,6.32022087 C63.3012941,6.32022087 61.3731842,6.97248042 59.9959629,7.95086974 C58.8941858,8.60312929 56.4151873,10.8860377 56.6906316,14.4734652 C56.9660759,17.0825034 58.8941858,20.0176714 61.6486285,21.9744501 C64.6785155,24.2573585 67.9838468,25.2357478 71.289178,25.5618776 C73.4927322,19.6915416 73.2172879,11.5382973 68.8101796,7.62473997 C67.7084025,6.64635065 66.3311811,6.32022087 64.9539598,6.32022087 Z" id="Shape" fill-rule="nonzero"></path>
                    <path d="M54.0167286,85 L49.5,81.1916894 C71.1802974,58.048879 101.592937,47.2098412 130.5,52.1899396 L129.596654,58.048879 C102.496283,53.0687805 74.1914498,63.3219244 54.0167286,85 Z" id="Path"></path>
                </g>
                <g id="Group-20" transform="translate(14.000000, 14.000000)" fill-rule="nonzero" stroke-linecap="square">
                    <path d="M3.20111704,15.2255428 L27.4735569,34.5981279" id="Line-3" stroke="#000000" transform="translate(15.701117, 25.225543) rotate(10.000000) translate(-15.701117, -25.225543) "></path>
                    <path d="M2.50114005,2.93365988 L28.4671497,23.983735" id="Line-3" stroke="#979797" transform="translate(15.484145, 13.458697) rotate(10.000000) translate(-15.484145, -13.458697) "></path>
                    <path d="M17.5765022,6.37083168 L33.7272038,19.2686671" id="Line-3" stroke="#979797" transform="translate(26.076502, 12.870832) rotate(10.000000) translate(-26.076502, -12.870832) "></path>
                </g>
            </g>
            <g id="Group-14" transform="translate(344.000000, 385.000000)">
                <path d="M0.501350885,19.8757058 L0.588904761,47.203897 L106.588065,28.4114909 L106.4128,1.59303884 L0.501350885,19.8757058 Z" id="Rectangle" stroke="#000000" fill="#FFFFFF" fill-rule="nonzero" transform="translate(53.545406, 24.400000) scale(-1, 1) translate(-53.545406, -24.400000) "></path>
                <text id="Main-Title" transform="translate(53.111677, 25.551605) rotate(10.000000) translate(-53.111677, -25.551605) " font-family="SpaceMono-Bold, Space Mono" font-size="12" font-weight="bold" fill="#000000">
                    <tspan x="23.7356774" y="30.0516053">SEND OUT</tspan>
                </text>
                <polygon id="Path-8" stroke="#000000" fill="#000000" fill-rule="nonzero" points="2 1.2 6 -1.59872116e-13 109 18 109 46 107 47 107 20.1319166"></polygon>
            </g>
            <text id="Main-Title" transform="translate(405.750135, 327.407503) rotate(9.500000) translate(-405.750135, -327.407503) " font-family="SpaceMono-BoldItalic, Space Mono" font-size="12" font-style="italic" font-weight="bold" fill="#000000">
                <tspan x="350.670135" y="327.907503">for your review</tspan>
            </text>
            <path d="M111.016169,129.239977 L37.0025891,117.176606 L37.1667963,191.869426 L111.016169,206.777949 L111.016169,129.239977 Z" id="Rectangle" stroke="#000000" stroke-width="2" fill-opacity="0.865375906" fill="#FFFFFF" fill-rule="nonzero"></path>
            <path d="M109.016169,127.239977 L35.0025891,115.176606 L35.1667963,189.869426 L109.016169,204.777949 L109.016169,127.239977 Z" id="Rectangle" stroke="#000000" stroke-width="2" fill="#FFFFFF" fill-rule="nonzero"></path>
            <path d="M258.271298,236.654261 L184.002602,224.182368 L184.166772,298.858274 L258.271298,312.79441 L258.271298,236.654261 Z" id="Rectangle" stroke="#000000" stroke-width="2" fill-opacity="0.865375906" fill="#FFFFFF" fill-rule="nonzero"></path>
            <path d="M256.271298,234.654261 L182.002602,222.182368 L182.166772,296.858274 L256.271298,310.79441 L256.271298,234.654261 Z" id="Rectangle" stroke="#000000" stroke-width="2" fill="#FFFFFF" fill-rule="nonzero"></path>
            <path d="M133,299.832615 L59,286.201036 L59,362.291162 L133,376.785135 L133,299.832615 Z" id="Rectangle" stroke="#000000" stroke-width="2" fill-opacity="0.865375906" fill="#FFFFFF" fill-rule="nonzero"></path>
            <path d="M131,297.832615 L57,284.201036 L57,360.291162 L131,374.785135 L131,297.832615 Z" id="Rectangle" stroke="#000000" stroke-width="2" fill="#FFFFFF" fill-rule="nonzero"></path>
            <text id="Main-Title" transform="translate(183.652842, 189.268426) rotate(8.500000) translate(-183.652842, -189.268426) " font-family="SpaceMono-BoldItalic, Space Mono" font-size="15" font-style="italic" font-weight="bold" fill="#000000">
                <tspan x="125.929555" y="182.268426">Select Docs</tspan>
            </text>
            <text id="Main-Title" transform="translate(217.347027, 379.135373) rotate(9.500000) translate(-217.347027, -379.135373) " font-family="SpaceMono-BoldItalic, Space Mono" font-size="15" font-style="italic" font-weight="bold" fill="#000000">
                <tspan x="150.623739" y="368.635373">Author Terms</tspan>
            </text>
            <text id="Main-Title" transform="translate(102.606313, 263.573421) rotate(9.500000) translate(-102.606313, -263.573421) " font-family="SpaceMono-BoldItalic, Space Mono" font-size="15" font-style="italic" font-weight="bold" fill="#000000">
                <tspan x="36.3830252" y="254.573421">Assign People</tspan>
            </text>
        </g>
    </g>
</svg>