<svg id="f94a77f1-6919-4c79-bf68-692220874249" data-name="Layer 1" xmlns="http://www.w3.org/2000/svg" viewBox="0 0 233.19 255.09"><defs><style>.b659ad06-ea45-47ef-9135-4e275b843dc4{fill:#f7d2a1;}.a607cda5-ac80-45a4-a21b-8d4a47041122,.aeb7641e-63a5-4bec-a13a-7c3fb770b277,.b08a7cef-cd07-4709-ba4a-ca93590f0dfc,.b659ad06-ea45-47ef-9135-4e275b843dc4,.e0067f34-4c40-40d5-87bb-5ca57fa04e46,.e794d9ff-7644-4700-8f7c-90eba8517dc9,.eaeaaf8e-3b1d-49ef-a953-175d34eec22d,.ed95a6ea-505b-4b9f-921a-b45663f3e078,.f78d4ad9-9026-4779-810e-f7eeb4f18333,.f7d728fc-3603-4374-9904-4c03482ac793{fill-rule:evenodd;}.b08a7cef-cd07-4709-ba4a-ca93590f0dfc{fill:#6c4922;}.aeb7641e-63a5-4bec-a13a-7c3fb770b277{fill:#d08a28;}.a607cda5-ac80-45a4-a21b-8d4a47041122{fill:#d1111b;}.f78d4ad9-9026-4779-810e-f7eeb4f18333{fill:#f7d500;}.eaeaaf8e-3b1d-49ef-a953-175d34eec22d{fill:#d7a461;}.f7d728fc-3603-4374-9904-4c03482ac793{fill:#c6a701;}.ed95a6ea-505b-4b9f-921a-b45663f3e078{fill:#921d22;}.e0067f34-4c40-40d5-87bb-5ca57fa04e46{fill:#9f6724;}.e794d9ff-7644-4700-8f7c-90eba8517dc9{fill:#250c03;}.ad39a761-6239-4f1d-a553-d847f23a1618{fill:#f2b6b3;}.f46dac01-a772-4170-8352-87e6bc15363d{fill:none;stroke:#d59d54;stroke-linecap:round;stroke-linejoin:round;stroke-width:2.84px;}</style></defs><title>pizza-dog-optimized</title><path class="b659ad06-ea45-47ef-9135-4e275b843dc4" d="M157.22,63.49a13.54,13.54,0,0,0,4.92,2.23.28.28,0,0,1,.23.28v4.14c0,.09,0,.17,0,.24h0a2,2,0,0,0,0,.24h0v.05c0,.82-.87,1.9-2.31,3a31.17,31.17,0,0,1-5.77,3.4,24.19,24.19,0,0,1-3.89,1.44h0a15.05,15.05,0,0,1-3.5.56,6.92,6.92,0,0,1-2.49-.31,3.19,3.19,0,0,1-1.61-1.15A6.77,6.77,0,0,1,142,73a30.82,30.82,0,0,1,1.92-7.4h0a2.52,2.52,0,0,0,0-1.85h0a21.19,21.19,0,0,1-1.22-5.67.29.29,0,0,1,.05-.2l.17-.22a7.72,7.72,0,0,1,7.27-3.16h0a.29.29,0,0,1,.23.17,21.91,21.91,0,0,0,1.1,2.32A20.27,20.27,0,0,0,153,59.17a18.8,18.8,0,0,0,4.27,4.32Zm-20.15,8.77a14.54,14.54,0,0,0,.39,5.8.29.29,0,0,1-.18.35l-8.71,3.18a.28.28,0,0,1-.34-.41q2.18-3.92,4.28-7.87c1.85-3.47,3.76-7.12,5.42-10.32a.28.28,0,0,1,.53.06c.13.51.27,1,.42,1.51h0a.25.25,0,0,1,0,.17,34.17,34.17,0,0,0-1.81,7.53Zm94.28,6.35c.05.35.1.7.14,1v0a1,1,0,0,1,0,.16v0s0,.1,0,.15h0v0h0c.07.55.13,1.14.18,1.79s.11,1.34.15,2.06v0a124.84,124.84,0,0,0,2.48,14.61,82,82,0,0,0,3.77,12.22,29.68,29.68,0,0,0,4.27,7.64c1.41,1.67,2.94,2.67,4.57,2.7,1.21,0,2.46-1,3.71-2.84a40.83,40.83,0,0,0,3.94-8.1c.85-2.22,1.64-4.64,2.34-7.15q1.1-4,1.89-8c.51-2.59.93-5.21,1.24-7.83a69.42,69.42,0,0,0,.51-7,48.36,48.36,0,0,0-.15-5.62c-.14-1.38-.42-2.24-.86-2.41a47.64,47.64,0,0,1-8.06-4.66c-3.73-2.51-8.15-5.77-12.72-9.33q-7.16-5.6-14-11.54c-4.23-3.66-8.06-7.16-11-10.09a28.41,28.41,0,0,0-8.43-6.05A27.91,27.91,0,0,0,195,28.13a60.36,60.36,0,0,0-14.19,1.24,170.39,170.39,0,0,0-18.77,4.89c-6,1.86-10.19,4.37-13.11,7.15a19.56,19.56,0,0,0-5.45,8.79.28.28,0,0,0,.19.35.27.27,0,0,0,.2,0,12.36,12.36,0,0,1,5.76-1.17.27.27,0,0,0,.25-.15c.82-1.45,3-2.76,5.88-3.82a44.37,44.37,0,0,1,11-2.38c.88-.07,1.75-.13,2.63-.15s1.61,0,2.41,0a18.33,18.33,0,0,1,2.36.23,10.33,10.33,0,0,1,1.82.46,4.68,4.68,0,0,1,2.39,1.71,3.38,3.38,0,0,1,.42,2.56c-.21,1.11-.5,2.73-1,4.55a31.3,31.3,0,0,1-2.05,5.69,17.4,17.4,0,0,1-3.25,4.72,10.68,10.68,0,0,1-4.84,2.85.28.28,0,0,0-.22.27v3.63a.3.3,0,0,0,.05.15A6.61,6.61,0,0,0,169.83,72a14,14,0,0,0,3.83,1.61,17,17,0,0,0,2.65.48,19.31,19.31,0,0,0,2.75.08,17.44,17.44,0,0,0,2.88-.36,16.72,16.72,0,0,0,2.73-.81,15.25,15.25,0,0,0,6.16-4.42,18.33,18.33,0,0,0,3.59-7.19,2.59,2.59,0,0,1,1.18-1.55,2.56,2.56,0,0,1,1.93-.27,2.53,2.53,0,0,1,1.55,1.18h0a2.53,2.53,0,0,1,.27,1.93q-.16.63-.36,1.26a.27.27,0,0,0,.18.35.26.26,0,0,0,.15,0l8.31-1.53a.27.27,0,0,0,.23-.24c.73-6.54-6.67-8.1-6.79-8.13a2.58,2.58,0,0,1-1.61-1.1,2.5,2.5,0,0,1-.35-1.92,2.54,2.54,0,0,1,3-2h0c.33.07,11.11,2.41,10.94,12a.28.28,0,0,0,.28.29h.06L222,60.14a.28.28,0,0,0,.22-.33s0,0,0-.06l-2.71-6.29a2.55,2.55,0,0,1,4.68-2h0l3.62,8.41A.26.26,0,0,0,228,60a6.25,6.25,0,0,1,2.34,1.59,9.82,9.82,0,0,1,1.81,2.78,15.55,15.55,0,0,1,.82,2.47,18.73,18.73,0,0,1,.44,5.33,15.3,15.3,0,0,1-.32,2.24,6.71,6.71,0,0,1-.71,1.82,3.58,3.58,0,0,1-1,1.17.28.28,0,0,0-.12.29c0,.27.09.57.14.91Zm.15,1.08h0Zm.37,4.27ZM182.41,45.27a2.54,2.54,0,0,1-.62-4.66h0c.29-.17,8.43-4.79,16.66.53a2.54,2.54,0,0,1-2.78,4.26h0A11.28,11.28,0,0,0,184.34,45h0A2.51,2.51,0,0,1,182.41,45.27ZM75.25,215.43c.53-.4,25.18-18.36,40.18,3.75,2.86,4.21,5.54,8.56,8,13,2.63,4.72,4.78,9.13,6.5,13.09,2,4.52,3.5,8.25,4.57,11,1.36,3.49,1.92,5.52,1.69,5.69a.74.74,0,0,1-.48.09,3.2,3.2,0,0,0-.69,0,19.05,19.05,0,0,0-6.94,2.15c-2.24,1.37-4.09,3.69-4.51,7.81a.28.28,0,0,1-.28.27H106.05a77.11,77.11,0,0,1-21.45-2,44.83,44.83,0,0,1-16.34-7.52A34.33,34.33,0,0,1,60,254a35.66,35.66,0,0,1-4.69-11.33,44.75,44.75,0,0,1-.94-12.76A58.69,58.69,0,0,1,57,216.17a78.52,78.52,0,0,1,13.56-25A96.64,96.64,0,0,1,93.1,170.62a72.66,72.66,0,0,0,21.47-22.08,82,82,0,0,0,9.2-20.53.26.26,0,0,1,.16-.19.27.27,0,0,1,.37.14c3,6.64,6.4,13.78,9.61,19.92s6.27,11.27,8.64,13.94a35.33,35.33,0,0,1,3.88,5.28,42.49,42.49,0,0,1,3.08,6.19,49.28,49.28,0,0,1,2.21,7,32.5,32.5,0,0,1,.91,6.52,31.74,31.74,0,0,0,.22,3.85,18.36,18.36,0,0,0,1.06,4.42,9.14,9.14,0,0,0,3.09,4.3,7.49,7.49,0,0,0,5.67,1.12,7.64,7.64,0,0,0,3.83-1.64,7.79,7.79,0,0,0,2.08-2.83.28.28,0,0,1,.37-.14.29.29,0,0,1,.12.1l1.11,1.58h0c4.47,6.32,11.29,16,12,22.56a17.4,17.4,0,0,0,1.39,5.31,11.83,11.83,0,0,0,2.73,3.93,9,9,0,0,0,1.93,1.36,7.59,7.59,0,0,0,2.11.74,7,7,0,0,0,2.28.05,7.24,7.24,0,0,0,2.18-.71,8.1,8.1,0,0,0,2.55-2.11,11.29,11.29,0,0,0,1.79-3.27,19.2,19.2,0,0,0,.81-3.15c.21-1.19.37-2.49.49-3.88a.29.29,0,0,1,.11-.22c4.17-3.46,8.24-14.76,12-28.94s7.36-31.37,10.48-46.44l1.3-6.27a.28.28,0,0,1,.53-.08c12.92,24.42,14.85,46.44,12.36,65s-9.42,33.51-14.22,43.92h0a109,109,0,0,0-4.41,10.38c-.84,2.54-1.15,4.62-.75,6.22a4.7,4.7,0,0,0,3.48,3.31,16.69,16.69,0,0,1,3.85,1.72,5.29,5.29,0,0,1,2,2.1,2.32,2.32,0,0,1,.2.65h0a2.28,2.28,0,0,1,0,.69,2.5,2.5,0,0,1-.17.65,3.3,3.3,0,0,1-.32.62s0,.07,0,.1a.42.42,0,0,1,.08.22c0,.2-.1.31-.34.31H186.92a.29.29,0,0,1-.28-.29V245.85a.28.28,0,0,1,.19-.27,46.9,46.9,0,0,0,18-12.37l0,0a2.54,2.54,0,0,0-3.87-3.3h0c-.13.16-9.51,11.27-23.49,12.69a2.58,2.58,0,0,0-1.72.92,2.54,2.54,0,0,0,.36,3.58,2.51,2.51,0,0,0,1.86.56c1.07-.11,2.14-.27,3.2-.48a.29.29,0,0,1,.34.21.17.17,0,0,1,0,.07v24.61a.29.29,0,0,1-.29.29H129.14a.29.29,0,0,1-.29-.29s0-.05,0-.07a5.7,5.7,0,0,1,3.07-3.76,13.27,13.27,0,0,1,3.93-1.09,17.9,17.9,0,0,0,1.85-.36,4.43,4.43,0,0,0,1.43-.64c.9-.64,1.08-3.65.2-8.31a71.07,71.07,0,0,0-4.72-14.58c-1.78-4.08-4-8.63-6.7-13.49q-3.84-6.9-8.29-13.43c-18-26.51-46.81-5.44-47.37-5h0a2.53,2.53,0,0,0-.57,3.55h0a2.55,2.55,0,0,0,3.55.57Zm129.59,17.78h0ZM51.44,186.5h0c-1.34-7-.73-16.37,5.06-27.93a.28.28,0,0,0-.13-.38h0a.27.27,0,0,0-.3,0c-.63.51-1.25,1-1.85,1.58a50.25,50.25,0,0,0-9.93,12.28,47.11,47.11,0,0,0-4.89,12.09,42.1,42.1,0,0,0-1.07,14.1A43.27,43.27,0,0,0,42,212a48.16,48.16,0,0,0,3.26,6,55.76,55.76,0,0,0,4.21,5.81.27.27,0,0,0,.39,0,.23.23,0,0,0,.1-.17c.25-1.51.56-3,.92-4.54s.79-3,1.27-4.55a72.25,72.25,0,0,1,2.57-6.94q1.5-3.5,3.32-6.86a.26.26,0,0,0,0-.31,30.54,30.54,0,0,1-6.59-14Z" transform="translate(-32.77 -22.7)"/><path class="b08a7cef-cd07-4709-ba4a-ca93590f0dfc" d="M164.93,60.91h-.25l-.56,0c-.19,0-.38,0-.58-.08a8.3,8.3,0,0,1-3.42-1.48,13.89,13.89,0,0,1-3.05-3.12,17.66,17.66,0,0,1-1.69-2.88,7.39,7.39,0,0,1-.75-2.44.37.37,0,0,1,0-.11c.16-.53,1.71-1.05,3.9-1.49a83.46,83.46,0,0,1,8.68-1.18q1.18-.1,2.37-.15c.68,0,1.35,0,2,0,.32,0,.62,0,.9.06s.52.05.75.09h0a.28.28,0,0,1,.23.33c-.24,1.19-.53,2.37-.86,3.54a25.35,25.35,0,0,1-1.47,3.87,11.45,11.45,0,0,1-2.43,3.46,5.73,5.73,0,0,1-3.66,1.61h-.17Zm8.34-12.81h0Z" transform="translate(-32.77 -22.7)"/><path class="aeb7641e-63a5-4bec-a13a-7c3fb770b277" d="M175.76,79.15a22.86,22.86,0,0,0,3.52.1,23.47,23.47,0,0,0,3.73-.46,21.58,21.58,0,0,0,3.52-1.05,20.17,20.17,0,0,0,9.5-7.58h0a.28.28,0,0,1,.18-.12L225,64.76a1.78,1.78,0,0,1,1.42.32,3.27,3.27,0,0,1,1,1.38,8.39,8.39,0,0,1,.53,1.63,14,14,0,0,1,.28,1.94,13.75,13.75,0,0,1,0,1.56,8.83,8.83,0,0,1-.14,1.35.27.27,0,0,1-.21.22l-.21.06h0l-.25.06-.1,0h0L220.9,75h0l-.09,0-.23.06h0L116.36,102.2h-.06l-.25.07a.25.25,0,0,1-.19,0,5.14,5.14,0,0,1-1.72-1,3.66,3.66,0,0,1-1-1.5,4.48,4.48,0,0,1-.26-1.08h0a6.34,6.34,0,0,1-.06-1.23,9.09,9.09,0,0,1,.12-1.26c.08-.46.18-.92.29-1.36a3.76,3.76,0,0,0,.1-1.7v0c-.06-.34-.08-.53.2-.63l27-9.85h0a.3.3,0,0,1,.26,0,9,9,0,0,0,2.79,1.2h0a13,13,0,0,0,3.47.33,19.87,19.87,0,0,0,4.52-.7h0a30.38,30.38,0,0,0,4.89-1.77,29.35,29.35,0,0,0,5-2.94,21.44,21.44,0,0,0,3.82-3.52.29.29,0,0,1,.4,0,15.81,15.81,0,0,0,3,2,19.74,19.74,0,0,0,3.65,1.35A22,22,0,0,0,175.76,79.15ZM220.91,75h0Zm2.35,15.33c-.59,4.91-1.44,10.69-2.45,16.72q-2.19,13.08-4.87,26.07h0c-1.66,8-3.24,14.78-4.35,18.42a79.76,79.76,0,0,0-2,8.36c-.53,2.73-.93,5.39-1.33,8-.49,3.19-1,6.29-1.62,9.35a54,54,0,0,1-2.75,9.12,38.93,38.93,0,0,0-2.2,10.41c-.4,3.94-.55,8.18-.69,12.19l0,1.12a.28.28,0,0,0,.28.29.26.26,0,0,0,.26-.17h0c2.38-5.45,5.22-16.15,8.13-28.69s5.88-26.9,8.52-39.7c.92-4.43,1.8-8.69,2.65-12.68s1.61-7.53,2.32-10.63a156.25,156.25,0,0,0,3.36-20.18,95.53,95.53,0,0,0,.4-13.47h0q-.14-1.19-.24-2.37t-.15-2.16h0v-.09l-.14-1a.29.29,0,0,0-.32-.24h-.05l-1.66.44a.28.28,0,0,0-.21.29,94.22,94.22,0,0,1-.81,10.66Z" transform="translate(-32.77 -22.7)"/><path class="a607cda5-ac80-45a4-a21b-8d4a47041122" d="M187.68,106.34a6.75,6.75,0,0,1,0-5.5v0l.29-.89h0a.29.29,0,0,1,.27-.19,9.27,9.27,0,0,1,1.74.13,12.08,12.08,0,0,1,1.79.46,14.54,14.54,0,0,1,4.33,2.46,17.62,17.62,0,0,1,3.56,3.95h0a17.71,17.71,0,0,1,2.26,4.82,14.55,14.55,0,0,1,.6,4.94,11.11,11.11,0,0,1-.31,2,9,9,0,0,1-.65,1.8.23.23,0,0,1-.08.09,1.51,1.51,0,0,1-.26.18,3.13,3.13,0,0,1-.32.15,3.91,3.91,0,0,1-1.27.28,5.86,5.86,0,0,1-1.45-.08,7.4,7.4,0,0,1-1.81-.6,8.11,8.11,0,0,1-1.68-1.1,10,10,0,0,1-1.9-2.11,14.84,14.84,0,0,1-1.48-2.76v0a2.53,2.53,0,0,0-3.3-1.39h0a2.54,2.54,0,0,0-1.4,3.3h0a19.37,19.37,0,0,0,2.06,3.83,15.79,15.79,0,0,0,2.68,3,.27.27,0,0,1,.06.39.28.28,0,0,1-.34.09l-.86-.38h0a14.58,14.58,0,0,1-1.82-1.06,15.35,15.35,0,0,1-1.69-1.32,18,18,0,0,1-1.56-1.59,20.24,20.24,0,0,1-1.38-1.82,17.94,17.94,0,0,1-2.27-4.83,14.29,14.29,0,0,1-.59-4.94,11.42,11.42,0,0,1,.18-1.46,9.78,9.78,0,0,1,.36-1.34.28.28,0,0,1,.34-.21.29.29,0,0,1,.22.24,10.18,10.18,0,0,0,.32,1.59,15.62,15.62,0,0,0,.63,1.85,2.54,2.54,0,0,0,3.31,1.4h0a2.54,2.54,0,0,0,1.4-3.32Zm-9.5,51.46a14.22,14.22,0,0,1,3.63-3.41,11.28,11.28,0,0,1,1.79-.94,8.65,8.65,0,0,1,1.8-.53.17.17,0,0,1,.14,0,1.25,1.25,0,0,1,.29.1h0a1.94,1.94,0,0,1,.31.17,4.31,4.31,0,0,1,1,.85,5.6,5.6,0,0,1,.78,1.21,6.87,6.87,0,0,1,.59,1.81,8.2,8.2,0,0,1,.11,2,10.11,10.11,0,0,1-.57,2.78,14.46,14.46,0,0,1-1.37,2.86,2.54,2.54,0,0,0,.85,3.49,2.46,2.46,0,0,0,1.92.3,2.52,2.52,0,0,0,1.58-1.14,19.89,19.89,0,0,0,1.86-3.93,16,16,0,0,0,.81-3.94h0a.28.28,0,0,1,.55-.05,14.7,14.7,0,0,1,.41,4.69,18.13,18.13,0,0,1-3.59,9.57,14.17,14.17,0,0,1-3.63,3.4,10.28,10.28,0,0,1-1.29.72,8.74,8.74,0,0,1-1.3.51.29.29,0,0,1-.37-.16.3.3,0,0,1,.07-.31,11.88,11.88,0,0,0,1.1-1.2,16,16,0,0,0,1.11-1.61,2.54,2.54,0,1,0-4.34-2.65,6.65,6.65,0,0,1-2.14,2.27,9.49,9.49,0,0,1-2.3,1h0l-.89.29a.28.28,0,0,1-.32-.1,9.38,9.38,0,0,1-.92-1.48,11.43,11.43,0,0,1-.69-1.72l0-.08v0a14.42,14.42,0,0,1-.56-4.9,17.84,17.84,0,0,1,1.07-5.15,17.42,17.42,0,0,1,2.54-4.68Zm-20.51-36.05a8.85,8.85,0,0,1,.89,2.07A11.71,11.71,0,0,1,159,127a16.3,16.3,0,0,1-.34,3.48v0a2.54,2.54,0,1,0,5,1h0a21.27,21.27,0,0,0,.44-4.75,16.29,16.29,0,0,0-.67-4.33A13.67,13.67,0,0,0,163,121h0a.31.31,0,0,1,.07-.32.28.28,0,0,1,.4,0h0a13.47,13.47,0,0,1,1.3,1.73,15.63,15.63,0,0,1,1.07,2,17.12,17.12,0,0,1,.69,1.82,18.39,18.39,0,0,1,.81,3.9c.06.68.1,1.37.1,2.08a19.57,19.57,0,0,1-.86,5.84,16.15,16.15,0,0,1-2.49,4.92,12,12,0,0,1-1.52,1.67,10.13,10.13,0,0,1-1.72,1.26h0a.27.27,0,0,1-.38-.1.28.28,0,0,1,0-.29,10.74,10.74,0,0,0,1-1.95,15.67,15.67,0,0,0,.74-2.64,2.52,2.52,0,0,0-2-3h0a2.53,2.53,0,0,0-1.91.38,2.56,2.56,0,0,0-1.09,1.61,7.58,7.58,0,0,1-3.46,5.14h0l-.92.73a.27.27,0,0,1-.34,0,10.31,10.31,0,0,1-1.63-1.24,12.32,12.32,0,0,1-1.46-1.6,16.08,16.08,0,0,1-2.48-4.91h0a20,20,0,0,1-.87-5.84,20.47,20.47,0,0,1,.17-2.62,19.19,19.19,0,0,1,.49-2.51,17.49,17.49,0,0,1,.81-2.34,15.61,15.61,0,0,1,1.08-2.12,13.44,13.44,0,0,1,1.74-2.28,10.61,10.61,0,0,1,2-1.68h0l.27-.17h0l.11,0a3,3,0,0,1,.43,0l.47.06a4.74,4.74,0,0,1,1.39.54,6.74,6.74,0,0,1,1.31,1,8.22,8.22,0,0,1,1.32,1.68Z" transform="translate(-32.77 -22.7)"/><path class="f78d4ad9-9026-4779-810e-f7eeb4f18333" d="M181.29,122.49a24.79,24.79,0,0,0,2,2.07,22.05,22.05,0,0,0,2.27,1.77,19.45,19.45,0,0,0,2.4,1.4,17.5,17.5,0,0,0,2.82,1.09h0a15.26,15.26,0,0,0,2.88.56,14.77,14.77,0,0,0,2.9,0,11.9,11.9,0,0,0,5.35-1.94,12.08,12.08,0,0,0,4-4.41,14.92,14.92,0,0,0,1.7-6.18,19.54,19.54,0,0,0-.76-6.57,23,23,0,0,0-7.64-11.49,19.74,19.74,0,0,0-5.78-3.24,15.13,15.13,0,0,0-6.36-.82,12.15,12.15,0,0,0-5.59,2,12.34,12.34,0,0,0-4,4.41,15.11,15.11,0,0,0-1.69,6.18,19.61,19.61,0,0,0,.75,6.58,23.07,23.07,0,0,0,2.95,6.32,24.49,24.49,0,0,0,1.76,2.33Zm-60.54-16.18,97.93-25.47a.28.28,0,0,1,.34.2.22.22,0,0,1,0,.08c-.08,2.37-.42,5.77-.94,9.83-.58,4.48-1.38,9.74-2.3,15.26Q213.63,119.14,211,132c-1.63,7.91-3.18,14.55-4.26,18.1a85.89,85.89,0,0,0-2.17,8.84c-.55,2.82-1,5.55-1.37,8.22-.46,3-.91,6-1.53,8.84a49.86,49.86,0,0,1-2.52,8.47,42.37,42.37,0,0,0-2.49,11.37c-.45,4.23-.61,8.72-.76,13,0,1.31-.09,2.62-.15,3.93s-.11,2.44-.19,3.65h0l0,.19v.19c-.1,1.45-.24,2.79-.42,4a16.72,16.72,0,0,1-.7,3,6.89,6.89,0,0,1-.82,1.61,3.14,3.14,0,0,1-1.07,1,1.82,1.82,0,0,1-1.19.17h0a2.4,2.4,0,0,1-.77-.29,4,4,0,0,1-.75-.55,6.89,6.89,0,0,1-1.65-2.5,12.77,12.77,0,0,1-.86-3.53c-.87-7.89-8.15-18.19-12.93-24.94v0h0c-1.66-2.36-3-4.25-3.52-5.26a4.84,4.84,0,0,0-2-2.31,2.54,2.54,0,0,0-2.26.22c-1.35.69-1.53,1.8-1.79,3.35h0a12.73,12.73,0,0,1-.71,2.83,2.88,2.88,0,0,1-2.12,2h0a2.62,2.62,0,0,1-2.09-.49l0,0a4,4,0,0,1-1.17-1.71,13.78,13.78,0,0,1-.76-3.37,28.19,28.19,0,0,1-.16-3,37.06,37.06,0,0,0-1-7.48,54.33,54.33,0,0,0-2.48-8,47.92,47.92,0,0,0-3.48-7,41.39,41.39,0,0,0-4.39-6c-2.68-3-6.34-9.53-10.11-17.07s-7.63-16-10.72-23.08l-.12-.29q-2.47-5.62-4.85-11.29h0v0a.28.28,0,0,1,.2-.34ZM185,147.81a14.8,14.8,0,0,0-6,2.3,19.38,19.38,0,0,0-4.85,4.5,23.21,23.21,0,0,0-4.72,12.9,19.71,19.71,0,0,0,.77,6.5h0l0,.14a15,15,0,0,0,3.09,5.58,12.25,12.25,0,0,0,4.89,3.35h0a12.16,12.16,0,0,0,5.9.6,15.2,15.2,0,0,0,6-2.3,19.43,19.43,0,0,0,4.85-4.51,22.29,22.29,0,0,0,3.35-6.13,22.66,22.66,0,0,0,1.37-6.76,19.68,19.68,0,0,0-.77-6.5h0l0-.14a15.1,15.1,0,0,0-3.11-5.6h0A12.09,12.09,0,0,0,185,147.81Zm-13.66-8.08a24.31,24.31,0,0,0,1.14-7.47,25.1,25.1,0,0,0-1.16-7.55,24.18,24.18,0,0,0-.9-2.32,20.12,20.12,0,0,0-2.45-4.11,16.62,16.62,0,0,0-3.2-3.18,14.32,14.32,0,0,0-3.89-2.09,12.79,12.79,0,0,0-7.3-.33,13.63,13.63,0,0,0-3,1.14h0l-.14.08h0l-.41.22h0a16.16,16.16,0,0,0-3.37,2.68,18.32,18.32,0,0,0-2.47,3.2,21.91,21.91,0,0,0-1.42,2.77,22.37,22.37,0,0,0-1,3,24.83,24.83,0,0,0-.63,3.18,25.41,25.41,0,0,0-.21,3.27,24.5,24.5,0,0,0,1.14,7.47,21,21,0,0,0,3.27,6.38,16.3,16.3,0,0,0,5.2,4.53,13,13,0,0,0,12.37,0,16.19,16.19,0,0,0,5.2-4.53,21,21,0,0,0,3.27-6.38Z" transform="translate(-32.77 -22.7)"/><path class="eaeaaf8e-3b1d-49ef-a953-175d34eec22d" d="M184.21,65.41a2,2,0,0,1,0,3.94h0a2,2,0,0,1,0-3.94Zm22.26,185.82c-13.36,1.63-15.06-3.29-14.32-7.74a41.56,41.56,0,0,1-5.23,2.35v26.22h39.85c.2,0-.21-.2,0-.51a2.73,2.73,0,0,0,.45-1.14,2.07,2.07,0,0,0-.19-1.2c-.57-1.21-2.22-2.51-5.73-3.66-4.18-1.37-4.61-4.71-2.92-9.89a109.31,109.31,0,0,1,4.44-10.42c5.92-12.82,15-32.6,15.13-57.31-5.88,22.71-18.5,61.71-31.48,63.3ZM178,247.93a2.76,2.76,0,0,1-1.92-.52c-.32,2.77-3.09,22.08-17.59,24.65h22.75V247.44a32,32,0,0,1-3.24.49Zm-48.32-2.53a162.06,162.06,0,0,0-14.5-26.06c-8.07-11.9-19-12.06-27.33-9.66,4,1.15,29.05,9.52,29.22,36.3.1,15.27-4.15,22.78-10.14,26.08h16.37c.86-8.47,7.16-9.49,11.23-10.15,2.88-.47-3.84-14.21-4.85-16.51Zm-77.8-30.84a78.7,78.7,0,0,1,5.86-13.72c-2,.8-11.72,4-19.28-8.3a42,42,0,0,0,3.81,19.36,53,53,0,0,0,7.42,11.79A68.14,68.14,0,0,1,51.89,214.56ZM142.34,162a39,39,0,0,1,6.9,11.39,41,41,0,0,1,3.11,13.44,24.19,24.19,0,0,0,1.29,8.38c1.41,3.6,4.08,6.33,9.07,5.59a7.58,7.58,0,0,0,6.13-4.63l1.11,1.58c4.46,6.3,11.26,15.91,12,22.44a15.17,15.17,0,0,0,3.81,9c-4-1.39-8.11-6.37-8.94-12.58-1.12-8.44-6.94-7.12-16.69-4.12s-11.43-15.19-18.18-36.57c-5.9-18.66-20.42-29-24.59-31.58a82.26,82.26,0,0,0,6.7-16.29c6,13.28,13.53,28.56,18.3,33.93Zm96-51.32c2.39,5.81,5.3,10.1,8.57,10.16,2.33,0,5-4.5,7.39-10.75a83.56,83.56,0,0,0,2.89-9.27c-3.69,4.37-6.84,4.19-11.25.69-3.16-2.51-8.43-14.57-12.94-26.08a4.64,4.64,0,0,1-1.56,2.21c.09.57.19,1.23.28,2a1.6,1.6,0,0,1,0,.39v0c.13,1.11.25,2.39.33,3.87.8,7.55,2.84,18.51,6.23,26.75ZM203.51,49.51c3,1,10,4.07,9.86,11.93L222,59.86l-.59-1.38C216.21,51.36,207,49.83,203.51,49.51ZM137.19,78.14c-.94-3.12-.67-7.51,1.42-13.5-.15-.5-.3-1-.42-1.52-2.94,5.65-6.73,12.84-9.72,18.2l8.72-3.18Zm12-7.66a2,2,0,1,1,0,3.93h0a2,2,0,1,1,0-3.93Zm1-6.69a2,2,0,0,1,0,3.94h0a2,2,0,1,1,0-3.94Zm5.63,4.34a2,2,0,0,1,.09,3.94h-.09a2,2,0,0,1,0-3.94ZM174.5,66a2,2,0,1,1-2,2,2,2,0,0,1,2-2Zm6.72-6.36a2,2,0,1,1-2,2A2,2,0,0,1,181.22,59.64Z" transform="translate(-32.77 -22.7)"/><path class="f7d728fc-3603-4374-9904-4c03482ac793" d="M155.71,155.6s-.3,8.8-4.77,8.57a47.26,47.26,0,0,1,3.55,7.12c.26.65.51,1.3.73,1.94C157.13,171.28,159.72,166.4,155.71,155.6Zm50.25-32c-1.46,8.51-3.08,17.46-4.37,22.4l0-.08c-9.82,9.84-18.9-7.9-18.9-7.9a29,29,0,0,0,.18,10,12.71,12.71,0,0,1,8.15.14,13.33,13.33,0,0,1,7.76,7.91c.16.4.3.8.43,1.22l0,.14a21.5,21.5,0,0,1-.6,13.45,22.73,22.73,0,0,1-5.06,8.12c-1.31,5.5-2.16,19.83-1.62,24.72s2.72,19.45-1.93,21.82a2.88,2.88,0,0,0,1.29.69,1.51,1.51,0,0,0,1-.15,4.2,4.2,0,0,0,1.75-2.43,28.09,28.09,0,0,0,1.11-6.9v-.2l0-.19c.15-2.3.24-4.88.34-7.57.3-8.5.63-18,3.26-24.43,2.25-5.49,3.12-11.2,4-17.24A115,115,0,0,1,206.45,150c2.16-7.08,6.19-26.62,9.06-43.82,1.76-10.55,3.08-20.09,3.24-25.06l-8.17,2.13s.22,13.29-1.34,21.27c-.37,1.87-.88,4.87-1.48,8.44a19.07,19.07,0,0,1,.16,3.9A15.17,15.17,0,0,1,206,123.56Zm-45.8-23.23s-3.66,14.82-15.19,6.85a20.91,20.91,0,0,0,4.1,7.26,12.16,12.16,0,0,1,1.28-.78l.16-.08a13.21,13.21,0,0,1,6.21-1.56,13.51,13.51,0,0,1,2.47.23c1.93-4.46,1.7-10.87,1-11.92Z" transform="translate(-32.77 -22.7)"/><path class="ed95a6ea-505b-4b9f-921a-b45663f3e078" d="M191.28,167.51a2.83,2.83,0,0,1-3.61,1.09L186,171.3l0,0a2.82,2.82,0,0,1,1,3.88,14.29,14.29,0,0,1-2.26,2.88,10.47,10.47,0,0,0,2.54-1.2,15.8,15.8,0,0,0,6-7.95,16.08,16.08,0,0,0,.64-9.41,17.66,17.66,0,0,1-2.71,8Zm-9.55-62.66a10.73,10.73,0,0,0-.54,2.75,15.83,15.83,0,0,0,2.82,9.6,18.14,18.14,0,0,0,2.89,3.36,14.89,14.89,0,0,0,3.44,2.33l.86.39a17.74,17.74,0,0,1-4.83-6.93,2.82,2.82,0,0,1,1.15-3.47L186.21,110a2.84,2.84,0,0,1-3.51-1.63,13.39,13.39,0,0,1-1-3.51Zm-18,17.46a19,19,0,0,1,.23,9.21,2.83,2.83,0,0,1-3.32,2.22,3.12,3.12,0,0,1-.81-.29c-.16,1.41-.36,2.82-.58,4.22a2.82,2.82,0,0,1,3.22,2.36,2.59,2.59,0,0,1,0,1,13.4,13.4,0,0,1-1.76,4.68,11,11,0,0,0,3.15-2.86,17.55,17.55,0,0,0,3.3-10.59,19.78,19.78,0,0,0-.4-4,17.37,17.37,0,0,0-1.18-3.66,14.37,14.37,0,0,0-2.32-3.66c.18.45.34.91.49,1.39Z" transform="translate(-32.77 -22.7)"/><path class="e0067f34-4c40-40d5-87bb-5ca57fa04e46" d="M139.25,91c-3.93.37-8.09,3-10.24,2.91-5-.15-1.86.31-6.15,1.24-3.84.83-4,2-6.39,2.44a12.29,12.29,0,0,0-3.31,1.16,4.22,4.22,0,0,0,.24,1A4,4,0,0,0,116,102l.27-.07.06,0,104.19-27.1.24-.07.1,0,6.48-1.68.13,0,.25-.06.22-.06a11.49,11.49,0,0,0,.11-2.84,12.49,12.49,0,0,0-.49-2.71c-1.12.3-5.34,1.33-6.05,1.71-5.77,3.07-6.55.55-12.19,3.35-4.66,2.31-8.23,2.1-11,3.28-3.32,1.39-6.18,1.25-8.36,2.13-1.64.66-7.58,2-7.64,2-2.76,1.66-5.08,1.45-7.67,2.82-4.21,2.22-10.31,1.26-12.77,2.62-6.95,3.82-7.66.51-11.68,2.34-6.92,3.14-3.23,2.63-10.89,3.35Zm72.6,60.67c2.23-7.32,6.35-27.17,9.24-44.53,1.92-11.5,3.3-22,3.26-27.45l1.68-.43.14,1v.07c.07,1.32.2,2.85.39,4.54.32,6.78-.14,17.82-3.76,33.57-1.42,6.19-3.12,14.39-5,23.32-5.29,25.58-11.89,57.48-16.65,68.33l0-1.12c.29-8,.6-16.94,2.87-22.5,2.5-6.12,3.42-12.15,4.39-18.53a111.91,111.91,0,0,1,3.35-16.31Z" transform="translate(-32.77 -22.7)"/><path class="e794d9ff-7644-4700-8f7c-90eba8517dc9" d="M164.68,60.63a2.67,2.67,0,0,1,.4,0c2.75-.14,4.6-2.34,5.86-4.92a31.65,31.65,0,0,0,2.3-7.33,15,15,0,0,0-1.63-.15,34,34,0,0,0-4.37.15c-5.58.48-12.06,1.57-12.33,2.47A12.08,12.08,0,0,0,157.3,56c1.52,2.11,3.67,4,6.29,4.5a8.39,8.39,0,0,0,1.09.11Zm3.08,5.28c4-1,6.54-4.17,8.27-7.72a40.1,40.1,0,0,0,3.06-10.31c.41-2.26-.74-3.74-3-4.58a14.1,14.1,0,0,0-4.27-.71,40,40,0,0,0-5.07.14c-7,.61-15.29,3.12-17.1,6.34a12.59,12.59,0,0,0-5.89,1.2c1.7-5.78,6.5-12.06,18.37-15.75,14.3-4.44,24.73-6.53,32.87-6.11a26.4,26.4,0,0,1,18.59,8.36,294.57,294.57,0,0,0,25,21.65c8.75,6.83,17,12.56,20.85,14,.67.26.91,3.34.83,7.77a88.54,88.54,0,0,1-1.75,14.72,94,94,0,0,1-4.21,15.15c-2.39,6.25-5.06,10.8-7.39,10.75-3.28-.06-6.19-4.36-8.58-10.16-3.39-8.24-5.43-19.2-6.23-26.75q-.1-1.94-.33-3.87v0a2.6,2.6,0,0,0,0-.39c-.08-.67-.17-1.33-.28-2a5.25,5.25,0,0,0,1.85-3.15,16.72,16.72,0,0,0,.31-4.84,16.39,16.39,0,0,0-1.27-5.38,8,8,0,0,0-4.31-4.52l-3.62-8.41a2.83,2.83,0,1,0-5.24,2.16l0,.08L222,59.87l-8.59,1.57c.18-10-11.14-12.29-11.18-12.3A2.83,2.83,0,0,0,201,54.67h0s7.28,1.49,6.57,7.82L199.26,64c.12-.42.25-.84.36-1.27a2.83,2.83,0,0,0-5.47-1.44c-1.64,6.2-5.38,9.76-9.58,11.41a17.12,17.12,0,0,1-5.52,1.16,18,18,0,0,1-5.32-.55c-2.82-.75-5.06-2.12-6-3.8V65.91Zm-5.67,4.23a3.41,3.41,0,0,0,0,.55c.05,1.49-3.65,4.18-7.91,6.15a19.49,19.49,0,0,1-7.31,2c-1.72,0-3.14-.32-3.86-1.34-1.24-1.77-1.19-5.4,1.17-11.77a2.79,2.79,0,0,0,0-2.07,22,22,0,0,1-1.2-5.6l.18-.23a7.42,7.42,0,0,1,7-3,21.4,21.4,0,0,0,2.49,4.55A16.15,16.15,0,0,0,162.09,66v4.14Zm3.41,5.3A26.15,26.15,0,0,1,156.6,82a25.33,25.33,0,0,1-9.52,2.5,10.91,10.91,0,0,1-6.44-1.58l-27,9.85c-.18.07.26.76-.12,2.17a11.6,11.6,0,0,0-.41,2.55,6,6,0,0,0,.31,2.21A4,4,0,0,0,116,102l.27-.07.06,0,104.19-27.1.24-.07.1,0,6.48-1.68.13,0,.25-.06.22-.06a11.49,11.49,0,0,0,.11-2.84,11,11,0,0,0-.78-3.48c-.45-1-1.14-1.72-2.14-1.53l-28.82,5.28A20.55,20.55,0,0,1,186.63,78a22.78,22.78,0,0,1-7.34,1.54,23.64,23.64,0,0,1-7-.73A17.75,17.75,0,0,1,165.5,75.44Zm-28.31,2.7-8.72,3.18c3-5.36,6.78-12.55,9.72-18.2.15.61.3,1.12.42,1.52-2.09,6-2.36,10.38-1.42,13.5ZM177,175.67l.89-.29a6.52,6.52,0,0,0,4.3-3.12A2.83,2.83,0,0,1,187,175.2a14.29,14.29,0,0,1-2.26,2.88,10.47,10.47,0,0,0,2.54-1.2,15.8,15.8,0,0,0,6-7.95,16,16,0,0,0,.64-9.41,17.66,17.66,0,0,1-2.71,8,2.83,2.83,0,1,1-4.83-2.94h0a12,12,0,0,0,1.9-5.51,7.36,7.36,0,0,0-.67-3.68,4.64,4.64,0,0,0-1.67-1.94,2,2,0,0,0-.54-.25,9.79,9.79,0,0,0-3.51,1.44,15.77,15.77,0,0,0-6.05,7.94h0a15.92,15.92,0,0,0-.51,9.88l0,.11A10.22,10.22,0,0,0,177,175.67ZM188.27,100c-.1.3-.2.6-.29.89a6.49,6.49,0,0,0,0,5.32,2.83,2.83,0,0,1-5.25,2.13,13.39,13.39,0,0,1-1-3.51,9.94,9.94,0,0,0-.54,2.75,15.85,15.85,0,0,0,2.82,9.6,18.14,18.14,0,0,0,2.89,3.36,14.89,14.89,0,0,0,3.44,2.33c.29.14.58.27.86.38a17.62,17.62,0,0,1-4.83-6.92,2.82,2.82,0,0,1,5.23-2.12,12.14,12.14,0,0,0,3.31,4.79,7.36,7.36,0,0,0,3.36,1.63,4.76,4.76,0,0,0,2.57-.18,2.44,2.44,0,0,0,.51-.29,9.69,9.69,0,0,0,.92-3.69,15.86,15.86,0,0,0-2.81-9.59h0a15.89,15.89,0,0,0-7.75-6.3,10.07,10.07,0,0,0-3.44-.58Zm-35.66,45.6.94-.75a7.34,7.34,0,0,0,3.35-5,2.83,2.83,0,0,1,5.54,1.13,13.4,13.4,0,0,1-1.76,4.68,11,11,0,0,0,3.15-2.86,17.55,17.55,0,0,0,3.3-10.59,19.78,19.78,0,0,0-.4-4,17.37,17.37,0,0,0-1.18-3.66,14.37,14.37,0,0,0-2.32-3.66c.18.45.34.91.48,1.39a18.84,18.84,0,0,1,.23,9.21,2.82,2.82,0,0,1-5.53-1.11,13.48,13.48,0,0,0-.12-6.51,8.27,8.27,0,0,0-2.14-3.63,5.3,5.3,0,0,0-2.56-1.45,2.46,2.46,0,0,0-.81,0l-.27.16a11.8,11.8,0,0,0-3.7,3.88A16.58,16.58,0,0,0,147,127.2a19.19,19.19,0,0,0-.65,5.06,17.55,17.55,0,0,0,3.29,10.59,10.92,10.92,0,0,0,3,2.77Zm-2.26-32c-.29.15-.57.32-.85.5a17.34,17.34,0,0,0-5.51,5.71,22.06,22.06,0,0,0-2.5,5.87,24.78,24.78,0,0,0-.85,6.52,23.27,23.27,0,0,0,4.46,14c2.93,3.84,7,6.22,11.62,6.22s8.69-2.38,11.61-6.22a23.28,23.28,0,0,0,4.47-14,25.86,25.86,0,0,0-.53-5.15,23.76,23.76,0,0,0-1.56-4.84,18.84,18.84,0,0,0-5.74-7.39,13.64,13.64,0,0,0-8.25-2.86,13.21,13.21,0,0,0-6.21,1.56ZM57.81,200.72c-4-4.66-13.22-19-1.57-42.29q-1.87,1.53-3.6,3.24a48.61,48.61,0,0,0-13,22.56,41.92,41.92,0,0,0,2.61,27.67,52.59,52.59,0,0,0,7.42,11.79,68.14,68.14,0,0,1,2.19-9.13,79,79,0,0,1,5.92-13.84ZM67,151.5c-16.58,23.77-10.13,38.39-6.09,44a100,100,0,0,1,29.25-29.39c24.25-16,29.36-41.89,30.11-46.6q-2.59-5.9-5.08-11.85h0c-4-1.07-6.09-3.37-7.07-6.08a11.61,11.61,0,0,1-.64-4.31,17.15,17.15,0,0,1,.59-3.84c.84-3.1,2.88-5.73,3.66-6l8.65-3.16c2.33-3.18,15-28,17.17-32.17,1.07-8.09,6.21-17.78,23-23,14.93-4.64,26-6.82,34.81-6.36a31.73,31.73,0,0,1,22.32,10A286.47,286.47,0,0,0,242.1,54c8.35,6.51,16,11.91,19.39,13.19S266.08,73.5,266,80.3A93.38,93.38,0,0,1,264.12,96a100.54,100.54,0,0,1-4.48,16.07c-3.21,8.4-7.6,14.48-12.77,14.39-6-.12-10.51-5.88-13.71-13.66-.85-2-1.61-4.24-2.3-6.51-.6,4.05-1.42,8.51-2.54,13.38-.64,2.82-1.27,5.66-1.87,8.49C258.21,182,238.34,225.12,228,247.6c-1.85,4-3.39,7.33-4.2,9.8-.56,1.74-.84,2.72-.71,2.76,5.24,1.72,7.93,4.16,9.1,6.64a7.69,7.69,0,0,1,.67,4.38,8.49,8.49,0,0,1-1.36,3.52,6.39,6.39,0,0,1-4.69,3H106.14C88,278.35,74.4,274.26,65,267.16a39.7,39.7,0,0,1-14.93-23.31,49.21,49.21,0,0,1-1.15-12.52,61.18,61.18,0,0,1-11.83-17.1,47.52,47.52,0,0,1-2.93-31.36,54.19,54.19,0,0,1,14.47-25.21A51.4,51.4,0,0,1,63.49,147.3h0A2.82,2.82,0,0,1,67,151.5Zm8.43,64.17c.07-.06,24.81-18.41,39.79,3.67a162.06,162.06,0,0,1,14.5,26.06c1,2.3,7.73,16,4.85,16.51-4.07.66-10.37,1.69-11.23,10.15H106c-16.79.6-29.2-3.06-37.61-9.43a34.07,34.07,0,0,1-12.82-20c-1.84-8.07-1.21-17.15,1.69-26.37,5.17-16.44,17.52-33.21,36-45.4C112.83,157.9,120.88,139,124,128.07c6,13.28,13.52,28.56,18.3,33.93a39,39,0,0,1,6.9,11.39,41,41,0,0,1,3.11,13.44,24.19,24.19,0,0,0,1.29,8.38c1.41,3.6,4.08,6.34,9.07,5.59a7.54,7.54,0,0,0,6.12-4.63l1.12,1.58c4.46,6.3,11.26,15.91,12,22.44.47,4.29,2.12,7.49,4.21,9.42a8.36,8.36,0,0,0,4.17,2.16,7.08,7.08,0,0,0,4.65-.68,9.69,9.69,0,0,0,4.48-5.53,29.74,29.74,0,0,0,1.31-7.13c8.45-7,16.39-45.39,22.63-75.54.44-2.14.88-4.24,1.3-6.28,25.78,48.73,7.73,87.85-1.86,108.63a109.31,109.31,0,0,0-4.44,10.42c-1.69,5.18-1.26,8.52,2.92,9.89,3.52,1.15,5.16,2.45,5.73,3.66a2.1,2.1,0,0,1,.19,1.2,2.86,2.86,0,0,1-.45,1.15c-.21.31-.26.5-.45.5h-39.4V245.84a47.19,47.19,0,0,0,18.14-12.46,2.82,2.82,0,1,0-4.24-3.73l0,.06s-9.36,11.18-23.31,12.6a2.82,2.82,0,0,0,.55,5.62q1.63-.17,3.24-.48v24.61H129.13c1-3.7,4.55-4.28,6.77-4.64a7.93,7.93,0,0,0,3.4-1.05c4.24-2,1.09-10.54-4.43-23.23a167.62,167.62,0,0,0-15-27c-18.3-27-47.69-5.15-47.78-5.09a2.83,2.83,0,0,0,3.32,4.59Zm50.27-97.8c0,.09.09.19.12.28,6.17,14.07,15.46,34.11,20.78,40.09a44.42,44.42,0,0,1,7.92,13A47.23,47.23,0,0,1,158,186.83a18.91,18.91,0,0,0,.9,6.32c.51,1.29,1.4,2.28,3,2,1.88-.28,2.34-3.05,2.6-4.59s.47-2.8,1.94-3.55c1.86-1,3.29-.38,4.62,2.22a60.26,60.26,0,0,0,3.51,5.22c4.79,6.78,12.11,17.13,13,25.1.31,2.81,1.25,4.77,2.42,5.85a2.85,2.85,0,0,0,1.38.77,1.52,1.52,0,0,0,1-.15,4.2,4.2,0,0,0,1.75-2.43,28.09,28.09,0,0,0,1.11-6.9,2.56,2.56,0,0,1,0-.39c.15-2.3.24-4.88.34-7.57.3-8.5.63-18,3.26-24.43,2.25-5.49,3.12-11.2,4-17.24a114.6,114.6,0,0,1,3.55-17.1c2.16-7.09,6.19-26.63,9.06-43.83,1.76-10.55,3.08-20.09,3.24-25.06l-97.92,25.47q2.37,5.67,4.84,11.29Zm58.81-72.61a11,11,0,0,1,11.05.37,2.83,2.83,0,1,0,3.08-4.74h0c-8.51-5.5-16.94-.54-17-.52a2.82,2.82,0,1,0,2.83,4.89Zm42.09,39.61c-.18-1.51-.31-3-.4-4.54v-.07c0-.35-.09-.7-.15-1l-1.67.43c0,5.41-1.35,15.95-3.26,27.45-2.9,17.36-7,37.21-9.24,44.53a111.91,111.91,0,0,0-3.35,16.31c-1,6.38-1.9,12.41-4.39,18.53-2.27,5.56-2.59,14.49-2.87,22.5l0,1.12c4.75-10.85,11.35-42.75,16.64-68.33,1.85-8.93,3.55-17.13,5-23.32,3.61-15.75,4.08-26.79,3.75-33.57Zm-71.67-34v0ZM191,148.14a13.65,13.65,0,0,1,8.19,9.13s0,.09,0,.14a22.46,22.46,0,0,1-8.91,24.23,13.66,13.66,0,0,1-12.14,1.73l0,0a13.63,13.63,0,0,1-8.15-9.11c0-.05,0-.1,0-.15a21.54,21.54,0,0,1,.6-13.44h0a21.49,21.49,0,0,1,8.31-10.78A13.65,13.65,0,0,1,191,148.14Zm11.07-20.48h0a13.61,13.61,0,0,0,5.81-10.8,21.48,21.48,0,0,0-3.74-13.07h0a21.43,21.43,0,0,0-10.62-8.51,13,13,0,0,0-18,12,21.6,21.6,0,0,0,3.75,13.07,23.33,23.33,0,0,0,3.85,4.45,21.09,21.09,0,0,0,4.72,3.21,17,17,0,0,0,5.81,1.68,13.34,13.34,0,0,0,5.74-.66,12.21,12.21,0,0,0,1.4-.59,11.68,11.68,0,0,0,1.3-.75Z" transform="translate(-32.77 -22.7)"/><ellipse class="ad39a761-6239-4f1d-a553-d847f23a1618" cx="145.99" cy="60.85" rx="4.77" ry="2.51" transform="translate(-44.8 44.86) rotate(-25.06)"/><ellipse class="ad39a761-6239-4f1d-a553-d847f23a1618" cx="197.02" cy="50.74" rx="6.71" ry="3.52" transform="translate(-33.01 -21.75) rotate(-0.28)"/><path class="f46dac01-a772-4170-8352-87e6bc15363d" d="M160.62,49.29s-4.77-.18-5.06,3.16" transform="translate(-32.77 -22.7)"/></svg>