<?xml version="1.0" encoding="UTF-8"?>
<svg width="350px" height="275px" viewBox="0 0 350 275" version="1.1" xmlns="http://www.w3.org/2000/svg" xmlns:xlink="http://www.w3.org/1999/xlink">
    <!-- Generator: Sketch 52.2 (67145) - http://www.bohemiancoding.com/sketch -->
    <title>Group 27</title>
    <desc>Created with Sketch.</desc>
    <g id="Page-1" stroke="none" stroke-width="1" fill="none" fill-rule="evenodd">
        <g id="Group-27" transform="translate(0.000000, 2.000000)">
            <polygon id="Path-13" stroke="#000000" stroke-width="2" fill="#FFFFFF" fill-rule="nonzero" points="115.430273 54 116.430273 262.74777 131.430273 271 132.430273 62.0781562"></polygon>
            <polygon id="Path-14" stroke="#000000" stroke-width="2" fill="#000000" fill-rule="nonzero" points="116.6 52.48 223.775689 0 237.910497 7.5521539 132.135435 61"></polygon>
            <polygon id="Path-15" stroke="#000000" stroke-width="2" fill="#FFFFFF" fill-rule="nonzero" points="131.430273 61.199861 131.430273 271 238.987188 216.529233 239.05 9.15"></polygon>
            <path d="M132.430273,82 L239.5,27.5" id="Path-16" stroke="#000000" fill-rule="nonzero"></path>
            <polyline id="Path-17" stroke="#000000" fill-rule="nonzero" points="188.430273 68 188.430273 202.519163 146.430273 224"></polyline>
            <path d="M147.430273,105 L188.430273,84" id="Path-18" stroke="#000000" fill-rule="nonzero"></path>
            <path d="M188.430273,178 L227.5,157.5" id="Path-21" stroke="#000000" fill-rule="nonzero"></path>
            <path d="M132.430273,248 L239.430273,194" id="Path-22" stroke="#000000" fill-rule="nonzero"></path>
            <path d="M158.004062,127 C160.530096,127 162.430273,124.57619 162.430273,122.090909 C162.430273,119.605628 160.530096,118 158.004062,118 C155.478028,118 153.430273,120.014719 153.430273,122.5 C153.430273,124.985281 155.478028,127 158.004062,127 Z" id="Oval" fill="#FFFFFF" fill-rule="nonzero"></path>
            <g id="cube(1)" transform="translate(267.430273, 91.000000)">
                <g id="cube(2)">
                    <polygon id="Path" fill="#FFFFFF" points="12.3328968 0.776119403 0.776119403 5.55302429 0.776119403 21.0162191 13.0968115 25.4179104 25.4179104 21.0162191 25.4179104 5.55302429"></polygon>
                    <g id="Group" fill="#000000">
                        <path d="M13.0004078,26 L0.0389490196,21.3699688 L0.0389490196,5.03496094 L12.2204078,0 L25.961051,5.01627344 L25.961051,21.3699688 L13.0004078,26 Z M1.26212157,20.5122227 L13.0004078,24.706043 L24.7386941,20.5122227 L24.7386941,5.86751953 L12.2481412,1.30655078 L1.26212157,5.84842578 L1.26212157,20.5122227 Z" id="Shape" fill-rule="nonzero"></path>
                        <polygon id="Path" points="13.0004078 10.762375 0.443784314 6.27651172 0.857235294 5.12916016 13.0004078 9.46755469 25.1439882 5.12916016 25.5574392 6.27651172"></polygon>
                        <rect id="Rectangle" x="12.3887961" y="10.1149648" width="1.22322353" height="15.2384375"></rect>
                    </g>
                </g>
            </g>
            <g id="cube(1)" transform="translate(45.430273, 138.000000)">
                <g id="cube(2)">
                    <polygon id="Path" fill="#FFFFFF" points="12.3328968 0.776119403 0.776119403 5.55302429 0.776119403 21.0162191 13.0968115 25.4179104 25.4179104 21.0162191 25.4179104 5.55302429"></polygon>
                    <g id="Group" fill="#000000">
                        <path d="M13.0004078,26 L0.0389490196,21.3699688 L0.0389490196,5.03496094 L12.2204078,0 L25.961051,5.01627344 L25.961051,21.3699688 L13.0004078,26 Z M1.26212157,20.5122227 L13.0004078,24.706043 L24.7386941,20.5122227 L24.7386941,5.86751953 L12.2481412,1.30655078 L1.26212157,5.84842578 L1.26212157,20.5122227 Z" id="Shape" fill-rule="nonzero"></path>
                        <polygon id="Path" points="13.0004078 10.762375 0.443784314 6.27651172 0.857235294 5.12916016 13.0004078 9.46755469 25.1439882 5.12916016 25.5574392 6.27651172"></polygon>
                        <rect id="Rectangle" x="12.3887961" y="10.1149648" width="1.22322353" height="15.2384375"></rect>
                    </g>
                </g>
            </g>
            <g id="cube(1)" transform="translate(65.430273, 189.000000)">
                <g id="cube(2)">
                    <polygon id="Path" fill="#FFFFFF" points="12.3328968 0.776119403 0.776119403 5.55302429 0.776119403 21.0162191 13.0968115 25.4179104 25.4179104 21.0162191 25.4179104 5.55302429"></polygon>
                    <g id="Group" fill="#000000">
                        <path d="M13.0004078,26 L0.0389490196,21.3699687 L0.0389490196,5.03496094 L12.2204078,0 L25.961051,5.01627344 L25.961051,21.3699687 L13.0004078,26 Z M1.26212157,20.5122227 L13.0004078,24.706043 L24.7386941,20.5122227 L24.7386941,5.86751953 L12.2481412,1.30655078 L1.26212157,5.84842578 L1.26212157,20.5122227 Z" id="Shape" fill-rule="nonzero"></path>
                        <polygon id="Path" points="13.0004078 10.762375 0.443784314 6.27651172 0.857235294 5.12916016 13.0004078 9.46755469 25.1439882 5.12916016 25.5574392 6.27651172"></polygon>
                        <rect id="Rectangle" x="12.3887961" y="10.1149648" width="1.22322353" height="15.2384375"></rect>
                    </g>
                </g>
            </g>
            <g id="cube(1)" transform="translate(264.430273, 13.000000)">
                <g id="cube(2)">
                    <polygon id="Path" fill="#FFFFFF" points="12.3328968 0.776119403 0.776119403 5.55302429 0.776119403 21.0162191 13.0968115 25.4179104 25.4179104 21.0162191 25.4179104 5.55302429"></polygon>
                    <g id="Group" fill="#000000">
                        <path d="M13.0004078,26 L0.0389490196,21.3699688 L0.0389490196,5.03496094 L12.2204078,0 L25.961051,5.01627344 L25.961051,21.3699688 L13.0004078,26 Z M1.26212157,20.5122227 L13.0004078,24.706043 L24.7386941,20.5122227 L24.7386941,5.86751953 L12.2481412,1.30655078 L1.26212157,5.84842578 L1.26212157,20.5122227 Z" id="Shape" fill-rule="nonzero"></path>
                        <polygon id="Path" points="13.0004078 10.762375 0.443784314 6.27651172 0.857235294 5.12916016 13.0004078 9.46755469 25.1439882 5.12916016 25.5574392 6.27651172"></polygon>
                        <rect id="Rectangle" x="12.3887961" y="10.1149648" width="1.22322353" height="15.2384375"></rect>
                    </g>
                </g>
            </g>
            <path d="M16.6282383,46.5288667 L71.8248225,132.309596" id="Line" stroke="#000000" stroke-width="2" stroke-linecap="square" fill-rule="nonzero" transform="translate(44.628238, 89.528867) scale(-1, -1) rotate(-26.000000) translate(-44.628238, -89.528867) "></path>
            <path d="M285.114851,143.95312 L333.419538,224.441389" id="Line" stroke="#000000" stroke-width="2" stroke-linecap="square" fill-rule="nonzero" transform="translate(309.222421, 183.965132) scale(-1, -1) rotate(-26.000000) translate(-309.222421, -183.965132) "></path>
            <path d="M50.7215112,33.718931 L83.3187594,86.2074935" id="Line" stroke="#000000" stroke-width="2" stroke-linecap="square" fill-rule="nonzero" transform="translate(67.020135, 59.963212) scale(-1, -1) rotate(-26.000000) translate(-67.020135, -59.963212) "></path>
            <path d="M269.099305,184.304804 L301.696553,236.793367" id="Line" stroke="#000000" stroke-width="2" stroke-linecap="square" fill-rule="nonzero" transform="translate(285.397929, 210.549085) scale(-1, -1) rotate(-26.000000) translate(-285.397929, -210.549085) "></path>
            <polygon id="Path-23" stroke="#000000" fill="#000000" fill-rule="nonzero" points="266.430273 18.6176701 277.83266 22 289.430273 18.6176701 277.930273 14"></polygon>
            <polygon id="Path-23" stroke="#000000" fill="#000000" fill-rule="nonzero" points="67.4302732 194 77.8919712 198 89.4302732 194.61767 77.9890849 190"></polygon>
            <ellipse id="Oval" stroke="#000000" fill="#000000" fill-rule="nonzero" transform="translate(158.422398, 123.158798) rotate(12.000000) translate(-158.422398, -123.158798) " cx="158.422398" cy="123.158798" rx="3.49578358" ry="5.25278784"></ellipse>
            <ellipse id="Oval" stroke="#000000" fill="#000000" fill-rule="nonzero" transform="translate(211.320897, 133.066619) rotate(12.000000) translate(-211.320897, -133.066619) " cx="211.320897" cy="133.066619" rx="3.49578358" ry="5.25278784"></ellipse>
            <path d="M271.619484,32 C273.933121,32 275.430273,30.6967304 275.430273,29.0398762 C275.430273,27.3830219 273.933121,26 271.619484,26 C269.305847,26 267.430273,27.3431458 267.430273,29 C267.430273,30.6568542 269.305847,32 271.619484,32 Z" id="Oval" stroke="#000000" stroke-width="1.2" fill="#FFFFFF" fill-rule="nonzero" transform="translate(271.430273, 29.000000) rotate(-90.000000) translate(-271.430273, -29.000000) "></path>
            <path d="M84.4733052,208.045506 C86.729787,208.046025 88.1896624,206.780888 88.1892922,205.172085 C88.188922,203.563282 86.7284463,202.220034 84.4719645,202.219516 C82.2154827,202.218998 80.386543,203.52277 80.3869132,205.131573 C80.3872834,206.740376 82.2168235,208.044988 84.4733052,208.045506 Z" id="Oval" stroke="#000000" stroke-width="1.2" fill="#FFFFFF" fill-rule="nonzero" transform="translate(84.288103, 205.132511) scale(-1, 1) rotate(-97.000000) translate(-84.288103, -205.132511) "></path>
            <polyline id="Path-20" stroke="#000000" fill-rule="nonzero" points="84.4302732 205 158.430273 170.485842 158.430273 128"></polyline>
            <polyline id="Path-19" stroke="#000000" fill-rule="nonzero" points="272.430273 28 211.430273 59.3112521 211.430273 128"></polyline>
            <ellipse id="Oval" stroke="#000000" fill="#000000" fill-rule="nonzero" transform="translate(190.930506, 229.959323) rotate(41.000000) translate(-190.930506, -229.959323) " cx="190.930506" cy="229.959323" rx="4.08142064" ry="5.24892667"></ellipse>
        </g>
    </g>
</svg>