<?xml version="1.0" encoding="UTF-8"?>
<svg width="1333px" height="1041px" viewBox="0 0 1333 1041" version="1.1" xmlns="http://www.w3.org/2000/svg" xmlns:xlink="http://www.w3.org/1999/xlink">
    <!-- Generator: Sketch 52.2 (67145) - http://www.bohemiancoding.com/sketch -->
    <title>Top_and_Bottom</title>
    <desc>Created with Sketch.</desc>
    <defs>
        <polygon id="path-1" points="0 1333.3333 1333.3333 1333.3333 1333.3333 0 0 0"></polygon>
    </defs>
    <g id="Page-1" stroke="none" stroke-width="1" fill="none" fill-rule="evenodd">
        <g id="Top_and_Bottom" transform="translate(0.000000, -149.000000)">
            <g id="g18" transform="translate(666.666650, 666.666650) scale(-1, 1) rotate(-180.000000) translate(-666.666650, -666.666650) ">
                <g id="g20" transform="translate(439.999989, 147.866663)" fill="#FFFFFF">
                    <polygon id="path22" points="0 826.666646 3.86666657 31.1999992 60.9333318 0 64.7999984 795.733313"></polygon>
                </g>
                <g id="g24" transform="translate(444.533322, 946.799976)" fill="#000000">
                    <polygon id="path26" points="0 33.3333325 407.99999 233.333327 462.133322 204.399995 59.0666652 1.06666664"></polygon>
                </g>
                <g id="g28" transform="translate(435.199989, 942.533310)" fill="#000000" fill-rule="nonzero">
                    <path d="M17.3333329,37.3333324 L68.3999983,9.46666643 L463.066655,208.666661 L417.333323,233.066661 L17.3333329,37.3333324 Z M68.3999983,0.66666665 L0.93333331,37.5999991 L417.733323,241.733327 L479.866655,208.533328 L68.3999983,0.66666665 Z" id="path30"></path>
                </g>
                <g id="g32" transform="translate(500.933321, 147.066663)" fill="#FFFFFF">
                    <polygon id="path34" points="0 799.99998 0 0.79999998 409.866656 207.999995 409.866656 998.133308"></polygon>
                </g>
                <g id="g36" transform="translate(435.066656, 142.666663)" fill="#000000" fill-rule="nonzero">
                    <path d="M471.999988,214.666661 L70.1333316,10.7999997 L70.1333316,801.733313 L73.5999982,803.19998 L472.399988,996.399975 L471.999988,214.666661 Z M62.1333318,11.1999997 L12.533333,38.6666657 L8.66666645,825.733313 L61.9999985,800.533313 L65.866665,798.666647 L62.1333318,11.1999997 Z M64.3999984,807.866646 L1.19999997,837.999979 L5.06666654,34.5333325 L62.2666651,2.93333326 L66.1333317,1.06666664 L69.9999982,2.93333326 L477.333321,209.333328 L479.199988,210.533328 L479.599988,1002.93331 L479.599988,1009.06664 L64.3999984,807.866646 Z" id="path38"></path>
                </g>
                <g id="g40" transform="translate(499.866654, 863.599978)" fill="#000000">
                    <polygon id="path42" points="411.99999 213.333328 413.733323 209.999995 1.73333329 0.53333332 0.66666665 4.26666656"></polygon>
                </g>
                <g id="g44" transform="translate(556.133319, 324.933325)" fill="#000000">
                    <polygon id="path46" points="2.6666666 0 1.19999997 3.46666658 159.999996 84.5333312 159.999996 596.266652 163.866663 596.266652 163.866663 82.2666646"></polygon>
                </g>
                <g id="g48" transform="translate(560.075986, 778.279314)" fill="#000000">
                    <polygon id="path50" points="2.6666666 0 0.905333311 3.44266658 157.242663 83.4106646 159.003996 79.967998"></polygon>
                </g>
                <g id="g52" transform="translate(716.478382, 500.432387)" fill="#000000">
                    <polygon id="path54" points="2.6666666 0 0.867999978 3.42266658 149.598663 81.559998 151.39733 78.1373314"></polygon>
                </g>
                <g id="g56" transform="translate(499.110521, 231.477461)" fill="#000000">
                    <polygon id="path58" points="2.6666666 0 0.922666644 3.45066658 412.305323 211.378661 414.049323 207.926661"></polygon>
                </g>
                <g id="g60" transform="translate(1020.707041, 735.866648)" fill="#FFFFFF">
                    <polygon id="path62" points="45.3333322 94.6666643 1.06666664 76.2666648 1.06666664 17.3333329 48.3999988 0.53333332 95.1999976 17.3333329 95.1999976 76.2666648"></polygon>
                </g>
                <g id="g64" transform="translate(1018.440375, 733.733315)" fill="#000000" fill-rule="nonzero">
                    <path d="M5.3333332,21.3333328 L49.8666654,5.3333332 L94.3999976,21.3333328 L94.3999976,77.3333314 L47.1999988,94.533331 L5.3333332,77.3333314 L5.3333332,21.3333328 Z M50.2666654,0.79999998 L0.66666665,18.2666662 L0.66666665,80.399998 L47.1999988,99.4666642 L99.3333308,80.399998 L99.3333308,17.8666662 L50.2666654,0.79999998 Z" id="path66"></path>
                </g>
                <g id="g68" transform="translate(1020.707041, 792.399980)" fill="#000000">
                    <polygon id="path70" points="47.9999988 0 0 17.0666662 1.46666663 21.3333328 47.9999988 4.93333321 94.133331 21.3333328 95.5999976 17.0666662"></polygon>
                </g>
                <polygon id="path72" fill="#000000" points="1066.43997 794.666647 1070.97331 794.666647 1070.97331 736.799982 1066.43997 736.799982"></polygon>
                <g id="g74" transform="translate(174.973729, 556.799986)" fill="#FFFFFF">
                    <polygon id="path76" points="45.3333322 94.6666643 1.19999997 76.3999981 1.19999997 17.3333329 48.3999988 0.53333332 95.1999976 17.3333329 95.1999976 76.3999981"></polygon>
                </g>
                <g id="g78" transform="translate(172.707062, 554.666653)" fill="#000000" fill-rule="nonzero">
                    <path d="M5.3333332,21.3333328 L49.8666654,5.3333332 L94.3999976,21.3333328 L94.3999976,77.3333314 L47.1999988,94.533331 L5.3333332,77.3333314 L5.3333332,21.3333328 Z M50.2666654,0.79999998 L0.79999998,18.2666662 L0.79999998,80.399998 L47.3333321,99.4666642 L99.4666642,80.399998 L99.4666642,17.8666662 L50.2666654,0.79999998 Z" id="path80"></path>
                </g>
                <g id="g82" transform="translate(174.973729, 613.333318)" fill="#000000">
                    <polygon id="path84" points="47.9999988 0 0 17.1999996 1.46666663 21.3333328 47.9999988 4.93333321 94.133331 21.3333328 95.5999976 17.1999996"></polygon>
                </g>
                <polygon id="path86" fill="#000000" points="220.706661 615.599985 225.239994 615.599985 225.239994 557.733319 220.706661 557.733319"></polygon>
                <g id="g88" transform="translate(251.107060, 362.533324)" fill="#FFFFFF">
                    <polygon id="path90" points="45.3333322 94.6666643 1.19999997 76.2666648 1.19999997 17.3333329 48.3999988 0.53333332 95.3333309 17.3333329 95.3333309 76.2666648"></polygon>
                </g>
                <g id="g92" transform="translate(248.840394, 360.399991)" fill="#000000" fill-rule="nonzero">
                    <path d="M5.3333332,21.3333328 L49.8666654,5.3333332 L94.3999976,21.3333328 L94.3999976,77.3333314 L47.1999988,94.533331 L5.3333332,77.3333314 L5.3333332,21.3333328 Z M50.2666654,0.79999998 L0.79999998,18.2666662 L0.79999998,80.399998 L47.3333322,99.4666642 L99.4666642,80.399998 L99.4666642,17.8666662 L50.2666654,0.79999998 Z" id="path94"></path>
                </g>
                <g id="g96" transform="translate(251.107060, 419.066656)" fill="#000000">
                    <polygon id="path98" points="47.9999988 0 0 17.0666662 1.59999996 21.3333328 47.9999988 4.93333321 94.133331 21.3333328 95.7333309 17.0666662"></polygon>
                </g>
                <polygon id="path100" fill="#000000" points="296.839993 421.333323 301.373326 421.333323 301.373326 363.466658 296.839993 363.466658"></polygon>
                <g id="g102" transform="translate(1009.240375, 1032.933308)" fill="#FFFFFF">
                    <polygon id="path104" points="45.3333322 94.6666643 1.19999997 76.3999981 1.19999997 17.3333329 48.3999988 0.53333332 95.1999976 17.3333329 95.1999976 76.3999981"></polygon>
                </g>
                <g id="g106">
                    <g id="g108-Clipped">
                        <mask id="mask-2" fill="white">
                            <use xlink:href="#path-1"></use>
                        </mask>
                        <g id="path110"></g>
                        <g id="g108" mask="url(#mask-2)">
                            <g transform="translate(-1.333333, 282.666660)">
                                <g id="g114" stroke-width="1" fill="none" transform="translate(1008.306908, 748.133315)">
                                    <path d="M5.3333332,21.3333328 L49.8666654,5.3333332 L94.3999976,21.3333328 L94.3999976,77.3333314 L47.1999988,94.533331 L5.3333332,77.3333314 C5.3333332,77.3333314 5.3333332,21.3333328 5.3333332,21.3333328 Z M50.2666654,0.79999998 L0.79999998,18.2666662 L0.79999998,80.399998 L47.3333321,99.4666642 L99.4666642,80.399998 L99.4666642,17.8666662 L50.2666654,0.79999998 Z" id="path116" fill="#000000" fill-rule="nonzero"></path>
                                </g>
                                <g id="g118" stroke-width="1" fill="none" transform="translate(1010.573708, 806.799980)">
                                    <polygon id="path120" fill="#000000" points="47.9999988 0 0 17.1999996 1.59999996 21.3333328 47.9999988 5.06666654 94.133331 21.3333328 95.5999976 17.1999996"></polygon>
                                </g>
                                <polygon id="path122" fill="#000000" points="1056.30664 809.19998 1060.83997 809.19998 1060.83997 751.333315 1056.30664 751.333315"></polygon>
                                <g id="g124" stroke-width="1" fill="none" transform="translate(0.526533, 450.586255)">
                                    <polygon id="path126" fill="#000000" points="339.999991 0 1.3053333 205.434662 5.24799987 211.933328 343.941325 6.49733317"></polygon>
                                </g>
                                <g id="g128" stroke-width="1" fill="none" transform="translate(1023.521174, 94.542264)">
                                    <polygon id="path130" fill="#000000" points="306.666659 0 0.370666657 199.142662 4.51333322 205.514662 310.809326 6.37199984"></polygon>
                                </g>
                                <g id="g132" stroke-width="1" fill="none" transform="translate(151.140796, 601.062918)">
                                    <polygon id="path134" fill="#000000" points="206.666662 0 0.886666644 129.383997 4.93199988 135.818663 210.711995 6.43466651"></polygon>
                                </g>
                                <g id="g136" stroke-width="1" fill="none" transform="translate(983.109709, 27.206399)">
                                    <polygon id="path138" fill="#000000" points="206.666662 0 0.886666644 129.383997 4.93199988 135.818663 210.711995 6.43466651"></polygon>
                                </g>
                                <g id="g140" stroke-width="1" fill="none" transform="translate(1016.533308, 811.599980)">
                                    <polygon id="path142" fill="#000000" points="0 14.6666663 41.9999989 0.26666666 85.7333312 14.2666663 43.8666656 32.5333325"></polygon>
                                </g>
                                <g id="g144" stroke-width="1" fill="none" transform="translate(1011.199975, 809.333313)">
                                    <path d="M10.6666664,17.3333329 L47.1999988,4.39999989 L85.7333312,16.5333329 L49.1999988,32.5333325 L10.6666664,17.3333329 Z M47.3333321,0.53333332 L0.13333333,16.9333329 L49.3333321,36.7999991 L96.5333309,16.2666663 L47.3333321,0.53333332 Z" id="path146" fill="#000000" fill-rule="nonzero"></path>
                                </g>
                                <g id="g148" stroke-width="1" fill="none" transform="translate(254.666660, 139.866663)">
                                    <polygon id="path150" fill="#000000" points="0 17.3333329 45.7333322 0.66666665 87.5999978 15.9999996 44.1333322 33.8666658"></polygon>
                                </g>
                                <g id="g152" stroke-width="1" fill="none" transform="translate(252.799994, 138.133330)">
                                    <path d="M10.6666664,19.9999995 L47.5999988,4.39999989 L84.1333312,17.7333329 L45.5999989,33.3333325 L10.6666664,19.9999995 Z M47.5999988,0.53333332 L0.79999998,20.3999995 L46.1333322,37.5999991 L94.933331,17.7333329 L47.5999988,0.53333332 Z" id="path154" fill="#000000" fill-rule="nonzero"></path>
                                </g>
                                <g id="g156" stroke-width="1" fill="none" transform="translate(590.233452, 407.203056)">
                                    <path d="M10.6666664,1.3333333 C3.46399991,2.86399993 -0.501333321,12.921333 1.81066662,23.7973327 C4.12266656,34.6733325 11.8359997,42.2493323 19.0386662,40.7186656 C26.2399993,39.1866657 30.2053326,29.1293326 27.8933326,18.2533329 C25.5813327,7.37733315 17.8693329,-0.197333328 10.6666664,1.3333333" id="path158" fill="#000000"></path>
                                </g>
                                <g id="g160" stroke-width="1" fill="none" transform="translate(588.799985, 406.133323)">
                                    <path d="M18.6666662,39.999999 C12.933333,39.999999 7.19999982,33.4666658 5.3333332,24.3999994 C4.13333323,19.4666662 4.53333322,14.933333 6.13333318,10.6666664 C7.59999981,7.19999982 9.99999975,4.53333322 12.6666663,4.13333323 C18.7999995,2.93333326 25.5999994,9.86666642 27.466666,19.3333329 C29.3333326,28.7999993 25.9999993,37.999999 20.2666662,39.4666657 C19.3333328,39.999999 19.0666662,39.999999 18.6666662,39.999999 M13.9999996,0.39999999 C13.1999997,0.39999999 12.533333,0.39999999 11.733333,0.79999998 C7.59999981,1.59999996 4.13333323,4.93333321 2.26666661,9.59999976 C0.39999999,14.133333 3.33066907e-16,19.8666662 1.06666664,25.1999994 C3.33333325,35.8666658 10.5333331,43.8666656 18.2666662,43.8666656 C19.0666662,43.8666656 19.7333328,43.8666656 20.5333328,43.4666656 C28.9333326,41.599999 33.4666658,30.5333326 30.7999992,18.6666662 C28.9333326,7.9999998 21.7333328,0.39999999 13.9999996,0.39999999" id="path162" fill="#000000" fill-rule="nonzero"></path>
                                </g>
                                <g id="g164" stroke-width="1" fill="none" transform="translate(791.745447, 369.446124)">
                                    <path d="M10.6666664,1.3333333 C3.46399991,2.86399993 -0.499999987,12.921333 1.81066662,23.7973327 C4.12266656,34.6733325 11.8359997,42.2493323 19.0386662,40.7186656 C26.2399993,39.1866657 30.2053326,29.1293326 27.8933326,18.2533329 C25.582666,7.37733315 17.8693329,-0.197333328 10.6666664,1.3333333" id="path166" fill="#000000"></path>
                                </g>
                                <g id="g168" stroke-width="1" fill="none" transform="translate(790.266647, 368.399991)">
                                    <path d="M18.6666662,39.999999 C12.933333,39.999999 7.19999982,33.4666658 5.3333332,24.3999994 C4.13333323,19.4666662 4.53333322,14.933333 6.13333318,10.6666664 C7.59999981,7.19999982 9.99999975,4.53333322 12.6666664,4.13333323 C18.7999995,2.93333326 25.5999994,9.86666642 27.466666,19.3333329 C28.666666,24.2666661 28.266666,28.7999993 26.666666,33.0666658 C25.1999994,36.5333324 22.7999994,39.199999 20.1333328,39.599999 C19.4666662,39.999999 19.0666662,39.999999 18.6666662,39.999999 M14.133333,0.39999999 C13.333333,0.39999999 12.6666664,0.39999999 11.8666664,0.79999998 C7.73333314,1.59999996 4.26666656,4.93333321 2.39999994,9.59999976 C0.53333332,14.2666663 0.13333333,19.8666662 1.19999997,25.1999994 C3.46666658,35.8666658 10.6666664,43.8666656 18.3999995,43.8666656 C19.1999995,43.8666656 19.8666662,43.8666656 20.6666662,43.4666656 C24.7999994,42.6666656 28.266666,39.3333324 30.1333326,34.6666658 C31.9999992,30.1333326 32.3999992,24.3999994 31.3333326,19.0666662 C28.9333326,7.9999998 21.7333328,0.39999999 14.133333,0.39999999" id="path170" fill="#000000" fill-rule="nonzero"></path>
                                </g>
                                <g id="g172" stroke-width="1" fill="none" transform="translate(1023.066641, 771.466647)">
                                    <path d="M23.9999994,15.9999996 C23.9999994,24.7999994 19.0666662,30.5333326 12.533333,30.5333326 C5.99999985,30.5333326 1.06666664,24.7999994 1.06666664,15.9999996 C1.06666664,7.19999982 5.99999985,0 12.533333,0 C19.0666662,0 23.9999994,7.19999982 23.9999994,15.9999996" id="path174" fill="#FFFFFF"></path>
                                </g>
                                <g id="g176" stroke-width="1" fill="none" transform="translate(1020.933308, 769.333314)">
                                    <path d="M14.6666663,30.6666659 C9.3333331,30.6666659 5.46666653,25.3333327 5.46666653,18.5333329 C5.46666653,11.3333331 9.59999976,4.79999988 14.6666663,4.79999988 C19.7333328,4.79999988 23.8666661,10.9333331 23.8666661,18.5333329 C23.8666661,25.3333327 19.9999995,30.6666659 14.6666663,30.6666659 M14.6666663,0.13333333 C7.06666649,0.13333333 0.93333331,8.13333313 0.93333331,18.3999995 C0.93333331,27.866666 7.06666649,35.1999991 14.6666663,35.1999991 C22.6666661,35.1999991 28.3999993,27.9999993 28.3999993,18.3999995 C28.3999993,8.13333313 22.2666661,0.13333333 14.6666663,0.13333333" id="path178" fill="#000000" fill-rule="nonzero"></path>
                                </g>
                                <g id="g180" stroke-width="1" fill="none" transform="translate(310.533326, 100.799997)">
                                    <path d="M1.3333333,17.3333329 C2.53333327,25.7333327 7.86666647,30.6666659 13.8666663,29.8666659 C19.9999995,29.0666659 24.5333327,23.0666661 23.3333328,14.6666663 C22.1333328,6.26666651 16.5333329,-0.13333333 10.3999997,0.53333332 C4.26666656,0.93333331 0.13333333,8.53333312 1.3333333,17.3333329" id="path182" fill="#FFFFFF"></path>
                                </g>
                                <g id="g184" stroke-width="1" fill="none" transform="translate(308.533326, 97.733331)">
                                    <path d="M14.6666663,30.6666659 C10.1333331,30.6666659 6.26666651,26.5333327 5.46666653,19.9999995 C4.66666655,12.7999997 7.73333314,6.26666651 12.6666663,5.86666652 C17.5999996,5.06666654 22.1333328,10.7999997 22.9333328,17.9999995 C23.3333327,21.4666661 22.9333328,24.7999994 21.4666661,27.1999993 C19.9999995,29.4666659 17.9999995,30.6666659 15.7333329,31.0666659 C15.0666663,30.6666659 15.0666663,30.6666659 14.6666663,30.6666659 M13.1999997,0.93333331 L11.9999997,0.93333331 C4.79999988,1.73333329 -0.13333333,10.3999997 0.93333331,20.3999995 C2.13333328,29.8666659 8.53333312,35.9999991 16.1333329,35.1999991 C19.9999995,34.7999991 22.9333328,32.5333325 25.3333327,29.4666659 C27.5999993,25.9999994 28.3999993,21.8666661 27.5999993,17.3333329 C26.5333327,8.13333313 20.3999995,0.93333331 13.1999997,0.93333331" id="path186" fill="#000000" fill-rule="nonzero"></path>
                                </g>
                                <g id="g188" stroke-width="1" fill="none" transform="translate(321.333325, 114.666664)">
                                    <polygon id="path190" fill="#000000" points="2.6666666 0 1.19999997 3.46666658 281.86666 134.53333 281.86666 295.199993 285.733326 295.199993 285.733326 131.866663"></polygon>
                                </g>
                                <g id="g192" stroke-width="1" fill="none" transform="translate(804.933313, 409.866656)">
                                    <polygon id="path194" fill="#000000" points="3.9999999 0 0.26666666 0 0.26666666 262.533327 1.3333333 263.333327 233.733327 382.533324 235.199994 379.066657 3.9999999 260.26666"></polygon>
                                </g>
                                <g id="g196" stroke-width="1" fill="none" transform="translate(710.577716, 2.284933)">
                                    <path d="M5.3333332,3.9999999 C-1.1693333,9.65333309 -0.603999985,20.9479995 6.5946665,29.2279993 C13.793333,37.5093324 24.8999994,39.639999 31.4026659,33.9866658 C37.9039991,28.334666 37.3399991,17.0386662 30.1413326,8.75866645 C22.9426661,0.477333321 11.8359997,-1.65333329 5.3333332,3.9999999" id="path198" fill="#000000"></path>
                                </g>
                                <g id="g200" stroke-width="1" fill="none" transform="translate(709.199982, 0.400000)">
                                    <path d="M23.9999994,37.3333324 C19.0666662,37.3333324 13.333333,34.6666658 9.46666643,30.1333326 C2.93333326,22.5333328 2.26666661,12.6666663 7.9999998,7.59999981 C9.86666642,5.73333319 12.533333,4.93333321 15.5999996,4.93333321 C20.5333328,4.93333321 26.266666,7.59999981 30.1333326,12.133333 C33.1999992,15.9999996 35.0666658,20.1333328 35.4666658,24.666666 C35.8666658,28.7999993 34.2666658,32.2666659 31.5999992,34.5333325 C29.5999993,36.1333324 26.9333327,37.3333324 23.9999994,37.3333324 M15.5999996,0.79999998 C11.733333,0.79999998 8.39999979,1.99999995 5.73333319,4.26666656 C-1.46666663,10.7999997 -1.06666664,23.3333327 6.93333316,32.1333325 C11.4666664,37.4666657 18.3999995,40.9333323 24.3999994,40.9333323 C28.266666,40.9333323 31.5999992,39.7333323 34.2666658,37.4666657 C37.7333324,34.3999991 39.599999,29.8666659 39.199999,24.1333327 C38.799999,18.7999995 36.5333324,13.8666663 32.6666658,9.3333331 C28.1333326,4.13333323 21.5999995,0.79999998 15.5999996,0.79999998" id="path202" fill="#000000" fill-rule="nonzero"></path>
                                </g>
                            </g>
                        </g>
                    </g>
                </g>
            </g>
        </g>
    </g>
</svg>