<?xml version="1.0" encoding="UTF-8"?>
<svg width="533px" height="481px" viewBox="0 0 533 481" version="1.1" xmlns="http://www.w3.org/2000/svg" xmlns:xlink="http://www.w3.org/1999/xlink">
    <!-- Generator: Sketch 52.2 (67145) - http://www.bohemiancoding.com/sketch -->
    <title>Group 4</title>
    <desc>Created with Sketch.</desc>
    <g id="Page-1" stroke="none" stroke-width="1" fill="none" fill-rule="evenodd">
        <g id="Group-4" transform="translate(2.000000, 1.000000)">
            <polygon id="Path-14" stroke="#000000" stroke-width="2" fill="#FFFFFF" fill-rule="nonzero" points="1 80.3344512 506 0.334451196 526.587541 7.63368261 16 90.3344512"></polygon>
            <path d="M16.1324232,91.2926522 L19.1144543,477.962687 L528.820564,375.41325 L528.820564,9.30538136 L16.1324232,91.2926522 Z" id="Rectangle" stroke="#000000" stroke-width="2.25" fill="#FFFFFF" fill-rule="nonzero"></path>
            <g id="Group-3" transform="translate(393.548612, 82.834451)" fill="#FFFFFF" fill-rule="nonzero" stroke="#000000">
                <g id="Group-2">
                    <path d="M1.49814099,19.9258784 L0.502669588,247.391093 L118.517086,224.088896 L119.001559,0.906825039 L1.49814099,19.9258784 Z" id="Rectangle"></path>
                    <path d="M23.5,67.9215234 L23.5,88.143472 L103.61422,74.3402424 L104.088321,54.095503 L23.5,67.9215234 Z" id="Rectangle"></path>
                </g>
            </g>
            <text id="Main-Title" transform="translate(458.990925, 122.991894) rotate(-9.000000) translate(-458.990925, -122.991894) " font-family="SpaceMono-BoldItalic, Space Mono" font-size="10" font-style="italic" font-weight="bold" fill="#000000">
                <tspan x="431.450925" y="121.491894">Formalize</tspan>
            </text>
            <ellipse id="Oval" stroke="#000000" fill="#000000" fill-rule="nonzero" transform="translate(408.216890, 125.524371) rotate(12.000000) translate(-408.216890, -125.524371) " cx="408.21689" cy="125.524371" rx="2.54439408" ry="3.81726369"></ellipse>
            <polygon id="Rectangle" fill="#000000" fill-rule="nonzero" points="16.3349957 91.0514716 527.907909 8.69378277 527.877044 44.5892343 16.3349957 131.289131"></polygon>
            <path d="M506,34.518547 L515,23.3344512 L506,34.518547 Z" id="Line" stroke="#FFFFFF" stroke-linecap="square" fill-rule="nonzero"></path>
            <path d="M513,34.518547 L520,26.3344512 L513,34.518547 Z" id="Line" stroke="#FFFFFF" stroke-linecap="square" fill-rule="nonzero"></path>
            <path d="M500.351128,33.3446559 L507,25.3344512 L500.351128,33.3446559 Z" id="Line" stroke="#FFFFFF" stroke-linecap="square" fill-rule="nonzero"></path>
            <g id="Group-10" transform="translate(120.586824, 104.826855) rotate(-10.000000) translate(-120.586824, -104.826855) translate(53.086824, 97.326855)" fill="#FFFFFF" font-family="OpenSans-BoldItalic, Open Sans" font-size="10" font-style="italic" font-weight="bold" letter-spacing="0.4">
                <text id="Main-Title">
                    <tspan x="4.96464844" y="11">Home</tspan>
                </text>
                <text id="Main-Title">
                    <tspan x="48.4667815" y="11.9848078">View</tspan>
                </text>
                <text id="Main-Title">
                    <tspan x="86.0799651" y="11.9848078">layout</tspan>
                </text>
            </g>
            <text id="Main-Title" transform="translate(285.500000, 69.334451) rotate(-9.000000) translate(-285.500000, -69.334451) " font-family="SpaceMono-BoldItalic, Space Mono" font-size="15" font-style="italic" font-weight="bold" letter-spacing="1.3" fill="#FFFFFF">
                <tspan x="243.58" y="75.3344512">COMPLETE </tspan>
            </text>
            <ellipse id="Oval" stroke="#000000" fill="#FFFFFF" fill-rule="nonzero" cx="34.5" cy="108.334451" rx="3.5" ry="4"></ellipse>
            <ellipse id="Oval" stroke="#000000" fill="#FFFFFF" fill-rule="nonzero" cx="45.5" cy="99.3344512" rx="3.5" ry="4"></ellipse>
            <ellipse id="Oval" stroke="#000000" fill="#FFFFFF" fill-rule="nonzero" cx="59.5" cy="100.334451" rx="3.5" ry="4"></ellipse>
            <path d="M46.5014018,155.755186 L47.4979691,455.459841 L369.502167,389.92552 L371.045445,99.648362 L46.5014018,155.755186 Z" id="Rectangle" stroke="#000000" fill="#FFFFFF" fill-rule="nonzero"></path>
            <g id="Group-5" transform="translate(274.000000, 375.334451)" fill="#000000" fill-rule="nonzero">
                <path d="M8.97601618,17.0877894 C6.21806071,17.0877894 3.46010524,16.6660608 0.843583381,15.7623566 L1.33860103,14.6176647 C5.51089264,16.0033444 10.0367683,16.2443322 14.2090599,15.2803811 C15.9769801,14.8586525 17.3205994,14.256183 18.1692011,13.5332197 C17.3913162,13.4127258 16.6134313,13.171738 15.8355465,12.7500094 C14.7040775,12.14754 14.0676263,11.3643297 13.9261927,10.5208725 C13.7847591,9.55692136 14.3504935,8.71346414 15.4112456,8.11099469 C16.6841481,7.50852524 18.2399179,7.50852524 19.2299532,8.17124163 C20.7857229,9.13519275 21.0685902,10.9426011 20.5735725,12.3885278 C22.4122095,12.2077869 24.4629969,11.6053175 26.3723507,11.002848 C27.008802,10.8221072 27.5745364,10.6413664 28.2109877,10.4606255 C33.3025978,9.01469886 39.1013759,8.89420497 44.5465701,10.2196377 L44.192986,11.3643297 C39.0306591,10.0991439 33.5147482,10.2196377 28.6352885,11.6053175 C28.0695541,11.7860583 27.4331028,11.9667991 26.8673683,12.14754 C24.6044305,12.8705033 22.2000591,13.5934666 19.8664045,13.6537136 C18.8056523,14.9188994 17.0377322,15.8828505 14.5626439,16.48532 C12.7240069,16.8468017 10.88537,17.0877894 8.97601618,17.0877894 Z M17.3913162,8.83395802 C16.9670154,8.83395802 16.4719977,8.95445191 16.1184137,9.13519275 C15.8355465,9.25568664 15.1990952,9.67741525 15.269812,10.3401316 C15.3405288,10.8221072 15.8355465,11.3643297 16.5427145,11.7258114 C17.3205994,12.14754 18.1692011,12.3282808 19.0178028,12.3885278 C19.5835372,11.3040828 19.5128204,9.79790914 18.3813515,9.0749458 C18.0984843,8.89420497 17.7449002,8.83395802 17.3913162,8.83395802 Z" id="Shape" transform="translate(22.695077, 12.377097) rotate(-5.000000) translate(-22.695077, -12.377097) "></path>
                <path d="M25.8832062,11.9478197 C23.1252507,11.9478197 20.3672953,11.5260911 17.7507734,10.6223869 L18.2457911,9.477695 C22.4180827,10.8633747 26.9439583,11.1043625 31.1162499,10.1404114 C32.8841701,9.71868278 34.2277894,9.11621333 35.0763911,8.39325 C34.2985062,8.27275611 33.5206214,8.03176833 32.7427365,7.61003972 C31.6112676,7.00757027 30.9748163,6.22435999 30.8333827,5.38090277 C30.6919491,4.41695165 31.2576835,3.57349443 32.3184356,2.97102499 C33.5913382,2.36855554 35.1471079,2.36855554 36.1371432,3.03127193 C37.692913,3.99522304 37.9757802,5.80263138 37.4807626,7.24855805 C39.3193995,7.06781722 41.3701869,6.46534777 43.2795407,5.86287832 C43.915992,5.68213749 44.4817264,5.50139666 45.1181777,5.32065582 C50.2097878,3.87472915 56.008566,3.75423526 61.4537601,5.07966805 L61.1001761,6.22435999 C55.9378492,4.95917416 50.4219382,5.07966805 45.5424785,6.46534777 C44.9767441,6.6460886 44.3402928,6.82682944 43.7745584,7.00757027 C41.5116206,7.73053361 39.1072491,8.45349694 36.7735945,8.51374389 C35.7128424,9.77892972 33.9449222,10.7428808 31.469834,11.3453503 C29.631197,11.7068319 27.79256,11.9478197 25.8832062,11.9478197 Z M34.2985062,3.69398832 C33.8742054,3.69398832 33.3791878,3.81448221 33.0256037,3.99522304 C32.7427365,4.11571693 32.1062852,4.53744554 32.177002,5.20016193 C32.2477188,5.68213749 32.7427365,6.22435999 33.4499046,6.58584166 C34.2277894,7.00757027 35.0763911,7.1883111 35.9249928,7.24855805 C36.4907273,6.16411305 36.4200105,4.65793943 35.2885415,3.9349761 C35.0056743,3.75423526 34.6520903,3.69398832 34.2985062,3.69398832 Z" id="Shape" transform="translate(39.602267, 7.237127) rotate(-5.000000) translate(-39.602267, -7.237127) "></path>
            </g>
            <g id="Group-7" transform="translate(211.991274, 286.334527) rotate(-1.000000) translate(-211.991274, -286.334527) translate(85.991274, 186.334527)" fill-rule="nonzero" stroke="#555555" stroke-linecap="square">
                <path d="M-1,41.5876712 L252.717438,41.5876712" id="Line-10" transform="translate(125.858719, 42.175342) rotate(-9.000000) translate(-125.858719, -42.175342) "></path>
                <path d="M-1,19.5876712 L241.037481,19.5876712" id="Line-10" transform="translate(120.018740, 20.175342) rotate(-9.000000) translate(-120.018740, -20.175342) "></path>
                <path d="M-1,65.5876712 L241.037481,65.5876712" id="Line-10" transform="translate(120.018740, 66.175342) rotate(-9.000000) translate(-120.018740, -66.175342) "></path>
                <path d="M-0.982547594,86.5878235 L252.734891,86.5878235" id="Line-10" transform="translate(125.876172, 87.175495) rotate(-9.000000) translate(-125.876172, -87.175495) "></path>
                <path d="M-0.982547594,109.587824 L252.734891,109.587824" id="Line-10" transform="translate(125.876172, 110.175495) rotate(-9.000000) translate(-125.876172, -110.175495) "></path>
                <path d="M-0.982547594,132.587824 L241.054933,132.587824" id="Line-10" transform="translate(120.036193, 133.175495) rotate(-9.000000) translate(-120.036193, -133.175495) "></path>
                <path d="M-0.982547594,155.587824 L252.734891,155.587824" id="Line-10" transform="translate(125.876172, 156.175495) rotate(-9.000000) translate(-125.876172, -156.175495) "></path>
                <path d="M-0.982547594,178.587824 L241.054933,178.587824" id="Line-10" transform="translate(120.036193, 179.175495) rotate(-9.000000) translate(-120.036193, -179.175495) "></path>
            </g>
            <polyline id="Line-2" stroke="#000000" stroke-width="2" stroke-linecap="square" fill-rule="nonzero" points="-1.95399252e-14 80.3344512 4 469.334451 18 478.334451"></polyline>
            <text id="Main-Title" transform="translate(207.418534, 175.976179) rotate(-9.000000) translate(-207.418534, -175.976179) " font-family="SpaceMono-BoldItalic, Space Mono" font-size="15" font-style="italic" font-weight="bold" fill="#000000">
                <tspan x="124.798534" y="180.476179">Employee Agreement</tspan>
            </text>
            <text id="Main-Title" transform="translate(457.519925, 160.981022) rotate(-10.000000) translate(-457.519925, -160.981022) " font-family="SpaceMono-Italic, Space Mono" font-size="8" font-style="italic" font-weight="normal" fill="#000000">
                <tspan x="428.143925" y="157.481022">Counterparty</tspan>
            </text>
            <path d="M416.048612,189.755975 L416.048612,209.980762 L496.723317,196.473246 L496.65304,175.927191 L416.048612,189.755975 Z" id="Rectangle" stroke="#000000" fill="#FFFFFF" fill-rule="nonzero"></path>
            <text id="Main-Title" transform="translate(456.519925, 199.981022) rotate(-10.000000) translate(-456.519925, -199.981022) " font-family="SpaceMono-Italic, Space Mono" font-size="8" font-style="italic" font-weight="normal" fill="#000000">
                <tspan x="429.591925" y="196.481022">Signatory 1</tspan>
            </text>
            <path d="M415.048612,228.755975 L415.048612,248.977995 L495.651016,235.100585 L495.651016,214.927538 L415.048612,228.755975 Z" id="Rectangle" stroke="#000000" fill="#FFFFFF" fill-rule="nonzero"></path>
            <text id="Main-Title" transform="translate(456.519925, 238.981022) rotate(-10.000000) translate(-456.519925, -238.981022) " font-family="SpaceMono-Italic, Space Mono" font-size="8" font-style="italic" font-weight="normal" fill="#000000">
                <tspan x="429.591925" y="235.481022">Signatory 2</tspan>
            </text>
            <polygon id="Path-4" stroke="#000000" fill="#000000" fill-rule="nonzero" points="396.115701 353.030102 395.773739 383.484662 398.102764 384.578072 505.591898 362.977088 505.591898 334.975843 502.835623 332.979522"></polygon>
            <polygon id="Rectangle" fill="#FFFFFF" fill-rule="nonzero" points="398.388889 354.72334 505.297824 334.268485 505.297824 362.900896 398 384.332231"></polygon>
            <text id="Main-Title" transform="translate(452.836824, 358.617080) rotate(-10.000000) translate(-452.836824, -358.617080) " font-family="SpaceMono-BoldItalic, Space Mono" font-size="12" font-style="italic" font-weight="bold" fill="#000000">
                <tspan x="438.148824" y="363.11708">SIGN</tspan>
            </text>
            <path d="M231.404539,266.56203 L331.000269,265.619468 C334.556148,265.585816 337.466037,268.441144 337.49969,271.997023 C337.499882,272.017333 337.499978,272.037645 337.499978,272.057956 L337.499978,272.057956 C337.499978,275.647807 334.589829,278.557956 330.999978,278.557956 L228.16914,278.557956 C225.88075,278.557956 224.025644,276.702849 224.025644,274.41446 C224.025644,273.777792 224.172359,273.149687 224.454401,272.5789 L225.638653,270.182254 C226.72439,267.984978 228.953762,266.585224 231.404539,266.56203 Z" id="Rectangle" fill="#EBEBEB" fill-rule="nonzero" transform="translate(280.762811, 272.088565) rotate(-10.000000) translate(-280.762811, -272.088565) "></path>
            <path d="M93.5706382,222.347857 L190.971219,222.297276 C194.559206,222.295413 197.469354,225.20254 197.471217,228.790527 C197.471218,228.791651 197.471218,228.792776 197.471218,228.793901 L197.471218,228.793901 C197.471218,232.37998 194.564126,235.287072 190.978047,235.287072 C190.975772,235.287072 190.973497,235.287071 190.971222,235.287069 L93.0009531,235.184094 C89.7074531,235.180633 87.0403502,232.507917 87.0438119,229.214417 C87.0439698,229.064164 87.0498064,228.91397 87.061309,228.764158 L87.0930888,228.350251 C87.3530336,224.964672 90.1750952,222.349621 93.5706382,222.347857 Z" id="Rectangle" fill="#E7E7E7" fill-rule="nonzero" transform="translate(142.257513, 228.792174) rotate(-10.000000) translate(-142.257513, -228.792174) "></path>
            <polyline id="Path-20" stroke="#000000" fill-rule="nonzero" points="332.571968 263.227073 382 253.943565 384 130.628334 405.697169 126.643168"></polyline>
            <ellipse id="Oval" stroke="#000000" fill-rule="nonzero" transform="translate(330.216890, 263.524371) rotate(3.000000) translate(-330.216890, -263.524371) " cx="330.21689" cy="263.524371" rx="2.54439408" ry="3.81726369"></ellipse>
        </g>
    </g>
</svg>