<svg version="1" xmlns="http://www.w3.org/2000/svg" width="666.667" height="666.667" viewBox="0 0 500.000000 500.000000"><path d="M245.7 88.6c-.1.1-4 .4-8.5.8-16.4 1.3-37.1 6.9-53.8 14.7-44.9 20.8-79 63.2-90 111.8-3 13.2-3.7 20.5-3.8 35.6-.1 20.6 1.9 33.2 8.4 52.6 4.2 12.7 10.7 26.5 13.6 29 10.3 8.7 26.7 1.2 26.8-12.3 0-2.1-1.6-7-3.8-12-5.4-11.9-5.3-11.6-7.4-19.3-6.6-23.7-7.3-40.3-2.6-65.5 2.3-12.6 10.6-32 19.6-45.5 11-16.7 33.9-36.5 51.8-44.8 12-5.5 26.3-9.9 36.5-11.3 2.8-.3 5.9-.8 7-1 2.9-.6 25.8-.6 27.5 0 .8.3 3.5.7 6 1 8.5 1.1 21.5 4.9 30.5 8.8 13.4 6 17.1 7.1 20.7 6.4 12.4-2.3 17.8-16.9 9.7-26-6-6.9-36.6-18.5-55-21.1-10.3-1.4-13.6-1.7-22.7-1.9-5.6-.1-10.4-.1-10.5 0z"/><path d="M68.2 144c-8.8 5.5-24.8 52.1-28 81.7-1.4 13.2-.7 45 1.2 54.8.2 1.1.7 4 1.1 6.5 4.8 30.6 20.4 65.9 41.4 93.5 23.2 30.5 55.2 54.7 91.1 69 26.3 10.5 49.8 15 79 15 18.3 0 26.9-.7 38.8-3.1 1.5-.3 4.1-.7 5.7-1 7-1.2 29.1-7.9 36.5-11.1 1.9-.9 8.1-3.8 13.8-6.5 9.1-4.3 10.5-5.3 11.9-8.6 3.1-7.5-.8-14.9-8.4-15.9-3.4-.4-5.6.2-12.9 3.7-20.9 9.9-40.8 15.7-63.9 18.6-8.5 1.1-32.3 1-42-.2-30.5-3.5-61.4-14.7-85.4-30.9-10.1-6.9-8.8-5.9-18.6-14.3-19.8-17-33.5-34.1-45.5-56.7-5.5-10.5-13.8-31.8-15.6-40-.1-.6-.7-2.8-1.3-5-.5-2.2-1.3-5.8-1.6-8-.3-2.2-1.1-6.3-1.7-9-1.3-6.4-1.9-39-.8-47.5.5-3.6 1.1-8.1 1.4-10 .5-3.9.8-5.6 3.1-15.3 3.2-13.3 9.3-30.1 15.5-42.1 2-4 2.6-6.5 2.3-9.3-.8-8.2-10.2-12.7-17.1-8.3z"/><path d="M249.7 147.6c-.1.1-3.3.5-7.2.8-10.1.8-13 1.4-22.6 4.6-29.3 9.6-51.9 30.6-63.7 59.1-11.1 26.9-9.9 60.6 3 85 3.2 6.2 6.1 8.3 11.3 8.3 4.8 0 8-2.1 9.9-6.3 2-4.3 1.8-5.5-2.9-17.2-4.8-11.9-6.8-23-6.1-33.9.5-8.8.6-9.6 2.6-17 8.1-31.4 33-53.8 66-59.5 4.9-.9 20.6-.6 26 .5 7.1 1.3 17.6 4.8 21.8 7.2 1.8 1 5.1 1.8 7.3 1.8 3.3 0 4.7-.6 7.5-3.4 4.2-4.2 4.8-9.5 1.7-14.3-3-4.5-19.3-11.1-33.5-13.7-7.2-1.3-20.5-2.6-21.1-2zM375.8 169c-4.7 2.5-7.7 6.8-8.4 12.2-.5 3.7 0 5.8 3.9 14.3 6.2 14.1 10 26.3 11.5 37.5.9 6.9.9 32.2 0 37.5-.4 2.2-.9 5.7-1.2 7.7-.4 2-2.2 8.5-4.1 14.4-13.3 40.4-45.3 72.2-85 84.2-15.9 4.9-24.4 6.2-39.4 6.3-20.5.1-38.2-4-58.1-13.4-10.5-5-19-3.7-24.2 3.5-1.8 2.6-2.3 4.6-2.3 9.3 0 8.6 2.3 11.4 14.1 17.1 67.2 32.3 147.1 14.7 195.8-43 18.8-22.3 33.1-54.6 36.2-81.6.2-2.5.7-5.6.9-7 .6-3.2.7-26.2.1-31.5-1.2-10.5-2.2-16-4.7-26-3.9-15.1-12.5-35-17-39.2-5-4.6-12-5.5-18.1-2.3z"/></svg>