<svg height="700pt" preserveAspectRatio="xMidYMid meet" viewBox="0 0 700 700" width="700pt" xmlns="http://www.w3.org/2000/svg"><g transform="matrix(.1 0 0 -.1 0 700)"><path d="m3320 5749c-30-4-79-10-109-14-206-24-479-111-695-220-149-75-344-200-422-270-6-5-40-35-74-65-35-30-68-60-74-66s-38-40-72-75c-291-306-510-737-583-1151-31-180-33-194-36-378-6-369 65-697 221-1027 51-106 82-146 135-173 142-73 314 24 324 182 3 56-5 84-57 198-84 182-136 362-164 570-15 111-9 400 10 496 2 12 7 39 10 60 45 280 220 636 431 874 295 332 720 554 1165 607 82 10 324 10 411 1 184-21 409-84 576-164 112-52 156-65 206-58 155 19 240 156 186 298-26 70-61 101-174 156-209 101-470 181-670 205-27 4-61 8-75 11-47 8-415 11-470 3z"/><path d="m995 5003c-65-17-121-102-210-316-39-95-113-301-119-332-3-11-18-76-35-145-16-69-32-138-35-155-11-71-17-112-21-145-8-64-16-135-20-180-5-56-6-358-1-425 5-60 17-173 21-196 2-9 6-40 10-70s9-57 11-60c2-4 6-24 9-45 9-63 55-241 90-349 329-1016 1174-1788 2212-2020 60-13 126-26 148-29 22-4 53-9 68-12 161-34 696-39 817-9 8 2 40 7 70 10 30 4 75 11 100 17 25 5 56 12 70 14 215 40 568 166 780 280 62 33 96 78 105 137 11 76-32 141-112 168-50 16-85 8-209-51-231-110-436-178-682-225-13-2-31-6-40-9-9-2-44-7-77-11-33-3-67-8-75-10-48-13-435-21-511-11-19 3-61 8-94 11-88 9-151 19-300 49-11 2-68 18-127 35-663 187-1214 607-1581 1203-73 118-179 339-212 438-10 30-21 60-25 65-4 6-10 19-13 30s-21 76-40 145-37 141-41 160c-3 19-8 46-11 60-9 46-24 144-32 210-15 133-7 577 12 650 2 8 6 35 9 60s8 54 10 65c3 11 12 54 21 95s18 80 19 85c25 109 123 375 181 494 51 104 67 155 59 196-7 40-33 84-64 106-26 20-100 32-135 22z"/><path d="m3370 4925c-8-2-49-9-90-15-389-62-775-324-987-670-224-366-276-811-142-1213 38-113 90-224 120-256 49-52 125-64 186-30 93 52 107 127 49 258-102 227-132 448-93 672 85 478 451 842 932 925 88 16 295 15 370-1 96-20 126-28 185-49 36-13 90-36 120-50 65-31 113-37 157-22 131 46 147 208 27 287-83 55-286 124-454 155-37 6-354 14-380 9z"/><path d="m5274 4641c-83-38-141-142-130-233 2-21 24-81 49-135 70-157 116-283 133-373 3-14 7-32 10-42 40-135 51-493 19-668-3-14-7-41-10-60-23-137-85-319-161-474-232-468-645-810-1149-953-49-14-101-27-115-29-14-3-36-7-50-9-59-12-73-14-142-21-174-16-356-8-518 22-47 9-96 18-109 20-60 12-266 87-357 131-87 42-107 48-164 48-200 0-299-211-171-365 26-32 125-88 231-133 19-8 51-21 70-30 88-38 323-103 440-122 25-4 54-9 65-11 119-25 533-25 650-1 11 3 40 8 65 12 77 11 273 63 366 95 220 78 434 193 619 333 112 86 126 98 255 227 282 282 485 639 585 1030 84 328 94 677 29 1015-15 80-67 272-83 310-5 11-19 47-31 80-34 89-116 257-138 282-54 61-183 89-258 54z"/></g></svg>