<?xml version="1.0" encoding="UTF-8"?>
<svg width="70px" height="11px" viewBox="0 0 70 11" version="1.1" xmlns="http://www.w3.org/2000/svg" xmlns:xlink="http://www.w3.org/1999/xlink">
    <!-- Generator: Sketch 52.2 (67145) - http://www.bohemiancoding.com/sketch -->
    <title>Path</title>
    <desc>Created with Sketch.</desc>
    <defs>
        <filter x="-0.2%" y="-2.8%" width="100.4%" height="105.6%" filterUnits="objectBoundingBox" id="filter-1">
            <feGaussianBlur stdDeviation="0" in="SourceGraphic"></feGaussianBlur>
        </filter>
    </defs>
    <g id="Page-1" stroke="none" stroke-width="1" fill="none" fill-rule="evenodd">
        <g id="Draft-OL" transform="translate(-416.000000, -5121.000000)" fill="#FFFFFF" stroke="#FFFFFF" stroke-width="0.5">
            <path d="M517.437147,5122 C520.915243,5122 522.844245,5124.12467 524.241185,5125.8435 C525.695144,5127.58621 526.692958,5128.66048 528.60306,5128.66048 C529.372802,5128.66048 530,5129.18568 530,5129.83024 C530,5130.4748 529.372802,5131 528.60306,5131 C525.124964,5131 523.357407,5128.87533 521.960467,5127.1565 C520.506509,5125.41379 519.347248,5124.33952 517.437147,5124.33952 C515.498536,5124.33952 514.52923,5125.41379 513.075272,5127.1565 C511.678332,5128.87533 509.910775,5131 506.432679,5131 C502.954583,5131 501.187026,5128.87533 499.790086,5127.1565 C498.336128,5125.41379 497.338314,5124.33952 495.428212,5124.33952 C493.489601,5124.33952 492.520296,5125.41379 491.066337,5127.1565 C489.669397,5128.87533 487.90184,5131 484.423744,5131 C480.945649,5131 479.178092,5128.87533 477.781151,5127.1565 C476.327193,5125.41379 475.329379,5124.33952 473.419277,5124.33952 C471.480666,5124.33952 470.511361,5125.41379 469.057403,5127.1565 C467.660463,5128.87533 465.892906,5131 462.41481,5131 C458.936714,5131 457.169157,5128.87533 455.772217,5127.1565 C454.318259,5125.41379 453.320444,5124.33952 451.410342,5124.33952 C449.471731,5124.33952 448.502426,5125.41379 447.048468,5127.1565 C445.651528,5128.87533 443.883971,5131 440.405875,5131 C436.927779,5131 435.160222,5128.87533 433.763282,5127.1565 C432.309324,5125.41379 431.311509,5124.33952 429.401408,5124.33952 C427.462797,5124.33952 426.493491,5125.41379 425.039533,5127.1565 C423.642593,5128.87533 421.875036,5131 418.39694,5131 C417.627198,5131 417,5130.4748 417,5129.83024 C417,5129.18568 417.627198,5128.66048 418.39694,5128.66048 C420.335551,5128.66048 421.304856,5127.58621 422.758815,5125.8435 C424.155755,5124.12467 425.923312,5122 429.401408,5122 C432.879503,5122 434.64706,5124.12467 436.044001,5125.8435 C437.497959,5127.58621 438.495773,5128.66048 440.405875,5128.66048 C442.344486,5128.66048 443.313791,5127.58621 444.767749,5125.8435 C446.164689,5124.12467 447.932246,5122 451.410342,5122 C454.888438,5122 456.655995,5124.12467 458.052935,5125.8435 C459.506893,5127.58621 460.504708,5128.66048 462.41481,5128.66048 C464.353421,5128.66048 465.322726,5127.58621 466.776684,5125.8435 C468.173624,5124.12467 469.941181,5122 473.419277,5122 C476.897373,5122 478.66493,5124.12467 480.06187,5125.8435 C481.515828,5127.58621 482.513643,5128.66048 484.423744,5128.66048 C486.362355,5128.66048 487.331661,5127.58621 488.785619,5125.8435 C490.182559,5124.12467 491.950116,5122 495.428212,5122 C498.906308,5122 500.673865,5124.12467 502.070805,5125.8435 C503.524763,5127.58621 504.522577,5128.66048 506.432679,5128.66048 C508.37129,5128.66048 509.340596,5127.58621 510.794554,5125.8435 C512.191494,5124.12467 513.959051,5122 517.437147,5122 Z" id="Path" filter="url(#filter-1)"></path>
        </g>
    </g>
</svg>