<?xml version="1.0" encoding="UTF-8"?>
<svg width="115px" height="11px" viewBox="0 0 115 11" version="1.1" xmlns="http://www.w3.org/2000/svg" xmlns:xlink="http://www.w3.org/1999/xlink">
    <!-- Generator: Sketch 52.2 (67145) - http://www.bohemiancoding.com/sketch -->
    <title>Path</title>
    <desc>Created with Sketch.</desc>
    <defs>
        <filter x="-0.2%" y="-2.8%" width="100.4%" height="105.6%" filterUnits="objectBoundingBox" id="filter-1">
            <feGaussianBlur stdDeviation="0" in="SourceGraphic"></feGaussianBlur>
        </filter>
    </defs>
    <g id="Page-1" stroke="none" stroke-width="1" fill="none" fill-rule="evenodd">
        <g id="Draft-OL" transform="translate(-323.000000, -794.000000)" fill="#FFFFFF" stroke="#000000" stroke-width="0.5">
            <path d="M424.437147,795 C427.915243,795 429.844245,797.124668 431.241185,798.843501 C432.695144,800.586207 433.692958,801.660477 435.60306,801.660477 C436.372802,801.660477 437,802.185676 437,802.830239 C437,803.474801 436.372802,804 435.60306,804 C432.124964,804 430.357407,801.875332 428.960467,800.156499 C427.506509,798.413793 426.347248,797.339523 424.437147,797.339523 C422.498536,797.339523 421.52923,798.413793 420.075272,800.156499 C418.678332,801.875332 416.910775,804 413.432679,804 C409.954583,804 408.187026,801.875332 406.790086,800.156499 C405.336128,798.413793 404.338314,797.339523 402.428212,797.339523 C400.489601,797.339523 399.520296,798.413793 398.066337,800.156499 C396.669397,801.875332 394.90184,804 391.423744,804 C387.945649,804 386.178092,801.875332 384.781151,800.156499 C383.327193,798.413793 382.329379,797.339523 380.419277,797.339523 C378.480666,797.339523 377.511361,798.413793 376.057403,800.156499 C374.660463,801.875332 372.892906,804 369.41481,804 C365.936714,804 364.169157,801.875332 362.772217,800.156499 C361.318259,798.413793 360.320444,797.339523 358.410342,797.339523 C356.471731,797.339523 355.502426,798.413793 354.048468,800.156499 C352.651528,801.875332 350.883971,804 347.405875,804 C343.927779,804 342.160222,801.875332 340.763282,800.156499 C339.309324,798.413793 338.311509,797.339523 336.401408,797.339523 C334.462797,797.339523 333.493491,798.413793 332.039533,800.156499 C330.642593,801.875332 328.875036,804 325.39694,804 C324.627198,804 324,803.474801 324,802.830239 C324,802.185676 324.627198,801.660477 325.39694,801.660477 C327.335551,801.660477 328.304856,800.586207 329.758815,798.843501 C331.155755,797.124668 332.923312,795 336.401408,795 C339.879503,795 341.64706,797.124668 343.044001,798.843501 C344.497959,800.586207 345.495773,801.660477 347.405875,801.660477 C349.344486,801.660477 350.313791,800.586207 351.767749,798.843501 C353.164689,797.124668 354.932246,795 358.410342,795 C361.888438,795 363.655995,797.124668 365.052935,798.843501 C366.506893,800.586207 367.504708,801.660477 369.41481,801.660477 C371.353421,801.660477 372.322726,800.586207 373.776684,798.843501 C375.173624,797.124668 376.941181,795 380.419277,795 C383.897373,795 385.66493,797.124668 387.06187,798.843501 C388.515828,800.586207 389.513643,801.660477 391.423744,801.660477 C393.362355,801.660477 394.331661,800.586207 395.785619,798.843501 C397.182559,797.124668 398.950116,795 402.428212,795 C405.906308,795 407.673865,797.124668 409.070805,798.843501 C410.524763,800.586207 411.522577,801.660477 413.432679,801.660477 C415.37129,801.660477 416.340596,800.586207 417.794554,798.843501 C419.191494,797.124668 420.959051,795 424.437147,795 Z" id="Path" filter="url(#filter-1)"></path>
        </g>
    </g>
</svg>