<?xml version="1.0" encoding="UTF-8"?>
<svg width="24px" height="50px" viewBox="0 0 24 50" version="1.1" xmlns="http://www.w3.org/2000/svg" xmlns:xlink="http://www.w3.org/1999/xlink">
    <!-- Generator: Sketch 52.2 (67145) - http://www.bohemiancoding.com/sketch -->
    <title>Group 11</title>
    <desc>Created with Sketch.</desc>
    <defs>
        <filter x="-7.1%" y="-1.0%" width="114.3%" height="102.0%" filterUnits="objectBoundingBox" id="filter-1">
            <feGaussianBlur stdDeviation="0" in="SourceGraphic"></feGaussianBlur>
        </filter>
        <filter x="-7.1%" y="-1.0%" width="114.3%" height="102.0%" filterUnits="objectBoundingBox" id="filter-2">
            <feGaussianBlur stdDeviation="0" in="SourceGraphic"></feGaussianBlur>
        </filter>
    </defs>
    <g id="Page-1" stroke="none" stroke-width="1" fill="none" fill-rule="evenodd">
        <g id="Draft-OL" transform="translate(-87.000000, -2110.000000)" fill="#FFFFFF" stroke="#FFFFFF">
            <g id="Group-11" transform="translate(88.000000, 2110.500000)">
                <path d="M7,43.552391 C7,45.0605919 5.34748011,45.8970621 4.01061008,46.5028149 C2.65517241,47.1332924 1.81962865,47.5659729 1.81962865,48.3942472 C1.81962865,48.7280293 1.41114058,49 0.909814324,49 C0.408488064,49 8.8817842e-16,48.7280293 8.8817842e-16,48.3942472 C8.8817842e-16,46.8860463 1.65251989,46.1195836 2.98938992,45.5138307 C4.34482759,44.8833533 5.18037135,44.3806653 5.18037135,43.552391 C5.18037135,42.7117545 4.34482759,42.2914362 2.98938992,41.6609588 C1.65251989,41.055206 -8.8817842e-16,40.2887432 -8.8817842e-16,38.7805423 C-8.8817842e-16,37.2723414 1.65251989,36.5058787 2.98938992,35.9001259 C4.34482759,35.2696485 5.18037135,34.8369679 5.18037135,34.0086936 C5.18037135,33.1680571 4.34482759,32.7477388 2.98938992,32.1172614 C1.65251989,31.5115086 -8.8817842e-16,30.7450458 -8.8817842e-16,29.236845 C-8.8817842e-16,27.7286441 1.65251989,26.9621813 2.98938992,26.3564285 C4.34482759,25.7259511 5.18037135,25.2932705 5.18037135,24.4649963 C5.18037135,23.6243597 4.34482759,23.2040414 2.98938992,22.573564 C1.65251989,21.9678112 -8.8817842e-16,21.2013485 -8.8817842e-16,19.6931476 C-8.8817842e-16,18.1849467 1.65251989,17.4184839 2.98938992,16.8127311 C4.34482759,16.1822537 5.18037135,15.7495731 5.18037135,14.9212989 C5.18037135,14.0806623 4.34482759,13.660344 2.98938992,13.0298666 C1.65251989,12.4241138 -8.8817842e-16,11.6576511 -8.8817842e-16,10.1494502 C-8.8817842e-16,8.64124931 1.65251989,7.87478657 2.98938992,7.26903376 C4.34482759,6.63855634 5.18037135,6.20587576 5.18037135,5.3776015 C5.18037135,4.53696495 4.34482759,4.11664667 2.98938992,3.48616925 C1.65251989,2.88041644 -8.8817842e-16,2.11395369 -8.8817842e-16,0.605752813 C-8.8817842e-16,0.271970651 0.408488064,5.68434189e-14 0.909814324,5.68434189e-14 C1.41114058,5.68434189e-14 1.81962865,0.271970651 1.81962865,0.605752813 C1.81962865,1.44638937 2.65517241,1.86670765 4.01061008,2.49718507 C5.34748011,3.10293788 7,3.86940062 7,5.3776015 C7,6.88580238 5.34748011,7.65226513 4.01061008,8.25801794 C2.65517241,8.88849536 1.81962865,9.32117594 1.81962865,10.1494502 C1.81962865,10.9900867 2.65517241,11.410405 4.01061008,12.0408824 C5.34748011,12.6466353 7,13.413098 7,14.9212989 C7,16.4294998 5.34748011,17.1959625 4.01061008,17.8017153 C2.65517241,18.4321927 1.81962865,18.8648733 1.81962865,19.6931476 C1.81962865,20.5337841 2.65517241,20.9541024 4.01061008,21.5845798 C5.34748011,22.1903326 7,22.9567954 7,24.4649963 C7,25.9731971 5.34748011,26.7396599 4.01061008,27.3454127 C2.65517241,27.9758901 1.81962865,28.4085707 1.81962865,29.236845 C1.81962865,30.0774815 2.65517241,30.4977998 4.01061008,31.1282772 C5.34748011,31.73403 7,32.5004928 7,34.0086936 C7,35.5168945 5.34748011,36.2833573 4.01061008,36.8891101 C2.65517241,37.5195875 1.81962865,37.9522681 1.81962865,38.7805423 C1.81962865,39.6211789 2.65517241,40.0414972 4.01061008,40.6719746 C5.34748011,41.2777274 7,42.0441901 7,43.552391 Z" id="Path" filter="url(#filter-1)"></path>
                <path d="M22,43.552391 C22,45.0605919 20.3474801,45.8970621 19.0106101,46.5028149 C17.6551724,47.1332924 16.8196286,47.5659729 16.8196286,48.3942472 C16.8196286,48.7280293 16.4111406,49 15.9098143,49 C15.4084881,49 15,48.7280293 15,48.3942472 C15,46.8860463 16.6525199,46.1195836 17.9893899,45.5138307 C19.3448276,44.8833533 20.1803714,44.3806653 20.1803714,43.552391 C20.1803714,42.7117545 19.3448276,42.2914362 17.9893899,41.6609588 C16.6525199,41.055206 15,40.2887432 15,38.7805423 C15,37.2723414 16.6525199,36.5058787 17.9893899,35.9001259 C19.3448276,35.2696485 20.1803714,34.8369679 20.1803714,34.0086936 C20.1803714,33.1680571 19.3448276,32.7477388 17.9893899,32.1172614 C16.6525199,31.5115086 15,30.7450458 15,29.236845 C15,27.7286441 16.6525199,26.9621813 17.9893899,26.3564285 C19.3448276,25.7259511 20.1803714,25.2932705 20.1803714,24.4649963 C20.1803714,23.6243597 19.3448276,23.2040414 17.9893899,22.573564 C16.6525199,21.9678112 15,21.2013485 15,19.6931476 C15,18.1849467 16.6525199,17.4184839 17.9893899,16.8127311 C19.3448276,16.1822537 20.1803714,15.7495731 20.1803714,14.9212989 C20.1803714,14.0806623 19.3448276,13.660344 17.9893899,13.0298666 C16.6525199,12.4241138 15,11.6576511 15,10.1494502 C15,8.64124931 16.6525199,7.87478657 17.9893899,7.26903376 C19.3448276,6.63855634 20.1803714,6.20587576 20.1803714,5.3776015 C20.1803714,4.53696495 19.3448276,4.11664667 17.9893899,3.48616925 C16.6525199,2.88041644 15,2.11395369 15,0.605752813 C15,0.271970651 15.4084881,0 15.9098143,0 C16.4111406,0 16.8196286,0.271970651 16.8196286,0.605752813 C16.8196286,1.44638937 17.6551724,1.86670765 19.0106101,2.49718507 C20.3474801,3.10293788 22,3.86940062 22,5.3776015 C22,6.88580238 20.3474801,7.65226513 19.0106101,8.25801794 C17.6551724,8.88849536 16.8196286,9.32117594 16.8196286,10.1494502 C16.8196286,10.9900867 17.6551724,11.410405 19.0106101,12.0408824 C20.3474801,12.6466353 22,13.413098 22,14.9212989 C22,16.4294998 20.3474801,17.1959625 19.0106101,17.8017153 C17.6551724,18.4321927 16.8196286,18.8648733 16.8196286,19.6931476 C16.8196286,20.5337841 17.6551724,20.9541024 19.0106101,21.5845798 C20.3474801,22.1903326 22,22.9567954 22,24.4649963 C22,25.9731971 20.3474801,26.7396599 19.0106101,27.3454127 C17.6551724,27.9758901 16.8196286,28.4085707 16.8196286,29.236845 C16.8196286,30.0774815 17.6551724,30.4977998 19.0106101,31.1282772 C20.3474801,31.73403 22,32.5004928 22,34.0086936 C22,35.5168945 20.3474801,36.2833573 19.0106101,36.8891101 C17.6551724,37.5195875 16.8196286,37.9522681 16.8196286,38.7805423 C16.8196286,39.6211789 17.6551724,40.0414972 19.0106101,40.6719746 C20.3474801,41.2777274 22,42.0441901 22,43.552391 Z" id="Path" filter="url(#filter-2)"></path>
            </g>
        </g>
    </g>
</svg>